<svg width="3027" height="303" viewBox="0 0 3027 303" fill="none" xmlns="http://www.w3.org/2000/svg">
<path d="M10 288.212V26.394H103.324C123.608 26.394 140.44 29.8883 153.821 36.877C167.287 43.8656 177.344 53.5389 183.991 65.8968C190.639 78.1696 193.963 92.3599 193.963 108.468C193.963 124.491 190.597 138.596 183.864 150.783C177.216 162.885 167.159 172.303 153.693 179.036C140.313 185.769 123.48 189.135 103.196 189.135H32.5V155.13H99.6165C112.401 155.13 122.798 153.297 130.81 149.633C138.906 145.968 144.83 140.641 148.58 133.653C152.33 126.664 154.205 118.269 154.205 108.468C154.205 98.5815 152.287 90.0162 148.452 82.7718C144.702 75.5275 138.778 69.9878 130.682 66.1525C122.67 62.2321 112.145 60.2718 99.1051 60.2718H49.5028V288.212H10ZM139.247 170.087L203.935 288.212H158.935L95.5256 170.087H139.247Z" fill="black"/>
<path d="M252.831 288.212V26.394H416.979V60.3997H292.334V140.172H408.414V174.05H292.334V254.207H418.513V288.212H252.831Z" fill="black"/>
<path d="M480.545 288.212V26.394H644.693V60.3997H520.048V140.172H636.128V174.05H520.048V254.207H646.227V288.212H480.545Z" fill="black"/>
<path d="M731.143 26.394L804.012 239.633H806.953L879.822 26.394H922.521L828.302 288.212H782.663L688.444 26.394H731.143Z" fill="black"/>
<path d="M971.13 288.212V26.394H1135.28V60.3997H1010.63V140.172H1126.71V174.05H1010.63V254.207H1136.81V288.212H971.13Z" fill="black"/>
<path d="M1341.64 95.1724C1340.28 83.0701 1334.65 73.6951 1324.77 67.0474C1314.88 60.3145 1302.44 56.948 1287.44 56.948C1276.7 56.948 1267.41 58.6525 1259.57 62.0616C1251.73 65.3855 1245.63 69.9877 1241.29 75.8684C1237.03 81.6639 1234.89 88.269 1234.89 95.6838C1234.89 101.905 1236.34 107.275 1239.24 111.792C1242.22 116.309 1246.1 120.101 1250.88 123.17C1255.73 126.153 1260.93 128.667 1266.47 130.712C1272.01 132.672 1277.34 134.292 1282.45 135.57L1308.02 142.218C1316.37 144.263 1324.94 147.033 1333.72 150.528C1342.49 154.022 1350.63 158.624 1358.13 164.334C1365.63 170.045 1371.68 177.118 1376.29 185.556C1380.97 193.993 1383.32 204.093 1383.32 215.854C1383.32 230.684 1379.48 243.851 1371.81 255.357C1364.23 266.863 1353.19 275.939 1338.7 282.587C1324.3 289.235 1306.87 292.559 1286.41 292.559C1266.81 292.559 1249.85 289.448 1235.53 283.226C1221.22 277.005 1210.01 268.184 1201.91 256.763C1193.82 245.258 1189.34 231.621 1188.49 215.854H1228.12C1228.89 225.314 1231.95 233.198 1237.32 239.505C1242.78 245.726 1249.72 250.371 1258.16 253.439C1266.68 256.422 1276.02 257.914 1286.16 257.914C1297.32 257.914 1307.25 256.167 1315.95 252.672C1324.72 249.093 1331.63 244.15 1336.66 237.843C1341.68 231.451 1344.2 223.993 1344.2 215.471C1344.2 207.715 1341.98 201.366 1337.55 196.422C1333.2 191.479 1327.28 187.388 1319.78 184.15C1312.37 180.911 1303.97 178.056 1294.6 175.584L1263.66 167.147C1242.69 161.437 1226.07 153.042 1213.8 141.962C1201.61 130.883 1195.52 116.224 1195.52 97.9849C1195.52 82.8997 1199.61 69.7321 1207.79 58.4821C1215.97 47.2321 1227.05 38.4963 1241.03 32.2747C1255.01 25.9679 1270.78 22.8145 1288.33 22.8145C1306.06 22.8145 1321.7 25.9253 1335.25 32.1468C1348.89 38.3684 1359.63 46.9338 1367.47 57.8429C1375.31 68.6667 1379.4 81.1099 1379.74 95.1724H1341.64Z" fill="black"/>
<path d="M1515.61 81.5663C1515.61 86.1283 1516.66 89.4547 1518.75 91.5456C1520.84 93.4465 1523.41 94.682 1526.45 95.2523C1529.68 95.8225 1533.1 96.1076 1536.71 96.1076C1540.51 95.9175 1543.93 96.0126 1546.98 96.3928C1547.36 96.3928 1548.12 96.7729 1549.26 97.5332C1550.4 98.1035 1551.16 98.3886 1551.54 98.3886C1555.34 99.5291 1558.19 100.194 1560.09 100.384C1561.99 100.575 1564.84 100.67 1568.65 100.67C1572.26 100.67 1575.96 100.575 1579.76 100.384C1583.57 100.004 1586.99 99.244 1590.03 98.1035C1593.26 96.963 1595.83 95.1572 1597.73 92.6861C1599.82 90.2151 1600.86 86.7936 1600.86 82.4216C1600.86 76.9092 1599.91 71.2067 1598.01 65.3142C1596.3 59.2315 1593.26 54.4794 1588.89 51.0579C1587.94 51.0579 1586.42 50.9629 1584.33 50.7728C1582.43 50.5827 1580.34 50.3927 1578.05 50.2026C1575.77 50.0125 1573.49 49.8224 1571.21 49.6323C1569.12 49.2522 1567.6 49.0621 1566.65 49.0621C1566.27 48.872 1565.79 48.5869 1565.22 48.2067C1564.08 47.4464 1563.42 47.0662 1563.23 47.0662H1558.38C1554.39 47.0662 1549.83 48.1117 1544.69 50.2026C1539.75 52.1034 1535.1 54.6695 1530.72 57.9009C1526.54 61.1323 1522.93 64.839 1519.89 69.0208C1517.04 73.0125 1515.61 77.1944 1515.61 81.5663ZM1450.32 151.992C1450.32 140.777 1451.55 129.467 1454.02 118.062C1456.69 106.467 1461.34 95.9175 1468 86.4134C1469.33 84.5126 1471.23 82.0415 1473.7 79.0002C1476.17 75.7687 1478.55 72.6324 1480.83 69.591C1483.3 66.3596 1485.39 63.5084 1487.1 61.0373C1488.81 58.5662 1489.76 57.1406 1489.95 56.7604C1492.42 53.7191 1495.65 50.8679 1499.64 48.2067C1503.64 45.5455 1507.82 42.9794 1512.19 40.5083C1516.56 38.0373 1520.93 35.6612 1525.31 33.3802C1529.68 30.9091 1533.48 28.5331 1536.71 26.2521C1540.51 25.4918 1544.31 24.9215 1548.12 24.5414C1551.92 23.9711 1555.72 23.686 1559.52 23.686C1565.79 23.686 1571.5 24.3513 1576.63 25.6819C1580.62 28.343 1584.9 30.0538 1589.46 30.8141C1594.02 31.3843 1598.49 32.3348 1602.86 33.6653C1606.47 34.6158 1609.99 36.1364 1613.41 38.2273C1617.02 40.1282 1620.25 42.5042 1623.1 45.3554C1626.15 48.0166 1628.9 50.9629 1631.37 54.1943C1634.03 57.2356 1636.31 60.277 1638.22 63.3183C1638.41 63.5084 1638.69 63.9836 1639.07 64.7439C1639.45 65.5043 1639.83 66.3596 1640.21 67.31C1640.78 68.0704 1641.26 68.8307 1641.64 69.591C1642.02 70.3514 1642.21 70.8266 1642.21 71.0167C1643.16 72.3472 1644.39 73.8679 1645.91 75.5787C1647.62 77.0993 1649.24 78.8101 1650.76 80.7109C1652.28 82.4216 1653.52 84.3225 1654.47 86.4134C1655.61 88.3142 1656.18 90.3101 1656.18 92.401C1656.18 93.9217 1656.08 95.8225 1655.89 98.1035C1655.7 100.194 1655.32 102.38 1654.75 104.661C1654.18 106.752 1653.33 108.748 1652.19 110.649C1651.24 112.55 1649.91 113.88 1648.19 114.641C1647.81 114.641 1647.05 114.831 1645.91 115.211C1644.96 115.591 1643.82 116.066 1642.49 116.637C1641.16 117.017 1639.83 117.397 1638.5 117.777C1637.36 118.157 1636.6 118.442 1636.22 118.632C1636.03 118.632 1635.36 118.918 1634.22 119.488C1633.27 119.868 1632.7 120.153 1632.51 120.343C1630.04 120.343 1626.24 120.438 1621.11 120.628C1616.17 120.628 1610.46 120.723 1604 120.913C1597.73 120.913 1591.07 121.009 1584.04 121.199C1577.01 121.389 1570.26 121.579 1563.8 121.769C1557.53 121.959 1551.82 122.149 1546.69 122.339C1541.56 122.339 1537.76 122.339 1535.29 122.339C1534.53 122.339 1533.1 122.434 1531.01 122.624C1528.92 122.624 1526.73 122.719 1524.45 122.909C1522.17 123.099 1519.98 123.385 1517.89 123.765C1515.99 123.955 1514.66 124.145 1513.9 124.335C1508.96 128.327 1505.63 133.174 1503.92 138.876C1502.4 144.389 1501.64 150.281 1501.64 156.554C1501.64 163.397 1502.31 169.385 1503.64 174.517C1504.97 179.459 1506.96 185.162 1509.62 191.624C1510 192.005 1510.38 192.765 1510.76 193.905C1511.34 194.856 1511.62 195.521 1511.62 195.901C1511.81 196.091 1512.29 196.567 1513.05 197.327C1514 197.897 1514.85 198.657 1515.61 199.608C1516.56 200.368 1517.42 201.224 1518.18 202.174C1518.94 202.934 1519.32 203.505 1519.32 203.885C1519.51 204.075 1520.08 204.74 1521.03 205.881C1522.17 206.831 1523.31 207.972 1524.45 209.302C1525.59 210.633 1526.64 211.963 1527.59 213.294C1528.54 214.434 1529.11 215.195 1529.3 215.575C1529.68 215.575 1530.06 215.86 1530.44 216.43C1531.01 217 1531.48 217.286 1531.86 217.286C1533.57 218.806 1535.67 220.612 1538.14 222.703C1540.8 224.794 1543.36 226.79 1545.84 228.691C1548.69 230.972 1551.73 233.253 1554.96 235.534C1563.13 237.815 1571.02 238.955 1578.62 238.955C1586.23 238.955 1594.31 237.815 1602.86 235.534C1607.8 232.492 1612.84 230.211 1617.97 228.691C1623.29 226.98 1628.62 225.269 1633.94 223.558C1634.32 223.178 1635.08 222.798 1636.22 222.418C1637.36 221.848 1638.03 221.372 1638.22 220.992H1640.21C1641.54 221.562 1643.16 222.323 1645.06 223.273C1647.15 224.224 1648.19 224.984 1648.19 225.554C1648.57 225.934 1648.96 227.36 1649.34 229.831C1649.91 232.302 1650.19 234.203 1650.19 235.534C1650.19 238.765 1649.24 242.567 1647.34 246.939C1645.63 251.31 1643.92 254.542 1642.21 256.633C1642.21 257.013 1641.07 257.963 1638.79 259.484C1636.69 261.005 1635.08 262.145 1633.94 262.906C1627.86 266.897 1621.87 271.174 1615.98 275.736C1610.08 280.108 1603.72 283.625 1596.87 286.286C1596.49 286.476 1595.54 286.666 1594.02 286.856C1592.69 287.236 1591.26 287.521 1589.74 287.711C1588.22 287.901 1586.8 288.092 1585.47 288.282C1584.14 288.472 1583.38 288.567 1583.19 288.567C1579.57 289.517 1576.44 290.373 1573.78 291.133C1571.31 292.083 1568.36 292.558 1564.94 292.558C1561.71 292.558 1558.76 292.083 1556.1 291.133C1553.44 290.373 1550.4 289.517 1546.98 288.567C1545.26 288.187 1542.79 287.521 1539.56 286.571C1536.52 285.811 1533.29 284.86 1529.87 283.72C1526.45 282.579 1523.22 281.344 1520.17 280.013C1517.32 278.682 1515.23 277.447 1513.9 276.306C1513.33 276.116 1512.29 275.261 1510.76 273.74C1509.24 272.22 1507.53 270.604 1505.63 268.893C1503.92 267.182 1502.31 265.567 1500.79 264.046C1499.26 262.525 1498.22 261.575 1497.65 261.195C1497.46 260.815 1496.51 260.054 1494.8 258.914C1493.09 257.773 1492.14 257.013 1491.95 256.633C1491 256.253 1489.86 255.397 1488.53 254.067C1487.19 252.546 1486.34 251.596 1485.96 251.215C1485.39 250.455 1484.15 248.744 1482.25 246.083C1480.54 243.232 1478.64 240.191 1476.55 236.959C1474.46 233.728 1472.37 230.591 1470.28 227.55C1468.38 224.509 1467.05 222.323 1466.29 220.992C1463.62 217.191 1461.82 213.389 1460.87 209.587C1460.11 205.786 1459.25 201.699 1458.3 197.327C1458.3 197.137 1457.92 196.281 1457.16 194.761C1456.59 193.05 1456.31 192.005 1456.31 191.624C1453.83 185.922 1452.22 179.554 1451.46 172.521C1450.7 165.298 1450.32 158.455 1450.32 151.992Z" fill="black"/>
<path d="M1707.91 245.228V238.385C1707.91 238.005 1708.48 236.769 1709.62 234.678C1710.76 232.587 1711.33 231.352 1711.33 230.972C1712.28 228.691 1713.14 226.219 1713.9 223.558C1714.66 220.707 1715.51 218.046 1716.47 215.575C1717.61 213.104 1719.03 211.013 1720.74 209.302C1722.45 207.591 1724.92 206.736 1728.16 206.736H1731.01C1731.58 206.736 1732.34 207.591 1733.29 209.302C1734.24 211.013 1735 212.343 1735.57 213.294C1738.04 217.856 1740.7 223.083 1743.55 228.976C1746.59 234.678 1750.01 240.001 1753.82 244.943C1757.62 249.885 1762.09 254.067 1767.22 257.488C1772.35 260.91 1778.24 262.62 1784.89 262.62C1787.37 262.62 1790.5 261.765 1794.3 260.054C1798.11 258.153 1801.81 255.967 1805.42 253.496C1809.23 251.025 1812.55 248.459 1815.4 245.798C1818.44 242.947 1820.25 240.476 1820.82 238.385C1821.58 235.914 1822.25 233.633 1822.82 231.542C1823.39 229.451 1823.67 227.265 1823.67 224.984C1823.67 221.182 1822.72 217.286 1820.82 213.294C1820.82 211.013 1818.82 207.876 1814.83 203.885C1811.03 199.893 1806.56 195.996 1801.43 192.195C1796.3 188.203 1791.36 184.591 1786.61 181.36C1781.85 178.128 1778.62 176.038 1776.91 175.087C1774.82 174.327 1772.63 173.947 1770.35 173.947C1768.26 173.757 1766.46 172.996 1764.94 171.666C1764.94 171.285 1764.46 170.715 1763.51 169.955C1762.75 169.195 1761.89 168.434 1760.94 167.674C1760.18 166.723 1759.33 165.868 1758.38 165.108C1757.62 164.347 1757.24 163.967 1757.24 163.967C1756.86 163.207 1755.62 162.161 1753.53 160.831C1751.44 159.31 1750.01 158.17 1749.25 157.409L1745.26 155.414L1729.58 139.732C1728.25 136.5 1727.11 133.269 1726.16 130.037C1725.4 126.806 1724.54 123.48 1723.59 120.058C1723.4 119.108 1723.02 117.777 1722.45 116.066C1722.07 114.356 1721.69 112.74 1721.31 111.219C1720.93 109.508 1720.55 108.083 1720.17 106.942C1719.79 105.612 1719.6 104.851 1719.6 104.661C1719.22 99.5291 1719.6 94.2068 1720.74 88.6944C1721.88 82.9919 1723.59 77.5745 1725.87 72.4423C1728.35 67.31 1731.2 62.558 1734.43 58.1861C1737.66 53.6241 1741.27 49.9174 1745.26 47.0662C1745.64 46.686 1746.69 46.3059 1748.4 45.9257C1750.11 45.3555 1751.25 44.8802 1751.82 44.5001C1754.67 43.3596 1757.71 41.6488 1760.94 39.3678C1764.37 36.8968 1767.88 34.5207 1771.49 32.2397C1775.11 29.7686 1778.72 27.6777 1782.33 25.967C1785.94 24.2562 1789.36 23.4009 1792.59 23.4009C1795.82 23.4009 1799.53 24.1612 1803.71 25.6819C1807.9 27.0124 1811.41 28.1529 1814.26 29.1033C1819.4 30.8141 1824.34 32.4298 1829.09 33.9505C1833.84 35.4711 1838.02 37.467 1841.63 39.9381C1845.44 42.4092 1848.38 45.5455 1850.47 49.3472C1852.75 53.1489 1853.9 58.091 1853.9 64.1737C1853.9 66.2646 1853.61 69.3059 1853.04 73.2977C1852.66 77.0993 1851.9 80.901 1850.76 84.7026C1849.62 88.3142 1848 91.5456 1845.91 94.3969C1843.82 97.058 1841.16 98.3886 1837.93 98.3886H1836.22C1835.84 98.0085 1835.17 96.6779 1834.22 94.3969C1833.27 92.1159 1832.61 90.7853 1832.23 90.4051C1829.56 85.6531 1826.62 81.0911 1823.39 76.7192C1820.35 72.3472 1816.83 68.5456 1812.84 65.3142C1809.04 61.8927 1804.85 59.2315 1800.29 57.3307C1795.73 55.4299 1790.6 54.4794 1784.89 54.4794C1783.18 54.4794 1781.19 54.5745 1778.91 54.7646C1776.63 54.9546 1774.63 55.6199 1772.92 56.7604C1766.46 61.7026 1761.51 66.9299 1758.09 72.4423C1754.86 77.9547 1753.25 84.8927 1753.25 93.2564C1753.25 97.8184 1754.29 102 1756.38 105.802C1758.47 109.413 1761.13 112.645 1764.37 115.496C1767.6 118.347 1771.21 120.818 1775.2 122.909C1779.19 125 1783.09 126.616 1786.89 127.756C1787.08 127.947 1787.75 128.137 1788.89 128.327C1790.03 128.517 1791.26 128.707 1792.59 128.897C1794.11 129.087 1795.44 129.277 1796.59 129.467C1797.73 129.657 1798.39 129.752 1798.58 129.752C1798.96 129.752 1799.63 130.132 1800.58 130.893C1801.53 131.463 1802.19 131.748 1802.57 131.748C1806.75 134.79 1811.03 137.831 1815.4 140.872C1819.97 143.723 1824.34 146.765 1828.52 149.996C1832.89 153.038 1837.07 156.364 1841.06 159.976C1845.06 163.587 1848.67 167.484 1851.9 171.666C1852.09 171.856 1852.47 172.521 1853.04 173.662C1853.61 174.802 1854.18 176.133 1854.75 177.653C1855.51 178.984 1856.18 180.409 1856.75 181.93C1857.32 183.261 1857.79 184.306 1858.17 185.066C1858.17 185.447 1858.17 186.207 1858.17 187.348C1858.36 188.488 1858.55 189.724 1858.74 191.054C1858.93 192.385 1859.12 193.715 1859.31 195.046C1859.69 196.186 1859.98 196.852 1860.17 197.042C1860.93 199.323 1861.88 201.414 1863.02 203.314C1864.16 205.025 1865.21 206.736 1866.16 208.447C1867.3 210.157 1868.25 211.868 1869.01 213.579C1869.77 215.29 1870.15 217.286 1870.15 219.567C1870.15 225.649 1868.82 231.257 1866.16 236.389C1863.49 241.521 1860.83 246.939 1858.17 252.641C1855.7 256.633 1852.47 260.529 1848.48 264.331C1844.49 268.133 1841.16 271.269 1838.5 273.74C1830.9 280.393 1822.15 285.05 1812.27 287.711C1802.38 290.563 1792.88 291.988 1783.75 291.988C1776.91 291.988 1769.97 291.608 1762.94 290.848C1755.91 290.087 1749.35 288.377 1743.27 285.715C1743.08 285.525 1742.41 285.145 1741.27 284.575C1740.13 283.815 1738.8 283.054 1737.28 282.294C1735.95 281.344 1734.62 280.488 1733.29 279.728C1732.15 278.968 1731.39 278.492 1731.01 278.302C1727.2 276.021 1723.78 274.025 1720.74 272.315C1717.89 270.414 1715.51 268.323 1713.61 266.042C1711.71 263.761 1710.29 261.005 1709.34 257.773C1708.39 254.542 1707.91 250.36 1707.91 245.228Z" fill="black"/>
<path d="M1946.12 240.381V208.732C1946.12 208.542 1946.21 207.876 1946.4 206.736C1946.59 205.595 1946.78 204.36 1946.97 203.029C1947.16 201.509 1947.35 199.988 1947.54 198.467C1947.73 196.757 1947.83 195.426 1947.83 194.476C1948.21 194.095 1948.68 192.575 1949.25 189.914C1949.82 187.252 1950.11 185.447 1950.11 184.496V147.715C1950.11 147.145 1950.3 145.814 1950.68 143.723C1951.25 141.442 1951.72 140.112 1952.1 139.732V92.401C1952.1 91.2605 1951.72 90.2151 1950.96 89.2646C1950.2 88.3142 1949.25 87.5539 1948.11 86.9836C1946.97 86.2233 1945.83 85.6531 1944.69 85.2729C1943.74 84.7026 1942.98 84.2274 1942.41 83.8473C1939.94 82.8969 1937.56 82.3266 1935.28 82.1365C1933.19 81.7564 1931.29 81.2811 1929.58 80.7109C1927.87 79.9506 1926.54 78.9051 1925.59 77.5745C1924.64 76.0539 1924.16 73.5828 1924.16 70.1613V66.7398C1924.16 65.9795 1924.26 65.1241 1924.45 64.1737C1924.64 63.9836 1925.21 63.4133 1926.16 62.4629C1927.11 61.5125 1928.15 60.5621 1929.29 59.6117C1930.62 58.4712 1931.76 57.4257 1932.71 56.4753C1933.67 55.5249 1934.24 54.8596 1934.43 54.4794C1935 54.0993 1935.66 53.434 1936.42 52.4836C1937.18 51.3431 1937.94 50.2976 1938.7 49.3472C1939.46 48.2067 1940.13 47.1612 1940.7 46.2108C1941.46 45.2604 1942.03 44.6902 1942.41 44.5001C1946.97 39.5579 1950.68 35.186 1953.53 31.3843C1956.57 27.3926 1960.09 24.0661 1964.08 21.405C1966.55 19.3141 1969.31 16.938 1972.35 14.2769C1975.58 11.4256 1978.72 10 1981.76 10C1986.7 10 1990.5 11.1405 1993.16 13.4215C1995.82 15.5124 1997.82 18.2686 1999.15 21.6901C2000.67 24.9215 2001.81 28.5331 2002.57 32.5248C2003.33 36.5166 2004.28 40.3183 2005.42 43.9298H2007.99C2009.13 43.9298 2010.17 44.0249 2011.12 44.215C2012.26 44.405 2013.31 44.5001 2014.26 44.5001C2015.02 44.5001 2015.78 44.405 2016.54 44.215C2017.49 44.0249 2018.35 43.8348 2019.11 43.6447C2020.63 43.0745 2022.05 42.7893 2023.38 42.7893C2024.72 42.5992 2026.14 42.5042 2027.66 42.5042C2029.75 42.5042 2031.94 42.5992 2034.22 42.7893C2036.5 42.9794 2038.78 43.0745 2041.06 43.0745C2043.53 43.0745 2046.29 43.6447 2049.33 44.7852C2052.56 45.7356 2055.6 47.0662 2058.45 48.7769C2061.31 50.4877 2063.68 52.4836 2065.58 54.7646C2067.48 57.0456 2068.43 59.4216 2068.43 61.8927C2068.43 63.4133 2067.67 65.1241 2066.15 67.0249C2064.82 68.9258 2063.11 70.7315 2061.02 72.4423C2058.93 74.153 2056.74 75.5787 2054.46 76.7192C2052.37 77.8597 2050.47 78.4299 2048.76 78.4299H2044.77C2044.58 78.4299 2044.01 78.4299 2043.06 78.4299C2042.11 78.2398 2041.06 78.1448 2039.92 78.1448C2038.78 78.1448 2037.74 78.1448 2036.79 78.1448C2035.84 78.1448 2035.26 78.1448 2035.07 78.1448H2007.99C2002.86 81.5663 1999.24 85.6531 1997.15 90.4051C1995.44 95.3473 1994.49 100.48 1994.3 105.802C1994.3 111.124 1994.11 116.542 1993.73 122.054C1992.78 125.856 1991.83 129.847 1990.88 134.029C1990.12 138.021 1989.74 142.203 1989.74 146.575C1989.74 149.616 1990.03 152.752 1990.6 155.984C1991.36 159.025 1991.74 162.162 1991.74 165.393C1991.74 167.484 1991.26 169.67 1990.31 171.951C1989.55 174.232 1989.17 176.608 1989.17 179.079C1989.17 180.6 1989.26 181.74 1989.45 182.5C1989.45 183.261 1989.55 183.926 1989.74 184.496C1989.74 185.067 1989.93 186.112 1990.31 187.633C1990.69 188.963 1991.17 190.389 1991.74 191.91C1992.31 193.43 1992.78 194.951 1993.16 196.471C1993.54 197.802 1993.73 198.657 1993.73 199.038C1993.73 199.418 1993.92 200.748 1994.3 203.029C1994.68 205.12 1995.06 207.401 1995.44 209.872C1996.01 212.343 1996.39 214.624 1996.58 216.715C1996.96 218.806 1997.15 220.137 1997.15 220.707C1997.53 222.038 1997.82 223.558 1998.01 225.269C1998.39 226.98 1998.86 228.691 1999.43 230.401C2000 232.112 2000.76 233.728 2001.72 235.248C2002.67 236.579 2003.9 237.624 2005.42 238.385C2006.18 238.575 2007.23 238.955 2008.56 239.525C2010.08 240.096 2011.5 240.761 2012.83 241.521C2014.36 242.091 2015.69 242.662 2016.83 243.232C2018.16 243.802 2018.92 244.182 2019.11 244.372H2043.06C2045.53 243.042 2047.81 241.711 2049.9 240.381C2052.18 238.86 2054.46 237.529 2056.74 236.389C2059.03 235.058 2061.4 234.013 2063.87 233.253C2066.34 232.302 2069.1 231.827 2072.14 231.827C2074.99 231.827 2076.7 232.967 2077.27 235.248C2078.03 237.339 2078.41 239.715 2078.41 242.377V246.368C2078.41 254.162 2075.94 260.72 2071 266.042C2066.06 271.364 2059.98 275.641 2052.75 278.872C2045.72 282.104 2038.21 284.385 2030.23 285.715C2022.43 287.046 2015.5 287.711 2009.41 287.711C2007.13 287.711 2004.57 287.616 2001.72 287.426C1999.05 287.426 1996.2 287.141 1993.16 286.571C1990.31 286.191 1987.46 285.62 1984.61 284.86C1981.76 283.91 1979.29 282.674 1977.19 281.154L1969.78 273.74C1965.41 268.608 1961.04 263.381 1956.67 258.058C1952.29 252.736 1948.78 246.844 1946.12 240.381Z" fill="black"/>
<path d="M2182.32 213.294C2182.32 217.286 2183.66 220.422 2186.32 222.703C2189.17 224.794 2192.49 226.41 2196.3 227.55C2200.1 228.691 2204.09 229.546 2208.27 230.116C2212.45 230.496 2215.87 231.067 2218.54 231.827H2218.82C2222.62 231.827 2226.61 230.686 2230.8 228.405C2234.98 225.934 2237.92 223.368 2239.63 220.707C2240.2 219.757 2240.97 218.426 2241.92 216.715C2242.87 215.005 2243.72 213.294 2244.48 211.583C2245.43 209.872 2246.19 208.352 2246.76 207.021C2247.52 205.691 2247.9 204.835 2247.9 204.455V166.819L2246.19 162.827C2245.81 162.827 2244.96 162.827 2243.63 162.827C2242.49 162.637 2241.63 162.542 2241.06 162.542C2235.93 162.542 2231.18 163.872 2226.8 166.533C2222.43 169.004 2218.16 171.761 2213.97 174.802C2213.02 175.372 2211.69 176.323 2209.98 177.653C2208.27 178.794 2206.56 180.029 2204.85 181.36C2203.33 182.69 2201.9 183.926 2200.57 185.066C2199.43 186.017 2198.77 186.492 2198.58 186.492C2198.39 186.682 2197.91 187.252 2197.15 188.203C2196.39 189.153 2195.54 190.294 2194.58 191.624C2193.82 192.765 2193.06 194 2192.3 195.331C2191.54 196.662 2190.88 197.707 2190.31 198.467C2189.93 198.848 2189.55 199.513 2189.17 200.463C2188.98 201.414 2188.88 202.079 2188.88 202.459C2188.5 202.649 2187.93 203.124 2187.17 203.885C2186.6 204.645 2185.94 205.5 2185.18 206.451C2184.61 207.211 2184.04 208.067 2183.46 209.017C2182.89 209.777 2182.51 210.348 2182.32 210.728V213.294ZM2243.06 255.492C2241.35 255.492 2239.73 255.967 2238.21 256.918C2236.69 257.868 2235.17 259.009 2233.65 260.339C2232.32 261.67 2230.99 263.096 2229.66 264.616C2228.51 265.947 2227.37 267.087 2226.23 268.038C2226.04 268.038 2225.47 268.228 2224.52 268.608C2223.57 268.988 2222.72 269.463 2221.96 270.034C2218.54 271.364 2215.21 272.98 2211.98 274.881C2208.75 276.592 2205.51 278.302 2202.28 280.013C2199.05 281.534 2195.63 282.864 2192.02 284.005C2188.6 285.145 2185.08 285.715 2181.47 285.715H2172.63C2172.25 285.335 2171.2 284.955 2169.49 284.575C2167.97 284.005 2167.02 283.53 2166.64 283.149C2166.45 283.149 2165.88 283.149 2164.93 283.149C2163.98 282.959 2162.94 282.769 2161.8 282.579C2160.65 282.389 2159.51 282.199 2158.37 282.009C2157.42 281.819 2156.85 281.534 2156.66 281.154C2155.71 280.963 2154.19 280.678 2152.1 280.298C2150.01 279.918 2148.77 279.728 2148.39 279.728C2146.11 278.207 2143.64 275.641 2140.98 272.03C2138.32 268.418 2135.85 264.426 2133.57 260.054C2131.29 255.682 2129.29 251.31 2127.58 246.939C2126.06 242.567 2125.3 238.86 2125.3 235.819C2125.3 231.447 2126.06 227.17 2127.58 222.988C2129.1 218.806 2130.24 214.719 2131 210.728C2136.7 202.174 2142.31 194.761 2147.82 188.488C2153.34 182.215 2160.46 176.513 2169.21 171.381C2169.21 171.19 2169.68 170.905 2170.63 170.525C2171.58 169.955 2172.54 169.48 2173.49 169.1C2174.63 168.529 2175.67 168.054 2176.62 167.674C2177.76 167.294 2178.52 167.009 2178.9 166.819C2180.8 165.868 2182.8 164.633 2184.89 163.112C2186.98 161.401 2189.07 159.785 2191.16 158.265C2193.25 156.554 2195.25 155.128 2197.15 153.988C2199.05 152.657 2200.76 151.802 2202.28 151.422C2202.66 151.232 2203.61 151.042 2205.13 150.852C2206.85 150.661 2208.56 150.471 2210.27 150.281C2212.17 150.091 2213.88 149.901 2215.4 149.711C2216.92 149.521 2217.97 149.331 2218.54 149.141C2218.73 149.141 2219.58 148.476 2221.1 147.145C2222.62 145.814 2223.57 145.149 2223.95 145.149C2224.52 144.959 2225.95 144.294 2228.23 143.153C2230.7 142.013 2233.27 140.777 2235.93 139.447C2238.59 138.116 2241.06 136.88 2243.34 135.74C2245.81 134.409 2247.33 133.554 2247.9 133.174C2249.8 132.033 2251.32 130.418 2252.47 128.327C2253.61 126.236 2254.37 124.05 2254.75 121.769C2255.32 119.488 2255.6 117.207 2255.6 114.926C2255.79 112.645 2255.89 110.554 2255.89 108.653C2255.89 99.5291 2254.65 91.2605 2252.18 83.8473C2249.9 76.434 2245.72 69.1158 2239.63 61.8927C2239.25 60.9423 2238.21 59.8018 2236.5 58.4712C2234.98 57.1406 2234.03 56.4753 2233.65 56.4753H2216.54C2214.26 58.5662 2211.6 60.4671 2208.56 62.1778C2205.51 63.6985 2203.42 65.6943 2202.28 68.1654C2200 72.3472 2197.63 76.8142 2195.16 81.5663C2192.87 86.3184 2191.26 91.0704 2190.31 95.8225C2189.74 96.3928 2188.6 97.3432 2186.89 98.6738C2185.18 99.8143 2183.37 100.955 2181.47 102.095C2179.76 103.236 2178.05 104.376 2176.34 105.517C2174.63 106.467 2173.39 107.132 2172.63 107.513C2172.44 107.513 2171.87 107.608 2170.92 107.798C2169.97 107.798 2168.83 107.798 2167.5 107.798C2166.36 107.798 2165.12 107.893 2163.79 108.083C2162.46 108.083 2161.42 108.083 2160.65 108.083C2160.27 108.083 2159.51 108.083 2158.37 108.083C2157.23 107.893 2156 107.798 2154.67 107.798C2153.34 107.798 2152.1 107.798 2150.96 107.798C2149.82 107.608 2148.96 107.513 2148.39 107.513C2146.49 106.372 2144.5 105.042 2142.41 103.521C2140.32 101.81 2138.42 100.099 2136.7 98.3886C2134.99 96.4878 2133.57 94.4919 2132.43 92.401C2131.29 90.12 2130.72 87.6489 2130.72 84.9878C2130.72 82.1365 2131 79.6654 2131.57 77.5745C2132.33 75.4836 2133.19 73.4877 2134.14 71.5869C2135.28 69.6861 2136.61 67.8803 2138.13 66.1695C2139.65 64.2687 2141.27 62.2728 2142.98 60.1819C2144.5 58.091 2145.64 56.3803 2146.4 55.0497C2147.35 53.529 2148.87 52.0084 2150.96 50.4877C2152.1 49.5373 2153.15 48.967 2154.1 48.7769C2155.05 48.3968 2156 48.2067 2156.95 48.2067C2158.09 48.0166 2159.23 47.8265 2160.37 47.6364C2161.51 47.4464 2162.94 47.0662 2164.65 46.4959C2165.41 46.3059 2167.12 45.5455 2169.78 44.215C2172.44 42.6943 2175.29 41.1736 2178.33 39.653C2181.56 37.9422 2184.51 36.4215 2187.17 35.091C2189.83 33.5703 2191.54 32.6199 2192.3 32.2397C2192.68 32.0496 2193.44 31.9546 2194.58 31.9546C2195.73 31.7645 2196.87 31.5744 2198.01 31.3843C2199.34 31.1943 2200.57 31.0992 2201.71 31.0992C2202.85 30.9091 2203.61 30.8141 2203.99 30.8141C2209.32 29.4835 2214.35 27.7728 2219.11 25.6819C2224.05 23.4009 2229.27 22.2604 2234.79 22.2604H2238.21C2246.19 23.5909 2254.65 25.3967 2263.58 27.6777C2272.52 29.7686 2280.5 33.3802 2287.54 38.5125C2288.11 39.0827 2288.96 39.9381 2290.1 41.0786C2291.43 42.029 2292.67 43.1695 2293.81 44.5001C2295.14 45.8307 2296.28 47.0662 2297.23 48.2067C2298.18 49.1571 2298.75 49.9174 2298.94 50.4877C2299.13 50.6778 2299.32 51.3431 2299.51 52.4836C2299.89 53.6241 2300.18 54.8596 2300.37 56.1902C2300.56 57.3307 2300.65 58.5662 2300.65 59.8968C2300.84 61.0373 2300.94 61.7026 2300.94 61.8927C2300.94 62.4629 2301.22 63.6034 2301.79 65.3142C2302.55 67.0249 2303.31 68.9257 2304.07 71.0167C2304.83 73.1076 2305.5 75.0084 2306.07 76.7192C2306.83 78.4299 2307.21 79.5704 2307.21 80.1406C2307.21 80.1406 2307.21 81.7564 2307.21 84.9878C2307.4 88.2192 2307.49 92.0208 2307.49 96.3928C2307.68 100.765 2307.87 105.232 2308.06 109.794C2308.25 114.356 2308.44 118.062 2308.63 120.913V123.48C2308.25 124.05 2307.97 124.62 2307.78 125.19C2307.4 126.331 2307.21 127.091 2307.21 127.471C2306.83 127.852 2306.35 128.897 2305.78 130.608C2305.4 132.128 2305.21 132.984 2305.21 133.174C2305.02 133.744 2304.83 135.55 2304.64 138.591C2304.45 141.442 2304.26 144.579 2304.07 148C2303.88 151.232 2303.69 154.368 2303.5 157.409C2303.31 160.261 2303.22 162.066 2303.22 162.827C2303.22 163.397 2302.84 164.442 2302.08 165.963C2301.51 167.484 2301.13 168.434 2300.94 168.814C2300.37 172.236 2299.99 175.277 2299.8 177.938C2299.61 180.409 2299.42 182.881 2299.23 185.352C2299.04 187.823 2298.94 190.294 2298.94 192.765C2298.94 195.236 2298.94 198.087 2298.94 201.319V216.145C2299.32 217.095 2299.99 218.806 2300.94 221.277C2302.08 223.748 2302.84 225.364 2303.22 226.124C2304.55 229.356 2306.64 231.732 2309.49 233.253C2312.53 234.583 2315.86 235.629 2319.47 236.389C2323.27 236.959 2327.07 237.434 2330.87 237.815C2334.68 238.195 2338.19 238.86 2341.42 239.81C2344.66 240.571 2347.32 241.996 2349.41 244.087C2351.5 246.178 2352.54 249.22 2352.54 253.211C2352.54 256.253 2351.02 259.864 2347.98 264.046C2345.13 268.228 2341.61 272.22 2337.43 276.021C2333.25 279.823 2328.88 283.054 2324.32 285.715C2319.75 288.377 2315.86 289.707 2312.63 289.707H2307.21C2306.83 289.707 2305.69 289.327 2303.79 288.567C2302.08 287.996 2301.13 287.711 2300.94 287.711C2300.37 287.521 2299.13 287.331 2297.23 287.141C2295.33 286.951 2293.24 286.761 2290.96 286.571C2288.68 286.571 2286.59 286.476 2284.68 286.286C2282.78 286.096 2281.55 285.906 2280.98 285.715C2277.94 284.575 2274.7 282.389 2271.28 279.158C2267.86 275.736 2264.44 272.315 2261.02 268.893C2257.79 265.472 2254.56 262.43 2251.32 259.769C2248.28 256.918 2245.53 255.492 2243.06 255.492Z" fill="black"/>
<path d="M2416.25 240.381V208.732C2416.25 208.542 2416.35 207.876 2416.54 206.736C2416.73 205.595 2416.92 204.36 2417.11 203.029C2417.3 201.509 2417.49 199.988 2417.68 198.467C2417.87 196.757 2417.96 195.426 2417.96 194.476C2418.34 194.095 2418.82 192.575 2419.39 189.914C2419.96 187.252 2420.24 185.447 2420.24 184.496V147.715C2420.24 147.145 2420.43 145.814 2420.81 143.723C2421.38 141.442 2421.86 140.112 2422.24 139.732V92.401C2422.24 91.2605 2421.86 90.2151 2421.1 89.2646C2420.34 88.3142 2419.39 87.5539 2418.25 86.9836C2417.11 86.2233 2415.97 85.6531 2414.83 85.2729C2413.88 84.7026 2413.12 84.2274 2412.55 83.8473C2410.07 82.8969 2407.7 82.3266 2405.42 82.1365C2403.33 81.7564 2401.43 81.2811 2399.71 80.7109C2398 79.9506 2396.67 78.9051 2395.72 77.5745C2394.77 76.0539 2394.3 73.5828 2394.3 70.1613V66.7398C2394.3 65.9795 2394.39 65.1241 2394.58 64.1737C2394.77 63.9836 2395.34 63.4133 2396.29 62.4629C2397.24 61.5125 2398.29 60.5621 2399.43 59.6117C2400.76 58.4712 2401.9 57.4257 2402.85 56.4753C2403.8 55.5249 2404.37 54.8596 2404.56 54.4794C2405.13 54.0993 2405.8 53.434 2406.56 52.4836C2407.32 51.3431 2408.08 50.2976 2408.84 49.3472C2409.6 48.2067 2410.26 47.1612 2410.83 46.2108C2411.59 45.2604 2412.17 44.6902 2412.55 44.5001C2417.11 39.5579 2420.81 35.186 2423.67 31.3843C2426.71 27.3926 2430.22 24.0661 2434.21 21.405C2436.69 19.3141 2439.44 16.938 2442.48 14.2769C2445.71 11.4256 2448.85 10 2451.89 10C2456.83 10 2460.64 11.1405 2463.3 13.4215C2465.96 15.5124 2467.95 18.2686 2469.29 21.6901C2470.81 24.9215 2471.95 28.5331 2472.71 32.5248C2473.47 36.5166 2474.42 40.3183 2475.56 43.9298H2478.12C2479.26 43.9298 2480.31 44.0249 2481.26 44.215C2482.4 44.405 2483.45 44.5001 2484.4 44.5001C2485.16 44.5001 2485.92 44.405 2486.68 44.215C2487.63 44.0249 2488.48 43.8348 2489.24 43.6447C2490.76 43.0745 2492.19 42.7893 2493.52 42.7893C2494.85 42.5992 2496.28 42.5042 2497.8 42.5042C2499.89 42.5042 2502.07 42.5992 2504.36 42.7893C2506.64 42.9794 2508.92 43.0745 2511.2 43.0745C2513.67 43.0745 2516.43 43.6447 2519.47 44.7852C2522.7 45.7356 2525.74 47.0662 2528.59 48.7769C2531.44 50.4877 2533.82 52.4836 2535.72 54.7646C2537.62 57.0456 2538.57 59.4216 2538.57 61.8927C2538.57 63.4133 2537.81 65.1241 2536.29 67.0249C2534.96 68.9258 2533.25 70.7315 2531.16 72.4423C2529.07 74.153 2526.88 75.5787 2524.6 76.7192C2522.51 77.8597 2520.61 78.4299 2518.9 78.4299H2514.91C2514.72 78.4299 2514.14 78.4299 2513.19 78.4299C2512.24 78.2398 2511.2 78.1448 2510.06 78.1448C2508.92 78.1448 2507.87 78.1448 2506.92 78.1448C2505.97 78.1448 2505.4 78.1448 2505.21 78.1448H2478.12C2472.99 81.5663 2469.38 85.6531 2467.29 90.4051C2465.58 95.3473 2464.63 100.48 2464.44 105.802C2464.44 111.124 2464.25 116.542 2463.87 122.054C2462.92 125.856 2461.97 129.847 2461.02 134.029C2460.26 138.021 2459.88 142.203 2459.88 146.575C2459.88 149.616 2460.16 152.752 2460.73 155.984C2461.49 159.025 2461.87 162.162 2461.87 165.393C2461.87 167.484 2461.4 169.67 2460.45 171.951C2459.69 174.232 2459.31 176.608 2459.31 179.079C2459.31 180.6 2459.4 181.74 2459.59 182.5C2459.59 183.261 2459.69 183.926 2459.88 184.496C2459.88 185.067 2460.07 186.112 2460.45 187.633C2460.83 188.963 2461.3 190.389 2461.87 191.91C2462.44 193.43 2462.92 194.951 2463.3 196.471C2463.68 197.802 2463.87 198.657 2463.87 199.038C2463.87 199.418 2464.06 200.748 2464.44 203.029C2464.82 205.12 2465.2 207.401 2465.58 209.872C2466.15 212.343 2466.53 214.624 2466.72 216.715C2467.1 218.806 2467.29 220.137 2467.29 220.707C2467.67 222.038 2467.95 223.558 2468.14 225.269C2468.52 226.98 2469 228.691 2469.57 230.401C2470.14 232.112 2470.9 233.728 2471.85 235.248C2472.8 236.579 2474.04 237.624 2475.56 238.385C2476.32 238.575 2477.36 238.955 2478.69 239.525C2480.22 240.096 2481.64 240.761 2482.97 241.521C2484.49 242.091 2485.82 242.662 2486.96 243.232C2488.29 243.802 2489.05 244.182 2489.24 244.372H2513.19C2515.67 243.042 2517.95 241.711 2520.04 240.381C2522.32 238.86 2524.6 237.529 2526.88 236.389C2529.16 235.058 2531.54 234.013 2534.01 233.253C2536.48 232.302 2539.24 231.827 2542.28 231.827C2545.13 231.827 2546.84 232.967 2547.41 235.248C2548.17 237.339 2548.55 239.715 2548.55 242.377V246.368C2548.55 254.162 2546.08 260.72 2541.14 266.042C2536.19 271.364 2530.11 275.641 2522.89 278.872C2515.86 282.104 2508.35 284.385 2500.36 285.715C2492.57 287.046 2485.63 287.711 2479.55 287.711C2477.27 287.711 2474.7 287.616 2471.85 287.426C2469.19 287.426 2466.34 287.141 2463.3 286.571C2460.45 286.191 2457.6 285.62 2454.74 284.86C2451.89 283.91 2449.42 282.674 2447.33 281.154L2439.92 273.74C2435.55 268.608 2431.17 263.381 2426.8 258.058C2422.43 252.736 2418.91 246.844 2416.25 240.381Z" fill="black"/>
<path d="M2662.15 81.5663C2662.15 86.1283 2663.2 89.4547 2665.29 91.5456C2667.38 93.4465 2669.95 94.682 2672.99 95.2523C2676.22 95.8225 2679.64 96.1076 2683.25 96.1076C2687.06 95.9175 2690.48 96.0126 2693.52 96.3928C2693.9 96.3928 2694.66 96.7729 2695.8 97.5332C2696.94 98.1035 2697.7 98.3886 2698.08 98.3886C2701.88 99.5291 2704.73 100.194 2706.63 100.384C2708.54 100.575 2711.39 100.67 2715.19 100.67C2718.8 100.67 2722.51 100.575 2726.31 100.384C2730.11 100.004 2733.53 99.244 2736.57 98.1035C2739.8 96.963 2742.37 95.1572 2744.27 92.6861C2746.36 90.2151 2747.41 86.7936 2747.41 82.4216C2747.41 76.9092 2746.46 71.2067 2744.56 65.3142C2742.85 59.2315 2739.8 54.4794 2735.43 51.0579C2734.48 51.0579 2732.96 50.9629 2730.87 50.7728C2728.97 50.5827 2726.88 50.3927 2724.6 50.2026C2722.32 50.0125 2720.04 49.8224 2717.75 49.6323C2715.66 49.2522 2714.14 49.0621 2713.19 49.0621C2712.81 48.872 2712.34 48.5869 2711.77 48.2067C2710.63 47.4464 2709.96 47.0662 2709.77 47.0662H2704.92C2700.93 47.0662 2696.37 48.1117 2691.24 50.2026C2686.3 52.1034 2681.64 54.6695 2677.27 57.9009C2673.08 61.1323 2669.47 64.839 2666.43 69.0208C2663.58 73.0125 2662.15 77.1944 2662.15 81.5663ZM2596.86 151.992C2596.86 140.777 2598.1 129.467 2600.57 118.062C2603.23 106.467 2607.89 95.9175 2614.54 86.4134C2615.87 84.5126 2617.77 82.0415 2620.24 79.0002C2622.71 75.7687 2625.09 72.6324 2627.37 69.591C2629.84 66.3596 2631.93 63.5084 2633.64 61.0373C2635.35 58.5662 2636.3 57.1406 2636.49 56.7604C2638.96 53.7191 2642.2 50.8679 2646.19 48.2067C2650.18 45.5455 2654.36 42.9794 2658.73 40.5083C2663.11 38.0373 2667.48 35.6612 2671.85 33.3802C2676.22 30.9091 2680.02 28.5331 2683.25 26.2521C2687.06 25.4918 2690.86 24.9215 2694.66 24.5414C2698.46 23.9711 2702.26 23.686 2706.06 23.686C2712.34 23.686 2718.04 24.3513 2723.17 25.6819C2727.16 28.343 2731.44 30.0538 2736 30.8141C2740.56 31.3843 2745.03 32.3348 2749.4 33.6653C2753.01 34.6158 2756.53 36.1364 2759.95 38.2273C2763.56 40.1282 2766.8 42.5042 2769.65 45.3554C2772.69 48.0166 2775.44 50.9629 2777.92 54.1943C2780.58 57.2356 2782.86 60.277 2784.76 63.3183C2784.95 63.5084 2785.23 63.9836 2785.61 64.7439C2785.99 65.5043 2786.37 66.3596 2786.75 67.31C2787.32 68.0704 2787.8 68.8307 2788.18 69.591C2788.56 70.3514 2788.75 70.8266 2788.75 71.0167C2789.7 72.3472 2790.94 73.8679 2792.46 75.5787C2794.17 77.0993 2795.78 78.8101 2797.3 80.7109C2798.82 82.4216 2800.06 84.3225 2801.01 86.4134C2802.15 88.3142 2802.72 90.3101 2802.72 92.401C2802.72 93.9217 2802.63 95.8225 2802.44 98.1035C2802.25 100.194 2801.87 102.38 2801.3 104.661C2800.73 106.752 2799.87 108.748 2798.73 110.649C2797.78 112.55 2796.45 113.88 2794.74 114.641C2794.36 114.641 2793.6 114.831 2792.46 115.211C2791.51 115.591 2790.37 116.066 2789.04 116.637C2787.7 117.017 2786.37 117.397 2785.04 117.777C2783.9 118.157 2783.14 118.442 2782.76 118.632C2782.57 118.632 2781.91 118.918 2780.77 119.488C2779.82 119.868 2779.25 120.153 2779.06 120.343C2776.58 120.343 2772.78 120.438 2767.65 120.628C2762.71 120.628 2757.01 120.723 2750.54 120.913C2744.27 120.913 2737.62 121.009 2730.58 121.199C2723.55 121.389 2716.8 121.579 2710.34 121.769C2704.07 121.959 2698.37 122.149 2693.23 122.339C2688.1 122.339 2684.3 122.339 2681.83 122.339C2681.07 122.339 2679.64 122.434 2677.55 122.624C2675.46 122.624 2673.27 122.719 2670.99 122.909C2668.71 123.099 2666.53 123.385 2664.44 123.765C2662.54 123.955 2661.2 124.145 2660.44 124.335C2655.5 128.327 2652.18 133.174 2650.46 138.876C2648.94 144.389 2648.18 150.281 2648.18 156.554C2648.18 163.397 2648.85 169.385 2650.18 174.517C2651.51 179.459 2653.51 185.162 2656.17 191.624C2656.55 192.005 2656.93 192.765 2657.31 193.905C2657.88 194.856 2658.16 195.521 2658.16 195.901C2658.35 196.091 2658.83 196.567 2659.59 197.327C2660.54 197.897 2661.39 198.657 2662.15 199.608C2663.11 200.368 2663.96 201.224 2664.72 202.174C2665.48 202.934 2665.86 203.505 2665.86 203.885C2666.05 204.075 2666.62 204.74 2667.57 205.881C2668.71 206.831 2669.85 207.972 2670.99 209.302C2672.13 210.633 2673.18 211.963 2674.13 213.294C2675.08 214.434 2675.65 215.195 2675.84 215.575C2676.22 215.575 2676.6 215.86 2676.98 216.43C2677.55 217 2678.03 217.286 2678.41 217.286C2680.12 218.806 2682.21 220.612 2684.68 222.703C2687.34 224.794 2689.91 226.79 2692.38 228.691C2695.23 230.972 2698.27 233.253 2701.5 235.534C2709.68 237.815 2717.56 238.955 2725.17 238.955C2732.77 238.955 2740.85 237.815 2749.4 235.534C2754.35 232.492 2759.38 230.211 2764.51 228.691C2769.84 226.98 2775.16 225.269 2780.48 223.558C2780.86 223.178 2781.62 222.798 2782.76 222.418C2783.9 221.848 2784.57 221.372 2784.76 220.992H2786.75C2788.08 221.562 2789.7 222.323 2791.6 223.273C2793.69 224.224 2794.74 224.984 2794.74 225.554C2795.12 225.934 2795.5 227.36 2795.88 229.831C2796.45 232.302 2796.73 234.203 2796.73 235.534C2796.73 238.765 2795.78 242.567 2793.88 246.939C2792.17 251.31 2790.46 254.542 2788.75 256.633C2788.75 257.013 2787.61 257.963 2785.33 259.484C2783.24 261.005 2781.62 262.145 2780.48 262.906C2774.4 266.897 2768.41 271.174 2762.52 275.736C2756.63 280.108 2750.26 283.625 2743.42 286.286C2743.04 286.476 2742.08 286.666 2740.56 286.856C2739.23 287.236 2737.81 287.521 2736.29 287.711C2734.77 287.901 2733.34 288.092 2732.01 288.282C2730.68 288.472 2729.92 288.567 2729.73 288.567C2726.12 289.517 2722.98 290.373 2720.32 291.133C2717.85 292.083 2714.9 292.558 2711.48 292.558C2708.25 292.558 2705.3 292.083 2702.64 291.133C2699.98 290.373 2696.94 289.517 2693.52 288.567C2691.81 288.187 2689.34 287.521 2686.11 286.571C2683.06 285.811 2679.83 284.86 2676.41 283.72C2672.99 282.579 2669.76 281.344 2666.72 280.013C2663.87 278.682 2661.77 277.447 2660.44 276.306C2659.87 276.116 2658.83 275.261 2657.31 273.74C2655.79 272.22 2654.08 270.604 2652.18 268.893C2650.46 267.182 2648.85 265.567 2647.33 264.046C2645.81 262.525 2644.76 261.575 2644.19 261.195C2644 260.815 2643.05 260.054 2641.34 258.914C2639.63 257.773 2638.68 257.013 2638.49 256.633C2637.54 256.253 2636.4 255.397 2635.07 254.067C2633.74 252.546 2632.88 251.596 2632.5 251.215C2631.93 250.455 2630.7 248.744 2628.8 246.083C2627.08 243.232 2625.18 240.191 2623.09 236.959C2621 233.728 2618.91 230.591 2616.82 227.55C2614.92 224.509 2613.59 222.323 2612.83 220.992C2610.17 217.191 2608.36 213.389 2607.41 209.587C2606.65 205.786 2605.8 201.699 2604.84 197.327C2604.84 197.137 2604.46 196.281 2603.7 194.761C2603.13 193.05 2602.85 192.005 2602.85 191.624C2600.38 185.922 2598.76 179.554 2598 172.521C2597.24 165.298 2596.86 158.455 2596.86 151.992Z" fill="black"/>
<path d="M2854.45 245.228V238.385C2854.45 238.005 2855.02 236.769 2856.17 234.678C2857.31 232.587 2857.88 231.352 2857.88 230.972C2858.83 228.691 2859.68 226.219 2860.44 223.558C2861.2 220.707 2862.06 218.046 2863.01 215.575C2864.15 213.104 2865.57 211.013 2867.28 209.302C2869 207.591 2871.47 206.736 2874.7 206.736H2877.55C2878.12 206.736 2878.88 207.591 2879.83 209.302C2880.78 211.013 2881.54 212.343 2882.11 213.294C2884.58 217.856 2887.24 223.083 2890.09 228.976C2893.14 234.678 2896.56 240.001 2900.36 244.943C2904.16 249.885 2908.63 254.067 2913.76 257.488C2918.89 260.91 2924.79 262.62 2931.44 262.62C2933.91 262.62 2937.05 261.765 2940.85 260.054C2944.65 258.153 2948.36 255.967 2951.97 253.496C2955.77 251.025 2959.1 248.459 2961.95 245.798C2964.99 242.947 2966.79 240.476 2967.36 238.385C2968.12 235.914 2968.79 233.633 2969.36 231.542C2969.93 229.451 2970.21 227.265 2970.21 224.984C2970.21 221.182 2969.26 217.286 2967.36 213.294C2967.36 211.013 2965.37 207.876 2961.38 203.885C2957.57 199.893 2953.11 195.996 2947.98 192.195C2942.84 188.203 2937.9 184.591 2933.15 181.36C2928.4 178.128 2925.17 176.038 2923.45 175.087C2921.36 174.327 2919.18 173.947 2916.9 173.947C2914.81 173.757 2913 172.996 2911.48 171.666C2911.48 171.285 2911 170.715 2910.05 169.955C2909.29 169.195 2908.44 168.434 2907.49 167.674C2906.73 166.723 2905.87 165.868 2904.92 165.108C2904.16 164.347 2903.78 163.967 2903.78 163.967C2903.4 163.207 2902.17 162.161 2900.07 160.831C2897.98 159.31 2896.56 158.17 2895.8 157.409L2891.81 155.414L2876.12 139.732C2874.79 136.5 2873.65 133.269 2872.7 130.037C2871.94 126.806 2871.09 123.48 2870.14 120.058C2869.95 119.108 2869.57 117.777 2869 116.066C2868.62 114.356 2868.24 112.74 2867.86 111.219C2867.47 109.508 2867.09 108.083 2866.71 106.942C2866.33 105.612 2866.14 104.851 2866.14 104.661C2865.76 99.5291 2866.14 94.2068 2867.28 88.6944C2868.43 82.9919 2870.14 77.5745 2872.42 72.4423C2874.89 67.31 2877.74 62.558 2880.97 58.1861C2884.2 53.6241 2887.81 49.9174 2891.81 47.0662C2892.19 46.686 2893.23 46.3059 2894.94 45.9257C2896.65 45.3555 2897.79 44.8802 2898.36 44.5001C2901.21 43.3596 2904.26 41.6488 2907.49 39.3678C2910.91 36.8968 2914.43 34.5207 2918.04 32.2397C2921.65 29.7686 2925.26 27.6777 2928.87 25.967C2932.48 24.2562 2935.9 23.4009 2939.14 23.4009C2942.37 23.4009 2946.07 24.1612 2950.26 25.6819C2954.44 27.0124 2957.95 28.1529 2960.81 29.1033C2965.94 30.8141 2970.88 32.4298 2975.63 33.9505C2980.38 35.4711 2984.57 37.467 2988.18 39.9381C2991.98 42.4092 2994.93 45.5455 2997.02 49.3472C2999.3 53.1489 3000.44 58.091 3000.44 64.1737C3000.44 66.2646 3000.15 69.3059 2999.58 73.2977C2999.2 77.0993 2998.44 80.901 2997.3 84.7026C2996.16 88.3142 2994.55 91.5456 2992.45 94.3969C2990.36 97.058 2987.7 98.3886 2984.47 98.3886H2982.76C2982.38 98.0085 2981.71 96.6779 2980.76 94.3969C2979.81 92.1159 2979.15 90.7853 2978.77 90.4051C2976.11 85.6531 2973.16 81.0911 2969.93 76.7192C2966.89 72.3472 2963.37 68.5456 2959.38 65.3142C2955.58 61.8927 2951.4 59.2315 2946.83 57.3307C2942.27 55.4299 2937.14 54.4794 2931.44 54.4794C2929.73 54.4794 2927.73 54.5745 2925.45 54.7646C2923.17 54.9546 2921.17 55.6199 2919.46 56.7604C2913 61.7026 2908.06 66.9299 2904.64 72.4423C2901.4 77.9547 2899.79 84.8927 2899.79 93.2564C2899.79 97.8184 2900.83 102 2902.93 105.802C2905.02 109.413 2907.68 112.645 2910.91 115.496C2914.14 118.347 2917.75 120.818 2921.74 122.909C2925.74 125 2929.63 126.616 2933.43 127.756C2933.62 127.947 2934.29 128.137 2935.43 128.327C2936.57 128.517 2937.81 128.707 2939.14 128.897C2940.66 129.087 2941.99 129.277 2943.13 129.467C2944.27 129.657 2944.93 129.752 2945.12 129.752C2945.5 129.752 2946.17 130.132 2947.12 130.893C2948.07 131.463 2948.74 131.748 2949.12 131.748C2953.3 134.79 2957.57 137.831 2961.95 140.872C2966.51 143.723 2970.88 146.765 2975.06 149.996C2979.43 153.038 2983.62 156.364 2987.61 159.976C2991.6 163.587 2995.21 167.484 2998.44 171.666C2998.63 171.856 2999.01 172.521 2999.58 173.662C3000.15 174.802 3000.72 176.133 3001.29 177.653C3002.05 178.984 3002.72 180.409 3003.29 181.93C3003.86 183.261 3004.33 184.306 3004.71 185.066C3004.71 185.447 3004.71 186.207 3004.71 187.348C3004.91 188.488 3005.1 189.724 3005.29 191.054C3005.48 192.385 3005.67 193.715 3005.86 195.046C3006.24 196.186 3006.52 196.852 3006.71 197.042C3007.47 199.323 3008.42 201.414 3009.56 203.314C3010.7 205.025 3011.75 206.736 3012.7 208.447C3013.84 210.157 3014.79 211.868 3015.55 213.579C3016.31 215.29 3016.69 217.286 3016.69 219.567C3016.69 225.649 3015.36 231.257 3012.7 236.389C3010.04 241.521 3007.38 246.939 3004.71 252.641C3002.24 256.633 2999.01 260.529 2995.02 264.331C2991.03 268.133 2987.7 271.269 2985.04 273.74C2977.44 280.393 2968.69 285.05 2958.81 287.711C2948.93 290.563 2939.42 291.988 2930.3 291.988C2923.45 291.988 2916.52 291.608 2909.48 290.848C2902.45 290.087 2895.89 288.377 2889.81 285.715C2889.62 285.525 2888.95 285.145 2887.81 284.575C2886.67 283.815 2885.34 283.054 2883.82 282.294C2882.49 281.344 2881.16 280.488 2879.83 279.728C2878.69 278.968 2877.93 278.492 2877.55 278.302C2873.75 276.021 2870.33 274.025 2867.28 272.315C2864.43 270.414 2862.06 268.323 2860.16 266.042C2858.26 263.761 2856.83 261.005 2855.88 257.773C2854.93 254.542 2854.45 250.36 2854.45 245.228Z" fill="black"/>
</svg>
