<svg width="722" height="643" viewBox="0 0 722 643" fill="none" xmlns="http://www.w3.org/2000/svg">
<ellipse cx="362.5" cy="320" rx="327.5" ry="308" fill="#DCD9D9"/>
<path d="M238.077 292.637C240.016 292.637 243.356 292.853 248.096 293.284C253.051 293.499 258.222 293.715 263.608 293.93C268.995 294.145 274.058 294.469 278.798 294.9C283.753 295.115 287.093 295.223 288.816 295.223H293.987C295.495 295.007 297.65 294.576 300.451 293.93C303.252 293.284 304.868 292.853 305.298 292.637C312.624 289.836 318.657 286.497 323.396 282.619C328.136 278.525 332.338 274.108 336 269.368C339.663 264.413 343.003 259.242 346.019 253.856C349.251 248.254 353.021 242.544 357.33 236.727C357.761 235.65 358.515 234.357 359.593 232.849C360.67 231.125 361.208 229.94 361.208 229.294C361.208 229.079 361.316 228.109 361.532 226.385C361.963 224.662 362.286 222.83 362.501 220.891C362.717 218.952 362.932 217.121 363.148 215.397C363.363 213.674 363.471 212.596 363.471 212.166C363.686 211.735 364.009 210.227 364.44 207.641C365.087 205.056 365.625 203.547 366.056 203.117V197.622C366.056 193.098 365.841 188.358 365.41 183.403C364.979 178.447 363.578 173.815 361.208 169.506C358.192 164.12 355.607 158.841 353.452 153.67C351.513 148.284 349.035 143.113 346.019 138.157C345.588 137.942 344.942 137.403 344.08 136.542C343.434 135.464 342.68 134.495 341.818 133.633C341.171 132.556 340.525 131.586 339.879 130.724C339.232 129.647 338.801 129.001 338.586 128.785C338.586 128.57 338.155 127.816 337.293 126.523C336.431 125.015 335.462 123.614 334.385 122.322C333.523 120.814 332.553 119.413 331.476 118.12C330.614 116.828 330.076 116.074 329.86 115.858C329.86 115.212 329.537 114.673 328.891 114.242C328.46 113.811 328.029 113.596 327.598 113.596C325.874 112.519 324.043 111.872 322.104 111.657C320.165 111.441 318.226 111.334 316.287 111.334C314.347 111.334 312.408 111.226 310.469 111.01C308.746 110.795 307.022 109.933 305.298 108.425C302.498 106.917 299.912 105.516 297.542 104.224C295.388 102.715 293.125 101.53 290.755 100.669C288.601 99.5914 286.123 98.8373 283.322 98.4064C280.737 97.7601 277.613 97.4369 273.95 97.4369H269.426C268.348 97.4369 266.625 97.5446 264.255 97.7601C262.1 97.9755 259.73 98.2987 257.145 98.7296C254.559 98.9451 251.974 99.1605 249.388 99.376C247.018 99.5914 245.295 99.6991 244.217 99.6991C244.002 99.9146 243.356 100.561 242.278 101.638C241.201 102.715 240.016 103.9 238.723 105.193C237.646 106.27 236.461 107.348 235.168 108.425C234.091 109.502 233.337 110.256 232.906 110.687C232.906 111.118 232.691 112.195 232.26 113.919C232.044 115.427 231.721 116.612 231.29 117.474C231.29 118.336 230.859 119.952 229.998 122.322C229.351 124.476 229.028 126.092 229.028 127.169C228.166 129.324 227.52 131.909 227.089 134.926C226.874 137.727 225.904 140.097 224.18 142.036V171.768C224.396 173.061 224.611 176.508 224.827 182.11C225.042 187.496 225.258 193.421 225.473 199.885C225.904 206.133 226.227 212.058 226.443 217.66C226.658 223.046 226.766 226.385 226.766 227.678C226.766 228.755 226.658 231.341 226.443 235.434C226.227 239.528 225.904 243.945 225.473 248.685C225.258 253.425 225.042 257.949 224.827 262.258C224.611 266.352 224.396 268.937 224.18 270.015V275.832C224.18 279.064 225.473 282.403 228.059 285.85C230.859 289.298 234.199 291.56 238.077 292.637ZM440.064 516.601C435.54 516.601 431.015 517.139 426.491 518.216C421.966 519.078 417.549 519.509 413.24 519.509C412.163 519.509 410.224 518.863 407.423 517.57C410.439 519.294 404.622 516.277 407.423 517.57C404.622 515.631 401.929 513.8 399.344 512.076C396.974 510.352 395.465 508.952 394.819 507.875C391.803 503.566 389.325 499.149 387.386 494.624C385.662 490.1 383.508 485.791 380.922 481.697C380.491 480.62 379.306 479.004 377.367 476.85C375.644 474.48 366.056 468.555 366.056 468.124C365.625 467.477 364.871 466.292 363.794 464.569C362.932 462.845 361.963 461.014 360.885 459.075C360.023 456.92 359.162 454.981 358.3 453.257C357.653 451.534 357.33 450.349 357.33 449.702C356.684 449.272 355.714 448.302 354.422 446.794C353.344 445.07 352.59 443.777 352.159 442.916C346.773 435.159 341.387 427.511 336 419.97C330.83 412.214 325.766 404.242 320.811 396.055C320.811 395.624 320.488 394.87 319.841 393.792C319.411 392.715 318.98 391.961 318.549 391.53C315.748 384.636 312.624 378.172 309.177 372.139C305.729 366.107 302.174 359.859 298.512 353.395C298.512 353.18 298.296 352.641 297.865 351.779C297.434 350.702 296.896 349.732 296.249 348.87C295.818 347.793 295.388 346.824 294.957 345.962C294.526 344.885 294.203 344.238 293.987 344.023C293.556 344.023 292.156 343.269 289.786 341.761C287.631 340.037 286.015 338.744 284.938 337.882C284.507 337.667 283.645 337.128 282.353 336.266C281.06 335.189 279.66 334.22 278.151 333.358C276.859 332.281 275.566 331.311 274.273 330.449C272.98 329.587 272.119 329.049 271.688 328.833C271.257 328.402 270.072 327.217 268.133 325.278C266.409 323.339 265.332 322.154 264.901 321.723C264.47 321.508 263.608 321.077 262.316 320.431C261.238 319.784 259.946 319.138 258.437 318.492C257.145 317.63 255.852 316.876 254.559 316.229C253.267 315.583 252.297 315.152 251.651 314.937C251.22 314.937 249.712 314.721 247.126 314.29C244.541 313.644 243.033 313.105 242.602 312.674C241.955 312.674 240.447 312.028 238.077 310.735C235.707 309.443 233.983 308.796 232.906 308.796H232.583C231.29 308.796 229.674 309.981 227.735 312.351C225.796 314.506 223.857 317.091 221.918 320.107C219.979 322.908 218.363 325.709 217.07 328.51C215.778 331.311 215.131 333.25 215.131 334.327C215.131 338.421 215.562 342.191 216.424 345.639C217.501 349.086 218.04 352.856 218.04 356.95C218.04 360.828 217.501 364.383 216.424 367.615C215.562 370.847 215.131 374.186 215.131 377.633C215.131 381.512 215.778 385.39 217.07 389.268C218.579 392.931 219.656 396.486 220.302 399.933V440.653C220.302 441.3 219.871 442.916 219.01 445.501C218.363 447.871 218.04 449.272 218.04 449.702V451.965C218.04 458.213 219.44 463.491 222.241 467.8C225.258 471.894 228.92 475.449 233.229 478.465C237.538 481.266 242.171 483.744 247.126 485.899C252.297 488.053 257.037 490.208 261.346 492.362C265.655 494.301 269.21 496.456 272.011 498.826C275.027 501.196 276.535 503.997 276.535 507.228C276.535 509.814 275.566 512.076 273.627 514.015C271.903 515.739 269.641 517.247 266.84 518.54C264.255 519.617 261.561 520.371 258.761 520.802C255.96 521.448 253.59 521.771 251.651 521.771C250.142 521.771 247.665 521.664 244.217 521.448C240.77 521.448 237.108 521.341 233.229 521.125C229.567 521.125 226.012 521.017 222.564 520.802C219.333 520.586 217.07 520.371 215.778 520.156L139.184 519.509C137.461 520.586 135.306 521.233 132.721 521.448C130.135 521.664 127.657 521.771 125.287 521.771H101.049C99.7563 521.341 97.925 520.371 95.555 518.863C93.185 517.355 92 515.739 92 514.015C92 512.507 92.5386 510.891 93.6159 509.167C94.9086 507.444 96.3091 505.936 97.8172 504.643C99.5409 503.135 101.264 501.95 102.988 501.088C104.712 500.011 106.112 499.472 107.189 499.472H143.709C144.14 499.472 144.678 499.149 145.325 498.503C146.186 497.641 146.941 496.671 147.587 495.594C148.233 494.517 148.772 493.547 149.203 492.685C149.849 491.608 150.172 490.854 150.172 490.423V468.124C150.388 467.477 150.603 465.969 150.819 463.599C151.25 461.014 151.573 458.321 151.788 455.52C152.219 452.719 152.542 450.133 152.758 447.763C152.973 445.178 153.081 443.562 153.081 442.916C153.081 442.054 152.973 440.007 152.758 436.775C152.542 433.543 152.435 430.419 152.435 427.403C152.435 425.895 152.435 424.494 152.435 423.202C152.435 421.909 152.65 421.047 153.081 420.616C153.081 420.401 153.081 419.754 153.081 418.677C153.296 417.384 153.512 414.476 153.727 409.951C153.943 405.427 154.158 398.64 154.374 389.591C154.589 380.327 154.697 367.507 154.697 351.133C157.282 347.255 158.79 343.807 159.221 340.791C159.652 337.775 159.868 334.22 159.868 330.126C159.868 328.618 159.76 326.679 159.545 324.309C159.329 321.723 159.221 320.215 159.221 319.784C159.221 319.353 158.79 318.599 157.929 317.522C157.282 316.229 156.959 315.368 156.959 314.937V314.29C156.959 308.689 157.39 302.979 158.252 297.162C159.329 291.129 159.868 285.312 159.868 279.71C159.868 275.401 159.329 272.169 158.252 270.015C157.39 267.86 156.959 265.275 156.959 262.258V261.289C156.959 260.642 157.282 259.242 157.929 257.088C158.79 254.718 159.221 253.317 159.221 252.886C159.437 252.024 159.652 250.732 159.868 249.008C160.083 247.069 160.299 245.13 160.514 243.191C160.945 241.252 161.268 239.528 161.484 238.02C161.699 236.296 161.914 235.111 162.13 234.465V206.995C162.13 206.133 162.345 203.655 162.776 199.562C163.423 195.253 164.069 190.728 164.715 185.988C165.577 181.033 166.331 176.508 166.978 172.415C167.624 168.105 168.055 165.412 168.27 164.335V147.207C168.27 146.776 168.378 145.914 168.594 144.621C168.809 143.113 169.024 141.605 169.24 140.097C169.671 138.373 169.994 136.865 170.209 135.572C170.425 134.279 170.533 133.525 170.533 133.31V128.785C170.533 128.354 169.886 127.277 168.594 125.553C167.301 123.614 166.439 122.429 166.008 121.999C165.577 121.352 164.823 120.598 163.746 119.736C162.884 118.874 161.914 118.013 160.837 117.151C159.975 116.074 159.114 115.212 158.252 114.565C157.605 113.919 157.175 113.596 156.959 113.596C156.528 113.165 154.805 112.734 151.788 112.303C148.772 111.657 146.833 111.118 145.971 110.687C144.894 110.687 143.062 110.364 140.477 109.718C137.891 109.071 135.198 108.425 132.397 107.779C129.597 107.132 126.903 106.486 124.318 105.84C121.948 105.193 120.332 104.762 119.47 104.547C115.161 103.47 114.641 101.315 121.308 98.0832C127.624 94.636 130.781 90.6501 130.781 86.1256C130.781 84.402 153.173 84.5097 151.419 83.217C149.314 81.9243 147.033 80.847 144.577 79.9852C141.77 78.9079 138.787 78.1538 135.629 77.7229C132.471 77.0766 139.184 76.7534 140.477 76.7534C143.062 76.7534 145.325 76.8611 147.264 77.0766C149.203 77.292 151.465 77.9384 154.05 79.0157C146.294 78.3693 161.807 79.4466 154.05 79.0157C161.807 79.662 169.348 79.9852 176.673 79.9852C183.998 79.9852 191.108 79.662 198.003 79.0157C204.897 78.3693 211.576 77.8307 218.04 77.3998C219.979 76.3225 221.595 75.6761 222.888 75.4607C224.18 75.2452 225.689 75.1375 227.412 75.1375C230.213 75.1375 232.475 75.9993 234.199 77.7229C236.138 79.2311 238.508 79.9852 241.309 79.9852C246.695 79.9852 251.974 79.662 257.145 79.0157C262.531 78.1538 267.81 77.292 272.98 76.4302C278.151 75.5684 283.214 74.8143 288.17 74.168C293.341 73.3062 298.619 72.8752 304.006 72.8752H316.287C317.579 73.9525 319.195 74.7066 321.134 75.1375C323.073 75.5684 325.012 75.8916 326.951 76.107C328.891 76.3225 330.722 76.5379 332.445 76.7534C334.169 76.7534 335.57 76.9689 336.647 77.3998C337.509 77.6152 338.801 78.6925 340.525 80.6316C342.249 82.3552 343.326 83.4324 343.757 83.8633L379.63 95.1746C379.63 95.1746 380.276 95.821 381.569 97.1137C382.861 98.191 384.262 99.5914 385.77 101.315C387.494 103.039 389.11 104.762 390.618 106.486C392.341 108.21 393.634 109.61 394.496 110.687C394.927 111.118 395.789 112.303 397.081 114.242C398.374 115.966 399.236 117.043 399.667 117.474C402.468 121.137 406.023 124.045 410.332 126.2C414.856 128.354 417.98 130.724 419.704 133.31C422.72 139.127 425.09 145.052 426.814 151.085C428.537 156.902 430.692 163.042 433.277 169.506C433.277 169.721 433.493 170.26 433.924 171.122C434.355 171.984 434.786 172.953 435.217 174.03C435.647 174.892 436.078 175.862 436.509 176.939C436.94 177.801 437.156 178.339 437.156 178.555V180.817C437.156 181.033 436.94 181.679 436.509 182.756C436.078 183.834 435.647 185.019 435.217 186.311C434.786 187.388 434.355 188.466 433.924 189.543C433.493 190.62 433.277 191.374 433.277 191.805V216.367C433.277 216.798 433.062 217.444 432.631 218.306C432.2 219.168 431.662 220.137 431.015 221.215C430.369 222.076 429.722 222.938 429.076 223.8C428.645 224.662 428.322 225.2 428.107 225.416C428.107 225.631 427.999 226.385 427.783 227.678C427.783 228.755 427.676 229.94 427.46 231.233C427.245 232.526 426.922 233.711 426.491 234.788C426.275 235.865 426.06 236.512 425.844 236.727C424.336 243.191 421.643 249.978 417.765 257.088C414.102 264.197 409.685 270.984 404.514 277.448C399.344 283.696 393.634 289.405 387.386 294.576C381.138 299.747 374.782 303.733 368.318 306.534C367.888 306.534 366.272 306.749 363.471 307.18C360.885 307.611 359.377 308.15 358.946 308.796C355.499 310.735 352.483 314.075 349.897 318.815C347.527 323.555 345.48 327.648 343.757 331.096C343.972 331.527 344.188 331.85 344.403 332.065C344.834 332.496 345.373 332.711 346.019 332.711C353.56 339.175 360.67 345.854 367.349 352.749C374.028 359.643 380.276 367.292 386.093 375.694C386.093 376.125 386.416 377.31 387.063 379.249C387.709 380.973 388.14 382.05 388.356 382.481C388.356 382.912 388.571 383.666 389.002 384.743C389.648 385.821 390.187 386.575 390.618 387.006C392.341 390.022 393.85 393.038 395.142 396.055C396.435 398.856 397.943 401.764 399.667 404.781C401.175 407.797 402.575 410.275 403.868 412.214C405.161 414.153 406.454 415.984 407.746 417.708C409.039 419.431 410.439 421.155 411.948 422.879C413.456 424.602 415.179 426.757 417.118 429.342C422.289 436.237 427.46 443.562 432.631 451.318C438.017 458.859 429.938 469.524 436.832 474.264C440.926 477.28 445.558 479.758 450.729 481.697C456.115 483.421 461.071 485.468 465.595 487.838C470.12 489.992 473.89 493.009 476.907 496.887C480.138 500.549 481.754 505.828 481.754 512.722L495.974 513.369C495.974 514.446 495.867 515.631 495.651 516.924C495.651 518.216 495.112 519.078 494.035 519.509C493.604 519.509 492.204 519.725 489.834 520.156C487.464 520.802 485.74 521.341 484.663 521.771C484.232 521.771 483.047 521.771 481.108 521.771C479.169 521.987 476.799 522.202 473.998 522.418C471.413 522.633 468.719 522.849 465.919 523.064C463.333 523.495 461.179 523.818 459.455 524.034H458.809C457.516 524.034 456.223 523.603 454.931 522.741C453.638 522.095 452.237 521.233 450.729 520.156C449.436 519.294 447.928 518.54 446.205 517.893C444.481 517.031 442.434 516.601 440.064 516.601Z" fill="#3B3232"/>
<path d="M451.295 316.838C451.295 322.657 452.628 326.901 455.296 329.568C457.963 331.993 461.237 333.569 465.117 334.297C469.239 335.024 473.604 335.388 478.211 335.388C483.061 335.146 487.426 335.267 491.305 335.752C491.79 335.752 492.76 336.237 494.215 337.207C495.67 337.934 496.64 338.298 497.125 338.298C501.975 339.753 505.612 340.602 508.037 340.844C510.462 341.087 514.099 341.208 518.949 341.208C523.556 341.208 528.285 341.087 533.135 340.844C537.984 340.359 542.349 339.389 546.229 337.934C550.351 336.479 553.625 334.176 556.05 331.023C558.717 327.871 560.051 323.506 560.051 317.929C560.051 310.897 558.838 303.622 556.414 296.105C554.231 288.345 550.351 282.283 544.774 277.918C543.562 277.918 541.622 277.797 538.954 277.555C536.53 277.312 533.862 277.07 530.952 276.827C528.042 276.585 525.133 276.342 522.223 276.1C519.555 275.615 517.615 275.372 516.403 275.372C515.918 275.13 515.312 274.766 514.584 274.281C513.129 273.311 512.281 272.826 512.038 272.826H505.855C500.762 272.826 494.943 274.16 488.396 276.827C482.091 279.252 476.15 282.526 470.573 286.648C465.238 290.77 460.631 295.499 456.751 300.834C453.113 305.926 451.295 311.261 451.295 316.838ZM368 406.68C368 392.373 369.576 377.945 372.729 363.396C376.123 348.604 382.064 335.146 390.551 323.021C392.249 320.596 394.674 317.444 397.826 313.564C400.978 309.442 404.01 305.441 406.919 301.561C410.072 297.439 412.739 293.801 414.922 290.649C417.104 287.497 418.316 285.678 418.559 285.193C421.711 281.313 425.834 277.676 430.926 274.281C436.018 270.886 441.353 267.613 446.93 264.46C452.507 261.308 458.084 258.277 463.662 255.367C469.239 252.215 474.089 249.183 478.211 246.274C483.061 245.304 487.911 244.576 492.76 244.091C497.61 243.364 502.46 243 507.31 243C515.312 243 522.586 243.849 529.134 245.546C534.226 248.941 539.682 251.123 545.502 252.093C551.321 252.821 557.02 254.033 562.597 255.731C567.204 256.943 571.69 258.883 576.055 261.55C580.662 263.975 584.785 267.006 588.422 270.644C592.302 274.039 595.818 277.797 598.97 281.919C602.365 285.799 605.275 289.679 607.7 293.559C607.942 293.801 608.306 294.408 608.791 295.378C609.276 296.347 609.761 297.439 610.246 298.651C610.973 299.621 611.58 300.591 612.065 301.561C612.55 302.531 612.792 303.137 612.792 303.38C614.005 305.077 615.581 307.017 617.521 309.199C619.703 311.139 621.764 313.322 623.704 315.747C625.644 317.929 627.22 320.354 628.433 323.021C629.888 325.446 630.615 327.992 630.615 330.66C630.615 332.6 630.494 335.024 630.251 337.934C630.009 340.602 629.524 343.39 628.796 346.3C628.069 348.967 626.978 351.514 625.523 353.938C624.31 356.363 622.613 358.061 620.431 359.031C619.946 359.031 618.976 359.273 617.521 359.758C616.308 360.243 614.853 360.849 613.156 361.577C611.458 362.062 609.761 362.547 608.064 363.032C606.609 363.517 605.639 363.881 605.154 364.123C604.911 364.123 604.063 364.487 602.608 365.214C601.395 365.699 600.668 366.063 600.425 366.305C597.273 366.305 592.423 366.427 585.876 366.669C579.571 366.669 572.297 366.79 564.052 367.033C556.05 367.033 547.563 367.154 538.591 367.397C529.619 367.639 521.01 367.882 512.766 368.124C504.764 368.367 497.489 368.609 490.942 368.852C484.394 368.852 479.545 368.852 476.392 368.852C475.422 368.852 473.604 368.973 470.936 369.215C468.269 369.215 465.48 369.337 462.571 369.579C459.661 369.821 456.872 370.185 454.205 370.67C451.78 370.913 450.082 371.155 449.112 371.398C442.808 376.49 438.564 382.673 436.382 389.948C434.442 396.98 433.472 404.497 433.472 412.499C433.472 421.229 434.321 428.867 436.018 435.415C437.715 441.719 440.262 448.994 443.656 457.239C444.141 457.724 444.626 458.694 445.111 460.148C445.839 461.361 446.203 462.21 446.203 462.695C446.445 462.937 447.051 463.543 448.021 464.513C449.234 465.241 450.325 466.211 451.295 467.423C452.507 468.393 453.598 469.484 454.568 470.697C455.538 471.667 456.023 472.394 456.023 472.879C456.266 473.122 456.993 473.97 458.206 475.425C459.661 476.638 461.116 478.093 462.571 479.79C464.025 481.487 465.359 483.185 466.572 484.882C467.784 486.337 468.511 487.307 468.754 487.792C469.239 487.792 469.724 488.156 470.209 488.883C470.936 489.611 471.543 489.975 472.028 489.975C474.21 491.914 476.877 494.218 480.03 496.885C483.425 499.553 486.698 502.099 489.85 504.524C493.488 507.434 497.368 510.344 501.49 513.253C511.917 516.163 521.98 517.618 531.68 517.618C541.379 517.618 551.685 516.163 562.597 513.253C568.902 509.374 575.328 506.464 581.875 504.524C588.665 502.341 595.454 500.159 602.244 497.977C602.729 497.492 603.699 497.007 605.154 496.522C606.609 495.794 607.457 495.188 607.7 494.703H610.246C611.943 495.431 614.005 496.4 616.429 497.613C619.097 498.825 620.431 499.795 620.431 500.523C620.916 501.008 621.4 502.826 621.885 505.979C622.613 509.131 622.977 511.556 622.977 513.253C622.977 517.376 621.764 522.226 619.339 527.803C617.157 533.38 614.975 537.502 612.792 540.17C612.792 540.655 611.337 541.867 608.427 543.807C605.76 545.747 603.699 547.202 602.244 548.172C594.484 553.264 586.846 558.72 579.329 564.54C571.812 570.117 563.688 574.603 554.959 577.998C554.474 578.24 553.261 578.483 551.321 578.725C549.624 579.21 547.805 579.574 545.865 579.817C543.925 580.059 542.107 580.302 540.409 580.544C538.712 580.786 537.742 580.908 537.499 580.908C532.892 582.12 528.891 583.211 525.496 584.181C522.344 585.394 518.585 586 514.221 586C510.098 586 506.34 585.394 502.945 584.181C499.55 583.211 495.67 582.12 491.305 580.908C489.123 580.423 485.971 579.574 481.848 578.362C477.969 577.392 473.846 576.179 469.481 574.724C465.117 573.269 460.994 571.693 457.115 569.996C453.477 568.298 450.81 566.722 449.112 565.267C448.385 565.025 447.051 563.934 445.111 561.994C443.171 560.054 440.989 557.993 438.564 555.81C436.382 553.628 434.321 551.567 432.381 549.627C430.441 547.687 429.107 546.474 428.38 545.989C428.137 545.504 426.925 544.534 424.742 543.08C422.56 541.625 421.347 540.655 421.105 540.17C419.893 539.685 418.438 538.593 416.74 536.896C415.043 534.956 413.952 533.744 413.467 533.259C412.739 532.289 411.163 530.106 408.738 526.712C406.556 523.074 404.131 519.194 401.463 515.072C398.796 510.95 396.129 506.949 393.461 503.069C391.036 499.189 389.339 496.4 388.369 494.703C384.974 489.853 382.671 485.004 381.458 480.154C380.488 475.304 379.397 470.09 378.185 464.513C378.185 464.271 377.7 463.18 376.73 461.24C376.002 459.057 375.638 457.724 375.638 457.239C372.486 449.964 370.425 441.841 369.455 432.868C368.485 423.654 368 414.924 368 406.68Z" fill="#3B3232"/>
<path d="M247.743 44.717C242.945 49.5143 231.638 57.2241 224.099 61.6786C216.561 66.4759 209.707 70.5878 203.54 74.0144C202.854 74.0144 200.456 74.1857 196.344 74.5284C192.232 75.2137 173.9 95.9446 173.214 96.6299C168.76 98.6858 163.791 101.256 158.309 104.34C152.826 107.424 147.343 110.679 141.861 114.105C136.721 117.875 136.721 130.382 131.581 134.151C126.441 137.92 112.906 153.683 109.48 156.767C109.137 157.109 108.28 157.795 106.91 158.823C105.882 159.851 104.682 160.879 103.312 161.906C101.941 163.277 100.742 164.476 99.7138 165.504C98.6859 166.875 98.1719 167.732 98.1719 168.074C97.4866 168.76 95.0879 169.959 90.976 171.672C86.8641 173.728 75.2137 199.428 74.5284 199.428L63.2206 210.735C62.878 211.078 62.1926 212.449 61.1647 214.847C60.1367 217.246 59.1087 219.816 58.0807 222.557C57.0527 225.298 56.0248 227.868 54.9968 230.267C53.9688 232.666 53.2835 234.208 52.9408 234.893C52.5982 235.578 52.2555 236.263 51.9129 236.949C51.9129 237.977 51.7415 238.833 51.3989 239.519C51.0562 240.547 50.5422 241.575 49.8569 242.603C41.6331 253.91 51.7415 277.897 46.259 290.918C40.7764 303.939 49.8569 317.645 49.8569 332.037C49.8569 337.519 43.5177 342.83 46.259 346.942C49.3429 351.054 51.5702 356.023 52.9409 361.848C52.9409 362.191 53.1122 363.219 53.4548 364.932C53.7975 366.988 53.6262 391.659 53.9688 393.715C54.3115 395.771 54.6541 397.656 54.9968 399.369C55.3395 401.083 55.6821 401.939 56.0248 401.939C57.0528 404.68 58.5947 407.25 60.6507 409.649C62.7066 412.39 66.4759 429.866 68.8745 432.265C71.2731 435.006 73.6717 437.404 76.0704 439.46C78.469 441.859 80.5249 443.915 82.2382 445.628C82.5809 446.314 83.6088 448.027 85.3221 450.768C87.0354 453.509 88.9201 456.422 90.976 459.506C93.032 462.933 94.9166 466.017 96.6299 468.758C98.3432 471.842 99.5425 473.898 100.228 474.926C102.284 477.667 105.539 480.922 109.994 484.691C114.791 488.461 131.581 500.111 137.749 514.479C143.232 518.591 148.543 536.09 153.683 539.174C158.823 542.258 161.05 554.937 164.476 556.65C164.819 556.65 166.532 556.993 169.616 557.678C172.7 558.706 184.693 555.622 185.036 555.622C189.148 558.021 192.746 560.419 195.83 562.818C198.914 565.559 201.826 568.3 204.568 571.042C204.568 571.042 212.277 560.933 215.361 563.332C218.788 565.731 218.445 563.674 222.557 565.388C232.494 569.5 238.32 568.986 247.229 568.986C256.138 569.328 265.904 570.528 276.526 572.584C277.211 573.269 278.753 574.126 281.152 575.154C283.893 576.524 291.774 588.003 292.46 588.003H324.327C332.208 588.689 339.575 590.402 346.428 593.143C353.282 596.227 360.478 597.769 368.016 597.769H371.614C376.068 597.426 382.065 596.912 389.604 596.227C397.142 595.542 404.509 594.856 411.705 594.171C418.901 593.486 425.069 592.8 430.209 592.115C435.691 591.772 438.775 591.601 439.46 591.601C440.146 591.259 441.859 590.573 444.6 589.545C447.684 588.517 472.356 583.206 475.44 581.835C478.866 580.465 481.95 579.094 484.691 577.723C487.433 576.695 489.317 576.01 490.345 575.667C500.282 572.584 499.426 568.3 510.391 565.902C521.356 563.503 531.807 560.419 541.744 556.65C561.618 550.825 592.8 520.483 608.563 508.49C624.668 496.839 617.472 472.87 632.206 459.506C633.577 459.163 635.119 458.135 636.832 456.422C638.546 454.709 639.745 453.338 640.43 452.31C644.885 445.457 648.997 438.775 652.766 432.265C656.535 426.097 660.647 420.1 665.102 414.275C666.13 412.562 667.329 410.334 668.7 407.593C670.413 404.852 671.612 403.31 672.297 402.967C675.381 396.457 675.381 377.953 675.381 371.1C675.724 364.589 676.581 358.079 677.951 351.568C677.951 351.226 678.465 350.026 679.493 347.97C680.864 346.257 681.549 345.229 681.549 344.886C681.549 344.201 681.721 343.345 682.063 342.317C682.063 341.631 682.063 340.775 682.063 339.747C682.406 339.061 682.577 338.376 682.577 337.691C682.577 336.663 682.406 335.292 682.063 333.579C681.721 331.865 681.549 330.495 681.549 329.467C680.864 328.782 680.179 327.925 679.493 326.897C678.465 325.184 677.951 323.984 677.951 323.299V305.309C677.951 303.939 681.549 299.998 679.493 295.544C677.78 291.432 676.409 288.519 675.381 286.806C675.039 285.778 673.839 283.722 671.783 280.638C669.727 277.897 666.472 252.197 664.074 248.771C661.675 245.344 659.276 242.089 656.878 239.005C654.822 235.921 653.28 233.694 652.252 232.323C652.252 231.295 651.224 229.753 649.168 227.697C648.14 226.669 647.112 225.812 646.084 225.127C645.399 224.099 644.371 221.872 643 218.445C641.629 215.019 640.088 211.249 638.374 207.137C637.004 203.026 635.633 199.256 634.262 195.83C632.892 192.403 632.035 190.347 631.692 189.662C631.35 188.977 629.636 187.606 626.552 185.55C623.811 183.494 620.556 181.095 616.787 178.354C613.36 175.613 612.675 154.368 608.563 151.627C604.794 148.885 601.71 146.658 599.311 144.945C590.745 139.805 594.171 126.613 584.919 121.815C576.01 117.361 558.363 75.385 549.454 70.9304C546.028 69.2171 542.43 68.0178 538.66 67.3325C535.234 66.6472 531.465 66.1332 527.353 65.7905C523.583 65.7905 519.814 65.4479 516.045 64.7626C512.618 64.0772 509.192 62.8779 505.765 61.1646C505.422 60.4793 503.88 59.1087 501.139 57.0527C498.398 54.9968 496.685 53.6261 495.999 52.9408C495.657 52.9408 494.629 52.7695 492.915 52.4268C491.545 52.0842 490.003 51.7415 488.289 51.3989C486.919 51.0562 485.377 50.7135 483.664 50.3709C482.293 50.0282 481.436 49.8569 481.094 49.8569C473.212 47.4583 453.51 43.3464 445.628 39.5771C437.747 36.1506 429.866 34.4373 421.985 34.4373H415.817C415.474 34.4373 414.446 34.6086 412.733 34.9512C411.02 35.2939 409.135 35.6366 407.079 35.9792C405.023 36.6645 402.967 37.1785 400.911 37.5212C399.198 38.2065 398.17 38.5492 397.827 38.5492C397.142 38.5492 395.429 38.2065 392.687 37.5212C389.946 37.1785 387.034 36.6645 383.95 35.9792C380.866 35.6366 377.953 35.2939 375.212 34.9512C372.471 34.6086 370.586 34.4373 369.558 34.4373H348.484C347.456 35.1226 344.887 36.3219 340.775 38.0352C337.005 40.0911 334.778 41.4618 334.093 42.1471C333.065 42.1471 330.838 42.1471 327.411 42.1471C323.984 42.4897 320.215 42.8324 316.103 43.1751C312.334 43.5177 308.736 43.8604 305.309 44.203C301.883 44.5457 299.656 44.8884 298.628 45.231C296.914 45.5737 294.002 46.0877 289.89 46.773C285.778 47.4583 281.323 48.1436 276.526 48.829C272.071 49.5143 260.592 43.0037 256.481 43.6891C252.369 44.3744 249.456 44.717 247.743 44.717ZM6.16787 260.592C7.88117 260.25 9.59446 258.194 11.3078 254.424C12.6784 250.998 13.7064 248.428 14.3917 246.715C14.7343 246.029 15.2483 243.973 15.9337 240.547C16.9616 237.463 17.9896 233.865 19.0176 229.753C20.3882 225.641 21.4162 221.358 22.1015 216.903C23.1295 212.791 23.8148 209.707 24.1575 207.651C24.5001 207.309 24.8428 206.281 25.1855 204.568C25.5281 203.197 25.8708 201.484 26.2134 199.428C26.8988 197.372 27.4127 195.316 27.7554 193.26C28.0981 191.546 28.4407 190.347 28.7834 189.662C28.7834 189.319 29.64 188.12 31.3533 186.064C33.0666 184.008 34.9512 181.781 37.0072 179.382C39.0632 177.326 40.9478 175.099 42.6611 172.7C44.717 170.644 45.9163 169.445 46.259 169.102C52.0842 161.564 58.0808 153.511 64.2486 144.945C70.4165 136.721 76.7557 128.497 83.2662 120.273C90.1194 112.05 96.9726 104.168 103.826 96.6299C110.679 89.0914 117.703 82.2382 124.899 76.0703C125.242 75.385 126.27 74.5284 127.983 73.5004C129.697 72.4724 131.581 71.4444 133.637 70.4165C135.693 69.3885 137.578 68.3605 139.291 67.3325C141.004 66.3045 142.032 65.6192 142.375 65.2766C149.571 60.4793 156.938 55.3394 164.476 49.8569C172.015 44.3744 180.067 39.9198 188.634 36.4932C189.319 36.4932 191.718 35.9792 195.83 34.9512C199.942 33.9232 202.34 33.4093 203.026 33.4093C211.935 30.668 220.33 27.5841 228.211 24.1575C236.092 20.7309 244.487 17.8183 253.397 15.4197C263.334 12.6784 273.271 10.2798 283.208 8.22382C293.145 6.16786 303.082 3.76925 313.019 1.02798C315.418 1.02798 319.187 0.856646 324.327 0.513987C329.467 0.513988 334.778 0.513988 340.261 0.513988C346.086 0.513988 351.568 0.342659 356.708 0C361.848 2.24672e-07 365.446 3.81943e-07 367.502 4.71812e-07C370.929 6.21593e-07 375.555 8.23794e-07 381.38 1.07842e-06C387.205 0.342661 392.859 0.51399 398.341 0.513991C404.167 0.513991 409.135 0.513991 413.247 0.513991C417.702 0.856651 420.272 1.02798 420.957 1.02798C438.775 2.05596 456.251 5.99654 473.384 12.8497C490.517 19.7029 507.65 26.5561 524.783 33.4093C525.125 33.4093 526.325 33.7519 528.38 34.4373C530.436 35.1226 532.492 35.8079 534.548 36.4932C536.947 37.1785 539.174 37.8638 541.23 38.5492C543.286 39.2345 544.657 39.7485 545.342 40.0911C546.027 40.4338 547.398 41.6331 549.454 43.6891C551.51 46.0877 553.737 48.4863 556.136 50.8849C558.535 53.6262 560.762 56.0248 562.818 58.0807C564.874 60.4794 566.073 62.0213 566.416 62.7066C577.038 71.2731 588.003 78.8116 599.311 85.3222C610.961 92.1753 621.755 101.084 631.692 112.05C635.119 115.476 637.518 118.731 638.888 121.815C640.601 124.899 641.972 127.983 643 131.067C644.028 134.151 645.056 137.235 646.084 140.319C647.455 143.746 649.339 147.515 651.738 151.627C652.081 151.627 652.937 152.141 654.308 153.169C656.021 154.539 657.734 155.91 659.448 157.281C661.161 158.994 662.703 160.536 664.074 161.906C665.444 163.62 666.472 164.819 667.157 165.504C667.843 166.532 669.214 168.588 671.269 171.672C673.325 174.756 675.553 178.011 677.951 181.438C680.35 184.865 682.577 188.12 684.633 191.204C686.689 194.288 688.231 196.515 689.259 197.886C689.602 199.599 689.944 201.141 690.287 202.512C690.63 203.54 690.801 204.568 690.801 205.596C691.144 206.624 691.486 207.309 691.829 207.652C693.885 212.449 696.455 217.246 699.539 222.043C702.965 227.183 706.221 232.152 709.305 236.949C712.731 242.089 715.472 247.229 717.528 252.368C719.927 257.508 721.126 262.648 721.126 267.788C721.126 272.585 720.441 277.211 719.07 281.666C717.7 286.12 717.014 290.746 717.014 295.544V300.683C717.014 301.711 717.528 303.939 718.556 307.365C719.927 311.135 720.612 313.362 720.612 314.047C720.612 314.39 720.612 315.589 720.612 317.645C720.612 319.701 720.612 321.928 720.612 324.327C720.955 327.068 721.126 329.638 721.126 332.037C721.126 334.435 721.126 336.491 721.126 338.205C721.126 343.002 720.784 348.484 720.098 354.652C719.756 360.82 719.07 366.988 718.042 373.156C717.357 379.666 716.329 385.834 714.958 391.659C713.588 397.827 711.874 403.139 709.819 407.593C709.476 408.621 708.619 410.506 707.249 413.247C705.878 415.988 704.336 418.901 702.623 421.985C700.909 425.411 699.367 428.495 697.997 431.237C696.626 433.978 695.77 435.862 695.427 436.89C694.742 437.576 693.885 439.803 692.857 443.572C692.172 447.342 691.829 449.569 691.829 450.254C689.773 457.45 686.004 463.961 680.521 469.786C675.381 475.611 670.927 481.265 667.157 486.747C663.388 491.545 660.304 497.027 657.906 503.195C655.85 509.706 652.937 516.045 649.168 522.213L645.57 525.811C644.885 526.153 643.514 526.496 641.458 526.839C639.745 527.524 637.86 528.209 635.804 528.895C634.091 529.58 632.378 530.094 630.664 530.437C628.951 531.122 628.094 531.636 628.094 531.978C623.297 535.062 620.385 538.318 619.357 541.744C618.329 545.513 616.444 549.625 613.703 554.08C610.961 558.192 607.021 562.475 601.881 566.93C596.741 571.727 591.087 576.181 584.919 580.293C578.751 584.748 572.412 588.689 565.902 592.115C559.734 595.884 554.08 598.626 548.94 600.339C548.255 601.024 545.856 601.538 541.744 601.881C537.975 602.566 535.576 602.909 534.548 602.909C533.178 603.937 531.122 604.794 528.38 605.479C525.982 606.164 524.783 606.849 524.783 607.535C523.755 608.22 522.213 609.419 520.157 611.133C518.101 613.189 515.873 615.416 513.475 617.815C511.076 620.213 508.849 618.329 506.793 620.384C504.737 622.44 503.538 623.982 503.195 625.01H499.083L488.803 626.552C487.09 625.524 485.719 625.01 484.691 625.01H483.15C474.926 625.01 474.412 626.895 467.216 629.636C460.363 632.378 453.167 634.434 445.628 635.804C431.579 638.203 417.53 639.916 403.481 640.944C389.775 642.315 375.897 643 361.848 643H332.037C331.009 643 328.439 642.486 324.327 641.458C320.558 640.773 318.33 640.43 317.645 640.43C316.96 639.745 315.76 639.402 314.047 639.402C312.677 639.402 310.963 639.402 308.907 639.402C304.11 639.402 299.313 639.573 294.516 639.916C290.061 640.259 287.148 640.43 285.778 640.43C285.092 640.087 283.722 639.402 281.666 638.374C279.953 637.689 278.068 636.832 276.012 635.804C273.956 635.119 272.071 634.434 270.358 633.748C268.987 633.063 268.131 632.72 267.788 632.72C266.76 632.72 264.704 632.549 261.62 632.206C258.536 631.864 255.11 631.35 251.341 630.664C247.914 630.322 244.659 629.979 241.575 629.636C238.491 629.294 236.606 629.122 235.921 629.122C234.893 629.122 233.522 628.608 231.809 627.58C230.096 626.895 228.725 626.21 227.697 625.524C227.012 625.182 225.641 624.325 223.585 622.954C221.529 621.584 219.302 620.042 216.903 618.329C214.847 616.615 212.791 615.073 210.735 613.703C208.679 612.332 207.309 611.475 206.624 611.133C205.938 610.79 204.568 610.276 202.512 609.591C200.456 608.905 198.228 608.049 195.83 607.021C193.431 606.335 191.204 605.479 189.148 604.451C187.092 603.766 185.721 603.252 185.036 602.909C181.609 601.538 177.669 599.825 173.214 597.769C168.76 595.713 164.134 593.314 159.337 590.573C154.882 588.175 150.427 585.605 145.973 582.863C141.861 580.122 138.263 577.723 135.179 575.667C134.836 574.982 133.808 573.783 132.095 572.07C130.724 570.356 129.697 568.814 129.011 567.444C122.158 559.563 115.133 551.853 107.938 544.314C100.742 537.118 93.546 529.751 86.3501 522.213C79.1543 515.017 72.1298 507.65 65.2766 500.111C58.4234 492.573 52.0842 484.52 46.259 475.954C45.5737 468.072 43.8604 461.905 41.1191 457.45C38.3778 453.338 35.4652 447.684 32.3813 440.488C31.696 439.46 30.8393 437.576 29.8113 434.834C29.126 432.436 28.7834 430.38 28.7834 428.667C24.6715 414.96 20.7309 401.425 16.9616 388.061C13.535 374.698 9.93712 360.991 6.16786 346.942C5.82521 343.173 4.79723 339.575 3.08393 336.149C1.02798 333.065 -1.64759e-07 329.638 0 325.869L1.5727e-07 322.271C1.87227e-07 321.586 0.513989 319.701 1.54197 316.617C2.56994 313.876 3.08393 312.163 3.08393 311.477C3.42659 309.764 3.76925 306.509 4.11191 301.711C4.45457 296.914 4.79723 291.774 5.13989 286.292C5.48255 280.809 5.82521 275.669 6.16787 270.872C6.16787 266.075 6.16787 262.648 6.16787 260.592Z" fill="#3B3232"/>
</svg>
