<svg width="1445" height="1288" viewBox="0 0 1445 1288" fill="none" xmlns="http://www.w3.org/2000/svg">
<path d="M476.858 606.858C480.742 606.858 487.431 607.289 496.925 608.152C506.851 608.584 517.208 609.015 527.996 609.447C538.785 609.878 548.926 610.526 558.42 611.389C568.346 611.82 575.035 612.036 578.487 612.036H588.844C591.865 611.605 596.18 610.742 601.79 609.447C607.4 608.152 610.637 607.289 611.5 606.858C626.173 601.248 638.256 594.559 647.75 586.791C657.244 578.591 665.659 569.745 672.995 560.251C680.331 550.325 687.02 539.968 693.062 529.18C699.535 517.959 707.087 506.524 715.718 494.872C716.581 492.714 718.092 490.125 720.249 487.104C722.407 483.652 723.486 481.278 723.486 479.984C723.486 479.552 723.702 477.61 724.133 474.158C724.996 470.705 725.644 467.037 726.075 463.153C726.507 459.27 726.938 455.601 727.37 452.149C727.801 448.697 728.017 446.539 728.017 445.676C728.449 444.813 729.096 441.792 729.959 436.613C731.254 431.435 732.333 428.414 733.196 427.551V416.547C733.196 407.484 732.764 397.99 731.901 388.065C731.038 378.139 728.233 368.861 723.486 360.23C717.444 349.442 712.266 338.869 707.95 328.512C704.066 317.723 699.104 307.366 693.062 297.44C692.199 297.009 690.904 295.93 689.178 294.204C687.883 292.046 686.373 290.104 684.647 288.378C683.352 286.22 682.058 284.278 680.763 282.552C679.468 280.394 678.605 279.1 678.174 278.668C678.174 278.237 677.311 276.726 675.584 274.137C673.858 271.116 671.916 268.311 669.759 265.722C668.032 262.701 666.09 259.896 663.933 257.307C662.207 254.718 661.128 253.207 660.696 252.776C660.696 251.481 660.049 250.402 658.754 249.539C657.891 248.676 657.028 248.244 656.165 248.244C652.713 246.087 649.045 244.792 645.161 244.361C641.277 243.929 637.393 243.713 633.509 243.713C629.625 243.713 625.741 243.497 621.857 243.066C618.405 242.634 614.953 240.908 611.5 237.887C605.89 234.867 600.712 232.062 595.965 229.472C591.649 226.451 587.118 224.078 582.371 222.352C578.055 220.194 573.093 218.684 567.483 217.821C562.304 216.526 556.047 215.879 548.711 215.879H539.648C537.49 215.879 534.038 216.094 529.291 216.526C524.976 216.958 520.229 217.605 515.05 218.468C509.872 218.899 504.693 219.331 499.514 219.763C494.767 220.194 491.315 220.41 489.157 220.41C488.726 220.841 487.431 222.136 485.273 224.294C483.116 226.451 480.742 228.825 478.153 231.414C475.995 233.572 473.622 235.73 471.033 237.887C468.875 240.045 467.364 241.556 466.501 242.419C466.501 243.282 466.07 245.439 465.207 248.892C464.775 251.913 464.128 254.286 463.265 256.012C463.265 257.738 462.402 260.975 460.675 265.722C459.381 270.037 458.734 273.274 458.734 275.432C457.007 279.747 455.713 284.926 454.85 290.967C454.418 296.577 452.476 301.324 449.024 305.208V364.761C449.455 367.351 449.887 374.255 450.318 385.475C450.75 396.264 451.182 408.132 451.613 421.078C452.476 433.593 453.123 445.46 453.555 456.68C453.987 467.469 454.202 474.158 454.202 476.747C454.202 478.905 453.987 484.083 453.555 492.283C453.123 500.482 452.476 509.329 451.613 518.823C451.182 528.317 450.75 537.379 450.318 546.01C449.887 554.209 449.455 559.388 449.024 561.545V573.197C449.024 579.67 451.613 586.359 456.792 593.264C462.402 600.169 469.091 604.7 476.858 606.858ZM881.431 1055.45C872.369 1055.45 863.306 1056.53 854.244 1058.68C862.875 1058.68 845.181 1060.41 854.244 1058.68C852.086 1058.68 848.202 1057.39 842.592 1054.8C848.634 1058.25 836.982 1052.21 842.592 1054.8C836.982 1050.92 831.588 1047.25 826.409 1043.8C821.662 1040.34 818.641 1037.54 817.347 1035.38C811.305 1026.75 806.342 1017.9 802.458 1008.84C799.006 999.779 794.691 991.148 789.512 982.948C788.649 980.791 786.276 977.554 782.392 973.239C778.939 968.492 759.736 956.624 759.736 955.761C758.873 954.466 757.362 952.093 755.204 948.641C753.478 945.188 751.536 941.52 749.379 937.636C747.652 933.321 745.926 929.437 744.2 925.984C742.905 922.532 742.258 920.159 742.258 918.864C740.963 918.001 739.022 916.059 736.432 913.038C734.275 909.586 718.523 895.992 717.66 894.266C706.871 878.73 696.083 863.411 685.294 848.307C674.937 832.771 664.796 816.804 654.87 800.405C654.87 799.542 654.223 798.032 652.928 795.874C652.065 793.716 651.202 792.206 650.339 791.343C644.729 777.533 638.472 764.587 631.567 752.504C624.662 740.421 623.26 740.675 608.589 725.335C608.589 724.824 607.726 723.545 606 721.5C604.274 718.943 597.795 718.726 596.5 717C595.637 714.842 591.649 715.391 590.786 713.665C589.923 711.507 589.276 710.212 588.844 709.781C587.981 709.781 585.176 708.27 580.429 705.25C576.114 701.797 572.877 699.208 570.719 697.482C569.856 697.05 568.13 695.971 565.541 694.245C562.951 692.088 560.146 690.146 557.126 688.419C554.536 686.262 551.947 684.32 549.358 682.594C546.769 680.867 545.042 679.789 544.179 679.357C543.316 678.494 540.943 676.12 537.059 672.237C533.606 668.353 531.449 665.979 530.586 665.116C529.723 664.685 527.996 663.821 525.407 662.527C523.249 661.232 520.66 659.938 517.639 658.643C515.05 656.917 512.461 655.406 509.871 654.112C507.282 652.817 505.34 651.954 504.046 651.522C503.183 651.522 500.162 651.091 494.983 650.228C489.805 648.933 486.784 647.854 485.921 646.991C484.626 646.991 481.605 645.697 476.858 643.107C472.111 640.518 468.659 639.223 466.501 639.223H465.854C463.265 639.223 460.028 641.597 456.144 646.344C452.26 650.659 448.376 655.838 444.493 661.879C440.609 667.49 437.372 673.1 434.783 678.71C432.194 684.32 430.899 688.204 430.899 690.361C430.899 698.561 431.762 706.113 433.488 713.017C435.646 719.922 436.725 727.474 436.725 735.673C436.725 743.441 435.646 750.562 433.488 757.035C431.762 763.508 430.899 770.197 430.899 777.102C430.899 784.87 432.194 792.637 434.783 800.405C437.804 807.741 439.961 814.862 441.256 821.767V903.328C441.256 904.623 440.393 907.86 438.667 913.038C437.372 917.785 436.725 920.59 436.725 921.453V925.984C436.725 938.499 439.53 949.072 445.14 957.703C451.182 965.902 461.107 1052.64 469.738 1058.68C478.369 1064.29 487.647 1069.26 497.573 1073.57C507.93 1077.89 517.424 1082.2 526.054 1086.52C534.685 1090.4 541.806 1094.72 547.416 1099.47C553.457 1104.21 556.478 1109.82 556.478 1116.3C556.478 1121.47 554.536 1126.01 550.652 1129.89C547.2 1133.34 542.669 1136.36 537.059 1138.95C531.88 1141.11 526.486 1142.62 520.876 1143.48C515.266 1144.78 510.519 1145.42 506.635 1145.42C503.614 1145.42 498.651 1145.21 491.747 1144.78C484.842 1144.78 477.506 1144.56 469.738 1144.13C462.402 1144.13 455.281 1143.91 448.376 1143.48C441.903 1143.05 430.899 1151.65 434.783 1142.19L363.067 1151.65L281.369 1140.89C277.917 1143.05 271.012 1064.73 265.833 1065.16C260.655 1065.59 255.692 1065.8 250.945 1065.8H202.396C199.807 1064.94 196.139 1063 191.392 1059.98C186.645 1056.96 184.271 1053.72 184.271 1050.27C184.271 1047.25 185.35 1044.01 187.508 1040.56C190.097 1037.11 192.902 1034.09 195.923 1031.5C199.376 1028.48 202.828 1026.1 206.28 1024.38C209.733 1022.22 212.538 1021.14 214.695 1021.14L290.431 1100.76C291.294 1100.76 292.373 1100.11 293.668 1098.82C295.394 1097.09 296.904 1095.15 298.199 1092.99C299.494 1090.83 300.573 1088.89 301.436 1087.17C302.73 1085.01 303.378 1083.5 303.378 1082.64L300.788 958.35C301.22 957.056 301.651 954.035 302.083 949.288C302.946 944.109 303.593 938.715 304.025 933.105C304.888 927.495 305.535 922.316 305.967 917.569C306.398 912.391 306.614 909.154 306.614 907.86C306.614 906.133 306.398 902.034 305.967 895.561C305.535 889.087 305.32 882.83 305.32 876.788C305.32 873.768 305.32 870.963 305.32 868.373C305.32 865.784 305.751 864.058 306.614 863.195C306.614 862.763 306.614 861.469 306.614 859.311C307.046 856.722 307.477 850.896 307.909 841.833C308.34 832.771 308.772 819.177 309.204 801.052C309.635 782.496 309.851 756.819 309.851 724.022C315.029 716.254 318.05 709.349 318.913 703.308C319.776 697.266 320.208 690.146 320.208 681.946C320.208 678.925 319.992 675.042 319.561 670.295C319.129 665.116 318.913 662.095 318.913 661.232C318.913 660.369 318.05 658.859 316.324 656.701C315.029 654.112 314.382 652.386 314.382 651.522V650.228C314.382 639.008 315.245 627.572 316.971 615.92C319.129 603.837 320.208 592.185 320.208 580.965C320.208 572.334 319.129 565.861 316.971 561.545C315.245 557.23 314.382 552.051 314.382 546.01V544.068C314.382 542.773 315.029 539.968 316.324 535.653C318.05 530.906 318.913 528.101 318.913 527.238C319.345 525.512 319.776 522.922 320.208 519.47C320.639 515.586 321.071 511.702 321.503 507.818C322.366 503.934 323.013 500.482 323.444 497.461C323.876 494.009 324.308 491.635 324.739 490.341V435.319C324.739 433.593 325.171 428.63 326.034 420.431C327.328 411.8 328.623 402.737 329.918 393.243C331.644 383.318 333.154 374.255 334.449 366.056C335.743 357.425 336.607 352.031 337.038 349.873V315.565C337.038 314.702 337.254 312.976 337.685 310.387C338.117 307.366 338.549 304.345 338.98 301.324C339.843 297.872 340.49 294.851 340.922 292.262C341.354 289.673 341.569 288.162 341.569 287.731V278.668C341.569 277.805 340.275 275.647 337.685 272.195C335.096 268.311 333.37 265.938 332.507 265.075C331.644 263.78 330.133 262.27 327.976 260.543C326.25 258.817 324.308 257.091 322.15 255.365C320.424 253.207 318.697 251.481 316.971 250.186C315.677 248.892 314.814 248.244 314.382 248.244C313.519 247.381 310.067 246.518 304.025 245.655C297.983 244.361 294.099 243.282 292.373 242.419C290.216 242.419 286.547 241.771 281.369 240.477C276.19 239.182 270.796 237.887 265.186 236.593C259.576 235.298 254.182 234.003 249.003 232.709C244.256 231.414 241.02 230.551 239.293 230.12C230.662 227.962 229.621 223.646 242.974 217.173C255.624 210.269 261.949 202.285 261.949 193.223C261.949 189.77 306.799 189.986 303.285 187.397C299.068 184.807 294.5 182.65 289.581 180.924C283.958 178.766 277.984 177.255 271.659 176.392C265.334 175.098 278.78 174.45 281.369 174.45C286.547 174.45 291.079 174.666 294.963 175.098C298.846 175.529 303.378 176.824 308.556 178.982C293.021 177.687 324.092 179.845 308.556 178.982C324.092 180.276 339.196 180.924 353.868 180.924C368.541 180.924 382.782 180.276 396.591 178.982C410.401 177.687 423.778 176.608 436.725 175.745C440.609 173.587 443.845 172.293 446.435 171.861C449.024 171.43 452.045 171.214 455.497 171.214C461.107 171.214 465.638 172.94 469.091 176.392C472.974 179.413 477.722 180.924 483.332 180.924C494.12 180.924 504.693 180.276 515.05 178.982C525.839 177.255 536.411 175.529 546.769 173.803C557.126 172.077 567.267 170.567 577.192 169.272C587.549 167.546 598.122 166.683 608.911 166.683H633.509C636.098 168.84 639.335 170.351 643.219 171.214C647.103 172.077 650.986 172.724 654.87 173.156C658.754 173.587 662.422 174.019 665.875 174.45C669.327 174.45 672.132 174.882 674.29 175.745C676.016 176.177 678.605 178.334 682.058 182.218C685.51 185.671 687.668 187.828 688.531 188.691L760.383 211.347C760.383 211.347 761.677 212.642 764.267 215.231C766.856 217.389 769.661 220.194 772.682 223.646C776.134 227.099 779.371 230.551 782.392 234.003C785.844 237.456 788.433 240.261 790.159 242.419C791.023 243.282 792.749 245.655 795.338 249.539C797.927 252.991 799.653 255.149 800.516 256.012C806.127 263.348 813.247 269.174 821.878 273.49C830.94 277.805 837.198 282.552 840.65 287.731C846.692 299.382 851.439 311.25 854.891 323.333C858.343 334.985 862.659 347.284 867.837 360.23C867.837 360.662 868.269 361.741 869.132 363.467C869.995 365.193 870.858 367.135 871.721 369.293C872.584 371.019 873.447 372.961 874.31 375.118C875.174 376.845 875.605 377.923 875.605 378.355V382.886C875.605 383.318 875.174 384.612 874.31 386.77C873.447 388.928 872.584 391.301 871.721 393.891C870.858 396.048 869.995 398.206 869.132 400.364C868.269 402.521 867.837 404.032 867.837 404.895V454.091C867.837 454.954 867.406 456.249 866.543 457.975C865.68 459.701 864.601 461.643 863.306 463.801C862.012 465.527 860.717 467.253 859.422 468.979C858.559 470.705 857.912 471.784 857.48 472.216C857.48 472.647 857.265 474.158 856.833 476.747C856.833 478.905 856.617 481.278 856.186 483.868C855.754 486.457 855.107 488.83 854.244 490.988C853.812 493.146 853.381 494.44 852.949 494.872C849.928 507.818 844.534 521.412 836.766 535.653C829.43 549.894 820.583 563.487 810.226 576.434C799.869 588.949 788.433 600.384 775.918 610.741C763.404 621.099 750.673 629.082 737.727 634.692C736.864 634.692 733.627 635.124 728.017 635.987C722.839 636.85 719.818 637.929 718.955 639.223C712.05 643.107 706.008 649.796 700.83 659.29C696.083 668.784 691.983 676.984 688.531 683.888C688.962 684.751 689.394 685.399 689.825 685.83C690.688 686.693 691.767 687.125 693.062 687.125C708.166 700.071 722.407 713.449 735.785 727.258C749.163 741.068 761.677 756.388 773.329 773.218C773.329 774.081 773.976 776.454 775.271 780.338C776.566 783.791 777.429 785.948 777.86 786.812C777.86 787.675 778.292 789.185 779.155 791.343C780.45 793.5 781.529 795.011 782.392 795.874C785.844 801.916 788.865 807.957 791.454 813.999C794.043 819.609 797.064 825.435 800.516 831.476C803.537 837.518 806.342 842.481 808.932 846.365C811.521 850.248 814.11 853.917 816.699 857.369C819.289 860.821 822.094 864.274 825.115 867.726C828.135 871.178 831.588 875.494 835.471 880.672C845.829 894.482 856.186 909.154 866.543 924.69C877.331 939.794 861.148 961.155 874.958 970.649C883.157 976.691 892.435 981.654 902.792 985.538C913.581 988.99 923.506 993.09 932.569 997.837C941.631 1002.15 949.183 1008.19 955.225 1015.96C961.698 1023.3 964.935 1033.87 964.935 1047.68L993.417 1048.97C993.417 1051.13 993.201 1053.51 992.769 1056.1C992.769 1058.68 991.69 1060.41 989.533 1061.27C988.67 1061.27 985.865 1061.71 981.118 1062.57C976.371 1063.86 972.918 1064.94 970.761 1065.8C969.898 1065.8 967.524 1065.8 963.64 1065.8C959.756 1066.24 955.009 1066.67 949.399 1067.1C944.221 1067.53 938.826 1067.96 933.216 1068.39C928.038 1069.26 923.722 1069.9 920.27 1070.34H918.975C916.386 1070.34 913.797 1069.47 911.208 1067.75C908.618 1066.45 905.813 1064.73 902.792 1062.57C900.203 1060.84 897.182 1059.33 893.73 1058.04C890.278 1056.31 886.178 1055.45 881.431 1055.45Z" fill="#3B3232"/>
<path d="M930.732 674.856C930.732 685.643 933.204 693.508 938.148 698.452C943.092 702.946 949.16 705.868 956.351 707.216C963.991 708.564 972.081 709.238 980.621 709.238C989.61 708.789 997.7 709.014 1004.89 709.913C1005.79 709.913 1007.59 710.812 1010.28 712.609C1012.98 713.958 1014.78 714.632 1015.68 714.632C1024.67 717.328 1031.41 718.902 1035.9 719.351C1040.4 719.8 1047.14 720.025 1056.13 720.025C1064.67 720.025 1073.43 719.8 1082.42 719.351C1091.41 718.452 1094.81 716.654 1106.69 713.958C1119.31 711.261 1129.33 706.991 1136.75 701.148C1144.92 695.306 1149 687.216 1149 676.878C1149 663.845 1145.29 650.361 1137.87 636.428C1131.19 622.046 1114.33 610.81 1103.99 602.72C1101.75 602.72 1098.15 602.495 1093.21 602.046C1088.71 601.596 1083.77 601.147 1078.38 600.698C1072.98 600.248 1067.59 599.799 1062.19 599.349C1057.25 598.45 1053.66 598.001 1051.41 598.001C1050.51 597.551 1049.39 596.877 1048.04 595.978C1045.34 594.181 1043.77 593.282 1043.32 593.282H1031.86C1022.42 593.282 1011.63 595.754 999.497 600.698C987.812 605.192 976.8 611.26 966.463 618.9C956.575 626.541 948.036 635.305 940.845 645.193C934.103 654.631 930.732 664.519 930.732 674.856ZM776.348 841.375C776.348 814.858 779.27 788.116 785.112 761.149C791.405 733.733 802.416 708.789 818.147 686.317C821.293 681.822 825.787 675.98 831.63 668.788C837.473 661.148 843.091 653.732 848.484 646.541C854.327 638.9 859.271 632.159 863.316 626.316C867.361 620.473 869.608 617.102 870.057 616.203C875.9 609.012 883.541 602.271 892.979 595.978C902.417 589.686 912.305 583.619 922.642 577.776C932.98 571.933 943.317 566.315 953.654 560.922C963.991 555.079 972.98 549.461 980.621 544.068C989.61 542.27 998.599 540.921 1007.59 540.023C1016.58 538.674 1025.57 538 1034.55 538C1049.39 538 1062.87 539.573 1075 542.719C1084.44 549.011 1094.56 553.056 1105.34 554.854C1116.13 556.203 1126.69 558.45 1137.03 561.596C1145.57 563.843 1153.88 567.439 1161.97 572.383C1170.51 576.877 1178.15 582.495 1184.89 589.237C1192.08 595.529 1198.6 602.495 1204.44 610.136C1210.74 617.327 1216.13 624.518 1220.62 631.709C1221.07 632.159 1221.75 633.282 1222.65 635.08C1223.55 636.878 1224.44 638.9 1225.34 641.148C1226.69 642.945 1227.82 644.743 1228.71 646.541C1229.61 648.339 1230.06 649.462 1230.06 649.912C1232.31 653.058 1235.23 656.653 1238.83 660.698C1242.87 664.294 1246.69 668.339 1250.29 672.833C1253.88 676.878 1256.8 681.373 1259.05 686.317C1261.75 690.811 1263.1 695.53 1263.1 700.474C1263.1 704.07 1262.87 708.564 1262.42 713.958C1261.97 718.902 1261.07 724.07 1259.73 729.463C1258.38 734.407 1256.36 739.127 1253.66 743.621C1251.41 748.115 1248.27 751.262 1244.22 753.059C1243.32 753.059 1241.52 753.509 1238.83 754.408C1236.58 755.307 1233.88 756.43 1230.74 757.778C1227.59 758.677 1224.44 759.576 1221.3 760.475C1218.6 761.374 1216.8 762.048 1215.91 762.498C1215.46 762.498 1213.88 763.172 1211.19 764.52C1208.94 765.419 1207.59 766.093 1207.14 766.543C1201.3 766.543 1192.31 766.767 1180.17 767.217C1168.49 767.217 1155.01 767.442 1139.72 767.891C1124.89 767.891 1109.16 768.116 1092.53 768.565C1075.9 769.015 1059.95 769.464 1044.67 769.914C1029.83 770.363 1016.35 770.812 1004.22 771.262C992.082 771.262 983.093 771.262 977.25 771.262C975.452 771.262 972.081 771.487 967.137 771.936C962.194 771.936 957.025 772.161 951.632 772.61C946.238 773.06 941.07 773.734 936.126 774.633C931.631 775.082 928.485 775.532 926.687 775.981C915.002 785.419 907.137 796.88 903.092 810.364C899.496 823.397 897.698 837.33 897.698 852.162C897.698 868.342 899.271 882.499 902.417 894.634C905.564 906.32 910.283 919.803 916.575 935.084C917.474 935.983 918.373 937.781 919.272 940.478C920.62 942.725 921.294 944.298 921.294 945.197C921.744 945.646 922.867 946.77 924.665 948.568C926.912 949.916 928.935 951.714 930.732 953.961C932.98 955.759 935.002 957.781 936.8 960.029C938.598 961.826 939.497 963.175 939.497 964.074C939.946 964.523 941.294 966.096 943.542 968.793C946.238 971.04 948.935 973.737 951.632 976.883C954.328 980.029 956.8 983.175 959.047 986.321C961.295 989.018 962.643 990.816 963.092 991.715C963.991 991.715 964.89 992.389 965.789 993.737C967.137 995.085 968.261 995.76 969.16 995.76C973.205 999.355 978.149 1003.62 983.992 1008.57C990.284 1013.51 996.351 1018.23 1002.19 1022.73C1008.94 1028.12 1016.13 1033.51 1023.77 1038.91C1043.09 1044.3 1061.75 1047 1079.72 1047C1097.7 1047 1116.8 1044.3 1137.03 1038.91C1148.71 1031.72 1160.62 1026.32 1172.76 1022.73C1185.34 1018.68 1197.93 1014.64 1210.51 1010.59C1211.41 1009.69 1213.21 1008.79 1215.91 1007.89C1218.6 1006.55 1220.17 1005.42 1220.62 1004.52H1225.34C1228.49 1005.87 1232.31 1007.67 1236.8 1009.92C1241.75 1012.16 1244.22 1013.96 1244.22 1015.31C1245.12 1016.21 1246.02 1019.58 1246.92 1025.42C1248.27 1031.27 1248.94 1035.76 1248.94 1038.91C1248.94 1046.55 1246.69 1055.54 1242.2 1065.87C1238.15 1076.21 1234.11 1083.85 1230.06 1088.79C1230.06 1089.69 1227.37 1091.94 1221.97 1095.54C1217.03 1099.13 1213.21 1101.83 1210.51 1103.63C1196.13 1113.06 1181.97 1123.18 1168.04 1133.96C1154.11 1144.3 1139.05 1152.62 1122.87 1158.91C1121.97 1159.36 1119.72 1159.81 1116.13 1160.26C1112.98 1161.16 1109.61 1161.83 1106.02 1162.28C1102.42 1162.73 1099.05 1163.18 1095.9 1163.63C1092.76 1164.08 1090.96 1164.3 1090.51 1164.3C1081.97 1166.55 1074.55 1168.57 1068.26 1170.37C1062.42 1172.62 1055.45 1173.74 1047.36 1173.74C1039.72 1173.74 1032.76 1172.62 1026.46 1170.37C1020.17 1168.57 1012.98 1166.55 1004.89 1164.3C1000.85 1163.4 995.003 1161.83 987.362 1159.58C980.171 1157.78 972.531 1155.54 964.441 1152.84C956.351 1150.14 948.71 1147.22 941.519 1144.08C934.777 1140.93 929.834 1138.01 926.687 1135.31C925.339 1134.86 922.867 1132.84 919.272 1129.24C915.676 1125.65 911.631 1121.83 907.137 1117.78C903.092 1113.74 899.271 1109.92 895.676 1106.32C892.08 1102.73 889.608 1100.48 888.26 1099.58C887.81 1098.68 885.563 1096.88 881.518 1094.19C877.473 1091.49 875.226 1089.69 874.777 1088.79C872.529 1087.9 869.833 1085.87 866.687 1082.73C863.54 1079.13 861.518 1076.88 860.619 1075.99C859.271 1074.19 856.349 1070.14 851.855 1063.85C847.81 1057.11 843.315 1049.92 838.372 1042.28C833.428 1034.64 828.484 1027.22 823.54 1020.03C819.045 1012.84 815.899 1007.67 814.102 1004.52C807.809 995.535 803.54 986.546 801.292 977.557C799.495 968.568 797.472 958.905 795.225 948.568C795.225 948.118 794.326 946.096 792.528 942.5C791.18 938.455 790.506 935.983 790.506 935.084C784.663 921.601 780.843 906.545 779.045 889.915C777.247 872.836 776.348 856.656 776.348 841.375Z" fill="#3B3232"/>
<path d="M496.219 89.5665C486.611 99.1752 463.961 114.618 448.862 123.54C433.763 133.149 420.036 141.385 407.682 148.248C406.309 148.248 401.505 148.591 393.269 149.277C385.033 150.65 348.314 192.173 346.942 193.546C338.019 197.664 328.067 202.811 317.086 208.988C306.105 215.165 295.123 221.686 284.142 228.549C273.847 236.099 273.847 261.15 263.552 268.699C253.257 276.249 226.147 307.821 219.284 313.998C218.597 314.684 216.881 316.057 214.136 318.116C212.077 320.175 209.675 322.234 206.93 324.293C204.184 327.038 201.782 329.44 199.723 331.499C197.664 334.244 196.635 335.96 196.635 336.647C195.262 338.019 190.458 340.421 182.222 343.853C173.986 347.971 150.65 399.446 149.277 399.446L126.628 422.095C125.942 422.781 124.57 425.527 122.51 430.331C120.451 435.135 118.392 440.283 116.333 445.773C114.274 451.264 112.215 456.412 110.156 461.216C108.097 466.02 106.725 469.109 106.038 470.481C105.352 471.854 104.666 473.227 103.979 474.599C103.979 476.658 103.636 478.374 102.95 479.747C102.264 481.806 101.234 483.865 99.8615 485.924C83.3895 508.573 103.636 556.616 92.655 582.697C81.6737 608.778 99.8615 636.231 99.8615 665.057C99.8615 676.038 87.1644 686.676 92.655 694.912C98.832 703.148 103.293 713.1 106.039 724.768C106.039 725.454 106.382 727.513 107.068 730.945C107.754 735.063 107.411 784.479 108.098 788.597C108.784 792.715 109.47 796.49 110.157 799.921C110.843 803.353 111.529 805.069 112.216 805.069C114.275 810.56 117.363 815.707 121.481 820.511C125.599 826.002 133.149 861.005 137.953 865.809C142.757 871.3 147.562 876.104 152.366 880.222C157.17 885.027 161.288 889.145 164.72 892.576C165.406 893.949 167.465 897.381 170.897 902.871C174.329 908.362 178.104 914.196 182.222 920.373C186.34 927.236 190.114 933.413 193.546 938.904C196.978 945.081 199.38 949.199 200.753 951.258C204.871 956.749 211.391 963.269 220.313 970.819C229.922 978.368 263.552 1001.7 275.906 1030.48C286.887 1038.72 297.526 1073.77 307.821 1079.95C318.116 1086.12 322.577 1111.52 329.44 1114.95C330.126 1114.95 333.558 1115.63 339.735 1117.01C345.912 1119.07 369.934 1112.89 370.62 1112.89C378.856 1117.69 386.063 1122.5 392.24 1127.3C398.417 1132.79 404.25 1138.28 409.741 1143.77C409.741 1143.77 425.184 1123.53 431.361 1128.33C438.224 1133.14 437.538 1129.02 445.774 1132.45C465.677 1140.69 477.345 1139.66 495.19 1139.66C513.034 1140.34 532.595 1142.75 553.871 1146.86C555.244 1148.24 558.332 1149.95 563.137 1152.01C568.627 1154.76 584.413 1177.75 585.786 1177.75H649.615C665.4 1179.12 680.156 1182.55 693.883 1188.04C707.61 1194.22 722.023 1197.31 737.122 1197.31H744.329C753.251 1196.62 765.262 1195.59 780.361 1194.22C795.46 1192.85 810.217 1191.47 824.63 1190.1C839.043 1188.73 851.397 1187.36 861.692 1185.98C872.673 1185.3 878.85 1184.95 880.223 1184.95C881.595 1184.27 885.027 1182.9 890.518 1180.84C896.695 1178.78 946.111 1168.14 952.288 1165.39C959.151 1162.65 965.328 1159.9 970.819 1157.16C976.309 1155.1 980.084 1153.73 982.143 1153.04C1002.05 1146.86 1000.33 1138.28 1022.29 1133.48C1044.26 1128.68 1065.19 1122.5 1085.09 1114.95C1124.9 1103.28 1187.36 1042.51 1218.93 1018.49C1251.19 995.15 1236.77 947.14 1266.29 920.373C1269.03 919.687 1272.12 917.628 1275.55 914.196C1278.98 910.764 1281.38 908.019 1282.76 905.96C1291.68 892.233 1299.92 878.85 1307.47 865.809C1315.02 853.455 1323.25 841.445 1332.17 829.777C1334.23 826.345 1336.63 821.884 1339.38 816.393C1342.81 810.903 1345.21 807.814 1346.59 807.128C1352.76 794.088 1352.76 757.026 1352.76 743.299C1353.45 730.259 1355.17 717.218 1357.91 704.178C1357.91 703.492 1358.94 701.089 1361 696.971C1363.74 693.54 1365.12 691.481 1365.12 690.794C1365.12 689.422 1365.46 687.706 1366.15 685.647C1366.15 684.274 1366.15 682.558 1366.15 680.499C1366.83 679.127 1367.18 677.754 1367.18 676.381C1367.18 674.322 1366.83 671.577 1366.15 668.145C1365.46 664.714 1365.12 661.969 1365.12 659.909C1363.74 658.537 1362.37 656.821 1361 654.762C1358.94 651.33 1357.91 648.928 1357.91 647.555V611.523C1357.91 608.778 1365.12 600.885 1361 591.962C1357.57 583.726 1354.82 577.893 1352.76 574.461C1352.08 572.402 1349.67 568.284 1345.56 562.107C1341.44 556.616 1334.92 505.141 1330.11 498.278C1325.31 491.415 1320.51 484.894 1315.7 478.717C1311.58 472.54 1308.49 468.079 1306.44 465.334C1306.44 463.275 1304.38 460.187 1300.26 456.069C1298.2 454.01 1296.14 452.294 1294.08 450.921C1292.71 448.862 1290.65 444.401 1287.9 437.538C1285.16 430.674 1282.07 423.125 1278.64 414.889C1275.89 406.652 1273.15 399.103 1270.4 392.24C1267.66 385.376 1265.94 381.258 1265.26 379.886C1264.57 378.513 1261.14 375.768 1254.96 371.65C1249.47 367.532 1242.95 362.727 1235.4 357.237C1228.54 351.746 1227.16 309.193 1218.93 303.702C1211.38 298.212 1205.2 293.751 1200.4 290.319C1183.24 280.024 1190.1 253.6 1171.57 243.992C1153.73 235.069 1118.38 150.993 1100.54 142.071C1093.67 138.639 1086.47 136.237 1078.92 134.864C1072.05 133.492 1064.5 132.462 1056.27 131.776C1048.72 131.776 1041.17 131.09 1033.62 129.717C1026.75 128.344 1019.89 125.942 1013.03 122.51C1012.34 121.138 1009.25 118.392 1003.76 114.274C998.272 110.156 994.84 107.411 993.468 106.038C992.781 106.038 990.722 105.695 987.291 105.009C984.545 104.323 981.457 103.636 978.025 102.95C975.28 102.264 972.191 101.577 968.76 100.891C966.014 100.205 964.299 99.8614 963.612 99.8614C947.827 95.0571 908.362 86.8212 892.577 79.2715C876.791 72.4082 861.005 68.9765 845.22 68.9765H832.866C832.179 68.9765 830.12 69.3197 826.689 70.006C823.257 70.6924 819.482 71.3787 815.364 72.065C811.246 73.4377 807.128 74.4672 803.01 75.1535C799.578 76.5262 797.519 77.2125 796.833 77.2125C795.46 77.2125 792.029 76.5262 786.538 75.1535C781.047 74.4672 775.214 73.4377 769.037 72.065C762.86 71.3787 757.026 70.6924 751.535 70.006C746.044 69.3197 742.27 68.9765 740.211 68.9765H698.001C695.942 70.3492 690.795 72.7513 682.559 76.183C675.009 80.301 670.548 83.0463 669.175 84.419C667.116 84.419 662.655 84.419 655.792 84.419C648.928 85.1053 641.379 85.7917 633.143 86.478C625.593 87.1643 618.386 87.8507 611.523 88.537C604.66 89.2233 600.199 89.9097 598.14 90.596C594.708 91.2823 588.874 92.3118 580.638 93.6845C572.402 95.0572 563.48 96.4299 553.871 97.8025C544.949 99.1752 521.957 86.1348 513.721 87.5075C505.485 88.8802 499.651 89.5665 496.219 89.5665ZM12.354 521.956C15.7857 521.27 19.2173 517.152 22.649 509.602C25.3943 502.739 27.4533 497.592 28.826 494.16C29.5123 492.787 30.5418 488.669 31.9145 481.806C33.9735 475.629 36.0325 468.422 38.0915 460.186C40.8368 451.95 42.8958 443.371 44.2685 434.449C46.3275 426.213 47.7002 420.036 48.3865 415.918C49.0728 415.232 49.7592 413.173 50.4455 409.741C51.1319 406.996 51.8182 403.564 52.5045 399.446C53.8772 395.328 54.9067 391.21 55.593 387.092C56.2794 383.66 56.9657 381.258 57.652 379.885C57.652 379.199 59.3679 376.797 62.7995 372.679C66.2312 368.561 70.006 364.1 74.124 359.295C78.242 355.177 82.0169 350.716 85.4485 345.912C89.5665 341.794 91.9687 339.392 92.655 338.705C104.323 323.606 116.334 307.477 128.688 290.319C141.042 273.847 153.739 257.375 166.779 240.903C180.506 224.431 194.232 208.645 207.959 193.546C221.686 178.447 235.756 164.72 250.169 152.366C250.855 150.993 252.914 149.277 256.346 147.218C259.777 145.159 263.552 143.1 267.67 141.041C271.788 138.982 275.563 136.923 278.995 134.864C282.426 132.805 284.485 131.433 285.172 130.746C299.585 121.138 314.341 110.843 329.44 99.8615C344.539 88.8801 360.668 79.9578 377.827 73.0945C379.199 73.0945 384.004 72.065 392.24 70.006C400.476 67.947 405.28 66.9175 406.653 66.9175C424.497 61.4268 441.312 55.2498 457.098 48.3865C472.884 41.5232 489.699 35.6893 507.544 30.885C527.447 25.3943 547.351 20.59 567.255 16.472C587.158 12.354 607.062 7.54966 626.966 2.059C631.77 2.059 639.32 1.71583 649.615 1.0295C659.91 1.0295 670.548 1.0295 681.529 1.0295C693.197 1.0295 704.178 0.686333 714.473 0C724.768 4.50009e-07 731.975 7.65018e-07 736.093 9.45021e-07C742.956 1.24503e-06 752.221 1.65003e-06 763.889 2.16004e-06C775.557 0.686336 786.881 1.0295 797.863 1.0295C809.53 1.0295 819.482 1.0295 827.718 1.02951C836.641 1.71584 841.788 2.05901 843.161 2.05901C878.85 4.11801 913.853 12.0108 948.17 25.7375C982.486 39.4642 1016.8 53.1908 1051.12 66.9175C1051.81 66.9175 1054.21 67.6038 1058.33 68.9765C1062.44 70.3492 1066.56 71.7218 1070.68 73.0945C1075.48 74.4672 1079.95 75.8398 1084.06 77.2125C1088.18 78.5852 1090.93 79.6147 1092.3 80.301C1093.67 80.9873 1096.42 83.3895 1100.54 87.5075C1104.65 92.3119 1109.11 97.1162 1113.92 101.921C1118.72 107.411 1123.18 112.216 1127.3 116.334C1131.42 121.138 1133.82 124.226 1134.51 125.599C1155.79 142.757 1177.75 157.857 1200.4 170.897C1223.73 184.624 1245.35 202.468 1265.26 224.431C1272.12 231.294 1276.92 237.815 1279.67 243.992C1283.1 250.169 1285.85 256.346 1287.9 262.523C1289.96 268.7 1292.02 274.877 1294.08 281.054C1296.83 287.917 1300.6 295.467 1305.41 303.703C1306.09 303.703 1307.81 304.732 1310.55 306.791C1313.99 309.536 1317.42 312.282 1320.85 315.027C1324.28 318.459 1327.37 321.547 1330.11 324.293C1332.86 327.724 1334.92 330.126 1336.29 331.499C1337.66 333.558 1340.41 337.676 1344.53 343.853C1348.65 350.03 1353.11 356.55 1357.91 363.414C1362.72 370.277 1367.18 376.797 1371.29 382.974C1375.41 389.151 1378.5 393.612 1380.56 396.358C1381.25 399.789 1381.93 402.878 1382.62 405.623C1383.31 407.682 1383.65 409.741 1383.65 411.8C1384.33 413.859 1385.02 415.232 1385.71 415.918C1389.83 425.527 1394.97 435.135 1401.15 444.744C1408.01 455.039 1414.53 464.991 1420.71 474.6C1427.57 484.895 1433.06 495.189 1437.18 505.484C1441.99 515.779 1444.39 526.074 1444.39 536.369C1444.39 545.978 1443.02 555.244 1440.27 564.166C1437.53 573.088 1436.15 582.354 1436.15 591.962V602.257C1436.15 604.316 1437.18 608.778 1439.24 615.641C1441.99 623.191 1443.36 627.652 1443.36 629.024C1443.36 629.711 1443.36 632.113 1443.36 636.231C1443.36 640.349 1443.36 644.81 1443.36 649.615C1444.05 655.105 1444.39 660.253 1444.39 665.057C1444.39 669.861 1444.39 673.979 1444.39 677.411C1444.39 687.02 1443.7 698.001 1442.33 710.355C1441.64 722.709 1440.27 735.063 1438.21 747.417C1436.84 760.457 1434.78 772.811 1432.03 784.479C1429.29 796.833 1425.86 807.471 1421.74 816.393C1421.05 818.452 1419.34 822.227 1416.59 827.718C1413.85 833.209 1410.76 839.042 1407.33 845.219C1403.9 852.083 1400.81 858.26 1398.06 863.75C1395.32 869.241 1393.6 873.016 1392.91 875.075C1391.54 876.448 1389.83 880.909 1387.77 888.458C1386.39 896.008 1385.71 900.469 1385.71 901.842C1381.59 916.255 1374.04 929.295 1363.06 940.963C1352.76 952.631 1343.84 963.955 1336.29 974.937C1328.74 984.545 1322.56 995.527 1317.76 1007.88C1313.64 1020.92 1307.81 1033.62 1300.26 1045.97L1293.05 1053.18C1291.68 1053.86 1288.93 1054.55 1284.82 1055.24C1281.38 1056.61 1277.61 1057.98 1273.49 1059.36C1270.06 1060.73 1266.63 1061.76 1263.2 1062.44C1259.76 1063.82 1258.05 1064.85 1258.05 1065.53C1248.44 1071.71 1242.61 1078.23 1240.55 1085.09C1238.49 1092.64 1234.71 1100.88 1229.22 1109.8C1223.73 1118.04 1215.84 1126.62 1205.54 1135.54C1195.25 1145.15 1183.93 1154.07 1171.57 1162.31C1159.22 1171.23 1146.52 1179.12 1133.48 1185.98C1121.13 1193.53 1109.8 1199.02 1099.51 1202.46C1098.13 1203.83 1093.33 1204.86 1085.09 1205.54C1077.54 1206.92 1072.74 1207.6 1070.68 1207.6C1067.93 1209.66 1063.82 1211.38 1058.33 1212.75C1053.52 1214.12 1051.12 1215.5 1051.12 1216.87C1049.06 1218.24 1045.97 1220.64 1041.85 1224.08C1037.74 1228.19 1033.28 1232.65 1028.47 1237.46C1023.67 1242.26 1019.21 1238.49 1015.09 1242.61C1010.97 1246.72 1008.57 1249.81 1007.88 1251.87H999.645L979.055 1254.96C975.623 1252.9 972.878 1251.87 970.819 1251.87H967.73C951.258 1251.87 950.229 1255.65 935.816 1261.14C922.089 1266.63 907.676 1270.75 892.577 1273.49C864.437 1278.3 836.297 1281.73 808.158 1283.79C780.704 1286.53 752.908 1287.9 724.768 1287.9H665.057C662.998 1287.9 657.851 1286.88 649.615 1284.82C642.065 1283.44 637.604 1282.76 636.231 1282.76C634.858 1281.38 632.456 1280.7 629.025 1280.7C626.279 1280.7 622.848 1280.7 618.73 1280.7C609.121 1280.7 599.512 1281.04 589.904 1281.73C580.981 1282.41 575.147 1282.76 572.402 1282.76C571.029 1282.07 568.284 1280.7 564.166 1278.64C560.734 1277.27 556.96 1275.55 552.842 1273.49C548.724 1272.12 544.949 1270.75 541.517 1269.37C538.772 1268 537.056 1267.31 536.37 1267.31C534.311 1267.31 530.193 1266.97 524.016 1266.29C517.839 1265.6 510.975 1264.57 503.426 1263.2C496.562 1262.51 490.042 1261.82 483.865 1261.14C477.688 1260.45 473.913 1260.11 472.541 1260.11C470.482 1260.11 467.736 1259.08 464.305 1257.02C460.873 1255.65 458.128 1254.27 456.069 1252.9C454.696 1252.22 451.951 1250.5 447.833 1247.75C443.715 1245.01 439.253 1241.92 434.449 1238.49C430.331 1235.06 426.213 1231.97 422.095 1229.22C417.977 1226.48 415.232 1224.76 413.859 1224.08C412.486 1223.39 409.741 1222.36 405.623 1220.99C401.505 1219.61 397.044 1217.9 392.24 1215.84C387.435 1214.47 382.974 1212.75 378.856 1210.69C374.738 1209.32 371.993 1208.29 370.62 1207.6C363.757 1204.86 355.864 1201.43 346.942 1197.31C338.019 1193.19 328.754 1188.39 319.145 1182.9C310.223 1178.09 301.3 1172.94 292.378 1167.45C284.142 1161.96 276.936 1157.16 270.759 1153.04C270.072 1151.67 268.013 1149.27 264.581 1145.83C261.836 1142.4 259.777 1139.31 258.405 1136.57C244.678 1120.78 230.608 1105.34 216.195 1090.24C201.782 1075.83 187.369 1061.07 172.956 1045.97C158.543 1031.56 144.473 1016.8 130.747 1001.7C117.02 986.604 104.323 970.475 92.655 953.317C91.2823 937.531 87.8507 925.177 82.36 916.255C76.8693 908.019 71.0355 896.694 64.8585 882.281C63.4858 880.222 61.77 876.448 59.711 870.957C58.3383 866.153 57.652 862.035 57.652 858.603C49.416 831.15 41.5232 804.039 33.9735 777.272C27.1102 750.505 19.9037 723.052 12.354 694.912C11.6677 687.363 9.60867 680.156 6.177 673.293C2.059 667.116 -3.30006e-07 660.253 0 652.703L3.15007e-07 645.496C3.75008e-07 644.124 1.0295 640.349 3.0885 634.172C5.1475 628.681 6.177 625.25 6.177 623.877C6.86334 620.445 7.54967 613.925 8.236 604.316C8.92234 594.708 9.60867 584.413 10.295 573.431C10.9813 562.45 11.6677 552.155 12.354 542.546C12.354 532.938 12.354 526.074 12.354 521.956Z" fill="#3B3232"/>
</svg>
