<svg width="5226" height="555" viewBox="0 0 5226 555" fill="none" xmlns="http://www.w3.org/2000/svg">
<path d="M2937.51 171.075C2937.51 178.028 2939.11 183.098 2942.3 186.285C2945.48 189.182 2949.39 191.065 2954.03 191.934C2958.95 192.803 2964.17 193.238 2969.67 193.238C2975.47 192.948 2980.68 193.093 2985.32 193.672C2985.9 193.672 2987.05 194.252 2988.79 195.411C2990.53 196.28 2991.69 196.714 2992.27 196.714C2998.06 198.453 3002.41 199.467 3005.31 199.756C3008.2 200.046 3012.55 200.191 3018.34 200.191C3023.85 200.191 3029.5 200.046 3035.29 199.756C3041.09 199.177 3046.3 198.018 3050.94 196.28C3055.86 194.542 3059.77 191.789 3062.67 188.023C3065.86 184.257 3067.45 179.042 3067.45 172.379C3067.45 163.977 3066 155.286 3063.1 146.305C3060.5 137.034 3055.86 129.792 3049.2 124.577C3047.75 124.577 3045.43 124.432 3042.24 124.142C3039.35 123.853 3036.16 123.563 3032.68 123.273C3029.21 122.984 3025.73 122.694 3022.25 122.404C3019.07 121.825 3016.75 121.535 3015.3 121.535C3014.72 121.245 3014 120.811 3013.13 120.231C3011.39 119.073 3010.38 118.493 3010.09 118.493H3002.7C2996.62 118.493 2989.66 120.087 2981.84 123.273C2974.31 126.17 2967.21 130.081 2960.55 135.007C2954.17 139.932 2948.67 145.581 2944.03 151.954C2939.69 158.038 2937.51 164.412 2937.51 171.075ZM2838 278.412C2838 261.319 2839.88 244.082 2843.65 226.699C2847.71 209.027 2854.8 192.948 2864.94 178.463C2866.97 175.566 2869.87 171.799 2873.63 167.164C2877.4 162.239 2881.02 157.459 2884.5 152.824C2888.26 147.899 2891.45 143.553 2894.06 139.787C2896.67 136.02 2898.11 133.848 2898.4 133.268C2902.17 128.633 2907.1 124.287 2913.18 120.231C2919.26 116.175 2925.64 112.264 2932.3 108.498C2938.96 104.732 2945.63 101.111 2952.29 97.6341C2958.95 93.8679 2964.75 90.2466 2969.67 86.7701C2975.47 85.6112 2981.26 84.7421 2987.05 84.1627C2992.85 83.2936 2998.64 82.859 3004.44 82.859C3014 82.859 3022.69 83.873 3030.51 85.9009C3036.6 89.9569 3043.11 92.5642 3050.07 93.7231C3057.02 94.5922 3063.83 96.0407 3070.49 98.0687C3076 99.5172 3081.36 101.835 3086.57 105.022C3092.07 107.919 3097 111.54 3101.34 115.886C3105.98 119.942 3110.18 124.432 3113.95 129.357C3118 133.993 3121.48 138.628 3124.38 143.263C3124.67 143.553 3125.1 144.277 3125.68 145.436C3126.26 146.595 3126.84 147.899 3127.42 149.347C3128.29 150.506 3129.01 151.665 3129.59 152.824C3130.17 153.982 3130.46 154.707 3130.46 154.996C3131.91 157.024 3133.79 159.342 3136.11 161.949C3138.72 164.267 3141.18 166.874 3143.5 169.772C3145.82 172.379 3147.7 175.276 3149.15 178.463C3150.89 181.36 3151.75 184.402 3151.75 187.589C3151.75 189.906 3151.61 192.803 3151.32 196.28C3151.03 199.467 3150.45 202.798 3149.58 206.275C3148.71 209.462 3147.41 212.503 3145.67 215.401C3144.22 218.298 3142.19 220.326 3139.59 221.484C3139.01 221.484 3137.85 221.774 3136.11 222.354C3134.66 222.933 3132.92 223.657 3130.9 224.526C3128.87 225.106 3126.84 225.685 3124.81 226.265C3123.07 226.844 3121.91 227.279 3121.33 227.568C3121.05 227.568 3120.03 228.003 3118.29 228.872C3116.84 229.451 3115.98 229.886 3115.69 230.176C3111.92 230.176 3106.13 230.321 3098.3 230.61C3090.77 230.61 3082.08 230.755 3072.23 231.045C3062.67 231.045 3052.53 231.19 3041.81 231.479C3031.09 231.769 3020.81 232.059 3010.96 232.349C3001.4 232.638 2992.7 232.928 2984.88 233.218C2977.06 233.218 2971.27 233.218 2967.5 233.218C2966.34 233.218 2964.17 233.363 2960.98 233.652C2957.79 233.652 2954.46 233.797 2950.99 234.087C2947.51 234.376 2944.18 234.811 2940.99 235.39C2938.09 235.68 2936.07 235.97 2934.91 236.26C2927.38 242.343 2922.31 249.731 2919.7 258.422C2917.38 266.824 2916.22 275.805 2916.22 285.365C2916.22 295.795 2917.24 304.92 2919.26 312.743C2921.29 320.275 2924.33 328.966 2928.39 338.816C2928.97 339.396 2929.55 340.555 2930.13 342.293C2931 343.741 2931.43 344.755 2931.43 345.335C2931.72 345.624 2932.44 346.349 2933.6 347.508C2935.05 348.377 2936.36 349.536 2937.51 350.984C2938.96 352.143 2940.27 353.447 2941.43 354.895C2942.58 356.054 2943.16 356.923 2943.16 357.503C2943.45 357.792 2944.32 358.806 2945.77 360.544C2947.51 361.993 2949.25 363.731 2950.99 365.759C2952.72 367.787 2954.32 369.815 2955.77 371.843C2957.22 373.581 2958.08 374.74 2958.37 375.32C2958.95 375.32 2959.53 375.754 2960.11 376.623C2960.98 377.492 2961.71 377.927 2962.28 377.927C2964.89 380.245 2968.08 382.997 2971.85 386.184C2975.9 389.37 2979.81 392.412 2983.58 395.309C2987.92 398.786 2992.56 402.262 2997.48 405.739C3009.94 409.215 3021.96 410.954 3033.55 410.954C3045.14 410.954 3057.45 409.215 3070.49 405.739C3078.02 401.104 3085.7 397.627 3093.52 395.309C3101.63 392.702 3109.75 390.095 3117.86 387.487C3118.44 386.908 3119.6 386.329 3121.33 385.749C3123.07 384.88 3124.09 384.156 3124.38 383.576H3127.42C3129.45 384.445 3131.91 385.604 3134.81 387.053C3137.99 388.501 3139.59 389.66 3139.59 390.529C3140.17 391.109 3140.75 393.282 3141.32 397.048C3142.19 400.814 3142.63 403.711 3142.63 405.739C3142.63 410.664 3141.18 416.458 3138.28 423.121C3135.68 429.785 3133.07 434.71 3130.46 437.897C3130.46 438.476 3128.72 439.925 3125.25 442.242C3122.06 444.56 3119.6 446.298 3117.86 447.457C3108.59 453.541 3099.46 460.059 3090.48 467.012C3081.5 473.676 3071.79 479.035 3061.37 483.091C3060.79 483.381 3059.34 483.671 3057.02 483.96C3054.99 484.54 3052.82 484.974 3050.5 485.264C3048.18 485.554 3046.01 485.843 3043.98 486.133C3041.95 486.423 3040.8 486.568 3040.51 486.568C3035 488.016 3030.22 489.32 3026.17 490.479C3022.4 491.927 3017.91 492.651 3012.69 492.651C3007.77 492.651 3003.28 491.927 2999.22 490.479C2995.17 489.32 2990.53 488.016 2985.32 486.568C2982.71 485.988 2978.94 484.974 2974.02 483.526C2969.38 482.367 2964.46 480.918 2959.24 479.18C2954.03 477.442 2949.1 475.559 2944.47 473.531C2940.12 471.503 2936.94 469.62 2934.91 467.881C2934.04 467.592 2932.44 466.288 2930.13 463.97C2927.81 461.653 2925.2 459.19 2922.31 456.583C2919.7 453.975 2917.24 451.513 2914.92 449.195C2912.6 446.878 2911.01 445.429 2910.14 444.85C2909.85 444.27 2908.4 443.111 2905.79 441.373C2903.18 439.635 2901.74 438.476 2901.45 437.897C2900 437.317 2898.26 436.013 2896.23 433.986C2894.2 431.668 2892.9 430.219 2892.32 429.64C2891.45 428.481 2889.57 425.874 2886.67 421.818C2884.06 417.472 2881.17 412.837 2877.98 407.912C2874.79 402.987 2871.61 398.207 2868.42 393.571C2865.52 388.936 2863.49 385.604 2862.34 383.576C2858.28 377.782 2855.53 371.988 2854.08 366.194C2852.92 360.4 2851.62 354.171 2850.17 347.508C2850.17 347.218 2849.59 345.914 2848.43 343.597C2847.56 340.989 2847.13 339.396 2847.13 338.816C2843.36 330.125 2840.9 320.42 2839.74 309.701C2838.58 298.692 2838 288.262 2838 278.412Z" fill="#38383B"/>
<path d="M3230.6 420.514V410.085C3230.6 409.505 3231.47 407.622 3233.21 404.435C3234.95 401.248 3235.82 399.365 3235.82 398.786C3237.26 395.309 3238.57 391.543 3239.73 387.487C3240.89 383.142 3242.19 379.086 3243.64 375.32C3245.38 371.553 3247.55 368.367 3250.16 365.759C3252.76 363.152 3256.53 361.848 3261.46 361.848H3265.8C3266.67 361.848 3267.83 363.152 3269.28 365.759C3270.73 368.367 3271.88 370.395 3272.75 371.843C3276.52 378.796 3280.58 386.763 3284.92 395.744C3289.56 404.435 3294.77 412.547 3300.57 420.08C3306.36 427.612 3313.17 433.986 3320.99 439.2C3328.81 444.415 3337.79 447.022 3347.93 447.022C3351.7 447.022 3356.48 445.719 3362.27 443.111C3368.07 440.214 3373.72 436.883 3379.22 433.116C3385.02 429.35 3390.09 425.439 3394.43 421.383C3399.07 417.038 3401.82 413.271 3402.69 410.085C3403.85 406.318 3404.86 402.842 3405.73 399.655C3406.6 396.468 3407.03 393.137 3407.03 389.66C3407.03 383.866 3405.59 377.927 3402.69 371.843C3402.69 368.367 3399.65 363.586 3393.56 357.503C3387.77 351.419 3380.96 345.48 3373.14 339.685C3365.32 333.602 3357.78 328.097 3350.54 323.172C3343.3 318.247 3338.37 315.06 3335.77 313.612C3332.58 312.453 3329.25 311.873 3325.77 311.873C3322.58 311.584 3319.83 310.425 3317.51 308.397C3317.51 307.818 3316.79 306.948 3315.34 305.79C3314.18 304.631 3312.88 303.472 3311.43 302.313C3310.27 300.865 3308.97 299.561 3307.52 298.402C3306.36 297.243 3305.78 296.664 3305.78 296.664C3305.2 295.505 3303.32 293.912 3300.13 291.884C3296.94 289.566 3294.77 287.828 3293.61 286.669L3287.53 283.627L3263.63 259.726C3261.6 254.801 3259.86 249.876 3258.41 244.951C3257.25 240.026 3255.95 234.956 3254.5 229.741C3254.21 228.293 3253.63 226.265 3252.76 223.657C3252.18 221.05 3251.61 218.587 3251.03 216.27C3250.45 213.662 3249.87 211.49 3249.29 209.751C3248.71 207.723 3248.42 206.564 3248.42 206.275C3247.84 198.453 3248.42 190.341 3250.16 181.939C3251.89 173.248 3254.5 164.991 3257.98 157.169C3261.74 149.347 3266.09 142.104 3271.02 135.441C3275.94 128.488 3281.45 122.839 3287.53 118.493C3288.11 117.914 3289.7 117.334 3292.31 116.755C3294.92 115.886 3296.65 115.161 3297.52 114.582C3301.87 112.844 3306.5 110.236 3311.43 106.76C3316.64 102.994 3322 99.3724 3327.51 95.8959C3333.01 92.1297 3338.52 88.9429 3344.02 86.3355C3349.53 83.7281 3354.74 82.4244 3359.67 82.4244C3364.59 82.4244 3370.24 83.5833 3376.61 85.9009C3382.99 87.9289 3388.35 89.6671 3392.69 91.1157C3400.52 93.7231 3408.05 96.1856 3415.29 98.5033C3422.53 100.821 3428.91 103.863 3434.41 107.629C3440.21 111.395 3444.7 116.175 3447.88 121.97C3451.36 127.764 3453.1 135.296 3453.1 144.567C3453.1 147.754 3452.66 152.389 3451.79 158.473C3451.21 164.267 3450.06 170.061 3448.32 175.855C3446.58 181.36 3444.12 186.285 3440.93 190.631C3437.74 194.686 3433.69 196.714 3428.76 196.714H3426.15C3425.57 196.135 3424.56 194.107 3423.11 190.631C3421.66 187.154 3420.65 185.126 3420.07 184.547C3416.01 177.304 3411.52 170.351 3406.6 163.688C3401.96 157.024 3396.6 151.23 3390.52 146.305C3384.73 141.09 3378.35 137.034 3371.4 134.137C3364.45 131.24 3356.62 129.792 3347.93 129.792C3345.33 129.792 3342.28 129.937 3338.81 130.226C3335.33 130.516 3332.29 131.53 3329.68 133.268C3319.83 140.801 3312.3 148.768 3307.08 157.169C3302.16 165.571 3299.7 176.145 3299.7 188.892C3299.7 195.845 3301.29 202.219 3304.48 208.013C3307.66 213.517 3311.72 218.443 3316.64 222.788C3321.57 227.134 3327.07 230.9 3333.16 234.087C3339.24 237.274 3345.18 239.736 3350.98 241.474C3351.26 241.764 3352.28 242.054 3354.02 242.343C3355.76 242.633 3357.64 242.923 3359.67 243.213C3361.98 243.502 3364.01 243.792 3365.75 244.082C3367.49 244.371 3368.5 244.516 3368.79 244.516C3369.37 244.516 3370.39 245.096 3371.83 246.255C3373.28 247.124 3374.3 247.558 3374.88 247.558C3381.25 252.194 3387.77 256.829 3394.43 261.464C3401.38 265.81 3408.05 270.445 3414.42 275.37C3421.08 280.006 3427.46 285.075 3433.54 290.58C3439.63 296.084 3445.13 302.023 3450.06 308.397C3450.35 308.687 3450.92 309.701 3451.79 311.439C3452.66 313.177 3453.53 315.205 3454.4 317.523C3455.56 319.551 3456.57 321.724 3457.44 324.041C3458.31 326.069 3459.04 327.663 3459.62 328.821C3459.62 329.401 3459.62 330.56 3459.62 332.298C3459.91 334.036 3460.2 335.919 3460.48 337.947C3460.77 339.975 3461.06 342.003 3461.35 344.031C3461.93 345.769 3462.37 346.783 3462.66 347.073C3463.82 350.55 3465.26 353.736 3467 356.633C3468.74 359.241 3470.33 361.848 3471.78 364.456C3473.52 367.063 3474.97 369.67 3476.13 372.278C3477.29 374.885 3477.87 377.927 3477.87 381.403C3477.87 390.674 3475.84 399.221 3471.78 407.043C3467.73 414.865 3463.67 423.121 3459.62 431.813C3455.85 437.897 3450.92 443.836 3444.84 449.63C3438.76 455.424 3433.69 460.204 3429.63 463.97C3418.04 474.11 3404.72 481.208 3389.65 485.264C3374.59 489.61 3360.1 491.782 3346.19 491.782C3335.77 491.782 3325.19 491.203 3314.47 490.044C3303.75 488.885 3293.76 486.278 3284.49 482.222C3284.2 481.932 3283.18 481.353 3281.44 480.484C3279.71 479.325 3277.68 478.166 3275.36 477.007C3273.33 475.559 3271.31 474.255 3269.28 473.096C3267.54 471.937 3266.38 471.213 3265.8 470.923C3260.01 467.447 3254.79 464.405 3250.16 461.798C3245.81 458.9 3242.19 455.714 3239.29 452.237C3236.4 448.761 3234.22 444.56 3232.77 439.635C3231.33 434.71 3230.6 428.336 3230.6 420.514Z" fill="#38383B"/>
<path d="M3593.65 413.127V364.89C3593.65 364.6 3593.8 363.586 3594.09 361.848C3594.38 360.11 3594.67 358.227 3594.96 356.199C3595.25 353.881 3595.54 351.564 3595.82 349.246C3596.11 346.638 3596.26 344.611 3596.26 343.162C3596.84 342.583 3597.56 340.265 3598.43 336.209C3599.3 332.153 3599.74 329.401 3599.74 327.952V271.894C3599.74 271.025 3600.03 268.997 3600.61 265.81C3601.47 262.333 3602.2 260.305 3602.78 259.726V187.589C3602.78 185.85 3602.2 184.257 3601.04 182.808C3599.88 181.36 3598.43 180.201 3596.69 179.332C3594.96 178.173 3593.22 177.304 3591.48 176.725C3590.03 175.855 3588.87 175.131 3588 174.552C3584.24 173.103 3580.62 172.234 3577.14 171.944C3573.95 171.365 3571.05 170.641 3568.45 169.772C3565.84 168.613 3563.81 167.019 3562.36 164.991C3560.92 162.674 3560.19 158.907 3560.19 153.693V148.478C3560.19 147.319 3560.34 146.015 3560.63 144.567C3560.92 144.277 3561.78 143.408 3563.23 141.96C3564.68 140.511 3566.27 139.062 3568.01 137.614C3570.04 135.876 3571.78 134.282 3573.23 132.834C3574.68 131.385 3575.55 130.371 3575.84 129.792C3576.7 129.212 3577.72 128.198 3578.88 126.75C3580.04 125.012 3581.19 123.418 3582.35 121.97C3583.51 120.231 3584.53 118.638 3585.4 117.189C3586.55 115.741 3587.42 114.872 3588 114.582C3594.96 107.05 3600.61 100.386 3604.95 94.5922C3609.59 88.5083 3614.95 83.4384 3621.03 79.3825C3624.8 76.1957 3629 72.5744 3633.63 68.5184C3638.56 64.1728 3643.34 62 3647.97 62C3655.5 62 3661.3 63.7383 3665.35 67.2148C3669.41 70.4015 3672.45 74.6023 3674.48 79.8171C3676.8 84.7421 3678.54 90.2466 3679.7 96.3304C3680.85 102.414 3682.3 108.208 3684.04 113.713H3687.95C3689.69 113.713 3691.28 113.858 3692.73 114.148C3694.47 114.437 3696.06 114.582 3697.51 114.582C3698.67 114.582 3699.83 114.437 3700.99 114.148C3702.44 113.858 3703.74 113.568 3704.9 113.278C3707.22 112.409 3709.39 111.975 3711.42 111.975C3713.45 111.685 3715.62 111.54 3717.94 111.54C3721.12 111.54 3724.46 111.685 3727.93 111.975C3731.41 112.264 3734.88 112.409 3738.36 112.409C3742.13 112.409 3746.33 113.278 3750.96 115.017C3755.89 116.465 3760.52 118.493 3764.87 121.101C3769.22 123.708 3772.84 126.75 3775.73 130.226C3778.63 133.703 3780.08 137.324 3780.08 141.09C3780.08 143.408 3778.92 146.015 3776.6 148.913C3774.58 151.81 3771.97 154.562 3768.78 157.169C3765.59 159.777 3762.26 161.949 3758.79 163.688C3755.6 165.426 3752.7 166.295 3750.09 166.295H3744.01C3743.72 166.295 3742.85 166.295 3741.4 166.295C3739.95 166.005 3738.36 165.86 3736.62 165.86C3734.88 165.86 3733.29 165.86 3731.84 165.86C3730.39 165.86 3729.53 165.86 3729.24 165.86H3687.95C3680.13 171.075 3674.63 177.304 3671.44 184.547C3668.83 192.079 3667.38 199.901 3667.09 208.013C3667.09 216.125 3666.8 224.382 3666.22 232.783C3664.78 238.577 3663.33 244.661 3661.88 251.035C3660.72 257.119 3660.14 263.492 3660.14 270.155C3660.14 274.791 3660.57 279.571 3661.44 284.496C3662.6 289.131 3663.18 293.912 3663.18 298.837C3663.18 302.023 3662.46 305.355 3661.01 308.832C3659.85 312.308 3659.27 315.929 3659.27 319.696C3659.27 322.013 3659.42 323.751 3659.71 324.91C3659.71 326.069 3659.85 327.083 3660.14 327.952C3660.14 328.821 3660.43 330.415 3661.01 332.732C3661.59 334.76 3662.31 336.933 3663.18 339.251C3664.05 341.569 3664.78 343.886 3665.35 346.204C3665.93 348.232 3666.22 349.536 3666.22 350.115C3666.22 350.694 3666.51 352.722 3667.09 356.199C3667.67 359.386 3668.25 362.862 3668.83 366.628C3669.7 370.395 3670.28 373.871 3670.57 377.058C3671.15 380.245 3671.44 382.273 3671.44 383.142C3672.02 385.17 3672.45 387.487 3672.74 390.095C3673.32 392.702 3674.05 395.309 3674.92 397.917C3675.78 400.524 3676.94 402.987 3678.39 405.304C3679.84 407.332 3681.72 408.926 3684.04 410.085C3685.2 410.374 3686.79 410.954 3688.82 411.823C3691.14 412.692 3693.31 413.706 3695.34 414.865C3697.66 415.734 3699.69 416.603 3701.42 417.472C3703.45 418.341 3704.61 418.921 3704.9 419.21H3741.4C3745.17 417.182 3748.65 415.154 3751.83 413.127C3755.31 410.809 3758.79 408.781 3762.26 407.043C3765.74 405.015 3769.36 403.421 3773.13 402.262C3776.89 400.814 3781.09 400.09 3785.73 400.09C3790.07 400.09 3792.68 401.828 3793.55 405.304C3794.71 408.491 3795.29 412.113 3795.29 416.168V422.252C3795.29 434.13 3791.52 444.125 3783.99 452.237C3776.46 460.349 3767.19 466.867 3756.18 471.792C3745.46 476.718 3734.02 480.194 3721.85 482.222C3709.97 484.25 3699.4 485.264 3690.13 485.264C3686.65 485.264 3682.74 485.119 3678.39 484.829C3674.34 484.829 3669.99 484.395 3665.35 483.526C3661.01 482.946 3656.66 482.077 3652.32 480.918C3647.97 479.47 3644.21 477.587 3641.02 475.269L3629.72 463.97C3623.06 456.148 3616.39 448.181 3609.73 440.069C3603.07 431.958 3597.71 422.977 3593.65 413.127Z" fill="#38383B"/>
<path d="M3953.66 371.843C3953.66 377.927 3955.69 382.707 3959.74 386.184C3964.09 389.37 3969.16 391.833 3974.95 393.571C3980.75 395.309 3986.83 396.613 3993.21 397.482C3999.58 398.062 4004.79 398.931 4008.85 400.09H4009.29C4015.08 400.09 4021.16 398.351 4027.54 394.875C4033.91 391.109 4038.4 387.198 4041.01 383.142C4041.88 381.693 4043.04 379.665 4044.48 377.058C4045.93 374.45 4047.24 371.843 4048.4 369.236C4049.84 366.628 4051 364.311 4051.87 362.283C4053.03 360.255 4053.61 358.951 4053.61 358.372V301.009L4051 294.926C4050.42 294.926 4049.12 294.926 4047.09 294.926C4045.35 294.636 4044.05 294.491 4043.18 294.491C4035.36 294.491 4028.12 296.519 4021.45 300.575C4014.79 304.341 4008.27 308.542 4001.9 313.177C4000.45 314.046 3998.42 315.495 3995.81 317.523C3993.21 319.261 3990.6 321.144 3987.99 323.172C3985.67 325.2 3983.5 327.083 3981.47 328.821C3979.73 330.27 3978.72 330.994 3978.43 330.994C3978.14 331.284 3977.42 332.153 3976.26 333.602C3975.1 335.05 3973.8 336.788 3972.35 338.816C3971.19 340.555 3970.03 342.438 3968.87 344.466C3967.71 346.494 3966.7 348.087 3965.83 349.246C3965.25 349.825 3964.67 350.839 3964.09 352.288C3963.8 353.736 3963.66 354.75 3963.66 355.33C3963.08 355.619 3962.21 356.344 3961.05 357.503C3960.18 358.661 3959.17 359.965 3958.01 361.414C3957.14 362.572 3956.27 363.876 3955.4 365.325C3954.53 366.483 3953.95 367.353 3953.66 367.932V371.843ZM4046.22 436.158C4043.62 436.158 4041.15 436.883 4038.84 438.331C4036.52 439.78 4034.2 441.518 4031.88 443.546C4029.85 445.574 4027.83 447.747 4025.8 450.064C4024.06 452.092 4022.32 453.831 4020.58 455.279C4020.29 455.279 4019.42 455.569 4017.98 456.148C4016.53 456.728 4015.22 457.452 4014.07 458.321C4008.85 460.349 4003.78 462.812 3998.86 465.709C3993.93 468.316 3989.01 470.923 3984.08 473.531C3979.16 475.848 3973.94 477.876 3968.44 479.615C3963.22 481.353 3957.86 482.222 3952.36 482.222H3938.89C3938.31 481.643 3936.71 481.063 3934.11 480.484C3931.79 479.615 3930.34 478.89 3929.76 478.311C3929.47 478.311 3928.6 478.311 3927.15 478.311C3925.7 478.021 3924.11 477.732 3922.37 477.442C3920.63 477.152 3918.9 476.862 3917.16 476.573C3915.71 476.283 3914.84 475.848 3914.55 475.269C3913.1 474.979 3910.78 474.545 3907.6 473.965C3904.41 473.386 3902.53 473.096 3901.95 473.096C3898.47 470.778 3894.71 466.867 3890.65 461.363C3886.59 455.859 3882.83 449.775 3879.35 443.111C3875.87 436.448 3872.83 429.785 3870.23 423.121C3867.91 416.458 3866.75 410.809 3866.75 406.174C3866.75 399.51 3867.91 392.992 3870.23 386.618C3872.54 380.245 3874.28 374.016 3875.44 367.932C3884.13 354.895 3892.68 343.597 3901.08 334.036C3909.48 324.476 3920.34 315.785 3933.67 307.962C3933.67 307.673 3934.4 307.238 3935.84 306.659C3937.29 305.79 3938.74 305.065 3940.19 304.486C3941.93 303.617 3943.52 302.892 3944.97 302.313C3946.71 301.734 3947.87 301.299 3948.45 301.009C3951.34 299.561 3954.39 297.678 3957.57 295.36C3960.76 292.753 3963.95 290.29 3967.13 287.973C3970.32 285.365 3973.36 283.192 3976.26 281.454C3979.16 279.426 3981.76 278.122 3984.08 277.543C3984.66 277.253 3986.11 276.964 3988.43 276.674C3991.03 276.384 3993.64 276.094 3996.25 275.805C3999.15 275.515 4001.75 275.225 4004.07 274.936C4006.39 274.646 4007.98 274.356 4008.85 274.067C4009.14 274.067 4010.44 273.053 4012.76 271.025C4015.08 268.997 4016.53 267.983 4017.11 267.983C4017.98 267.693 4020.15 266.679 4023.63 264.941C4027.39 263.202 4031.3 261.319 4035.36 259.291C4039.41 257.263 4043.18 255.38 4046.66 253.642C4050.42 251.614 4052.74 250.31 4053.61 249.731C4056.51 247.993 4058.83 245.53 4060.56 242.343C4062.3 239.157 4063.46 235.825 4064.04 232.349C4064.91 228.872 4065.34 225.396 4065.34 221.919C4065.63 218.443 4065.78 215.256 4065.78 212.359C4065.78 198.453 4063.9 185.85 4060.13 174.552C4056.65 163.253 4050.28 152.099 4041.01 141.09C4040.43 139.642 4038.84 137.904 4036.23 135.876C4033.91 133.848 4032.46 132.834 4031.88 132.834H4005.81C4002.33 136.02 3998.28 138.918 3993.64 141.525C3989.01 143.843 3985.82 146.885 3984.08 150.651C3980.6 157.024 3976.98 163.832 3973.22 171.075C3969.74 178.318 3967.28 185.561 3965.83 192.803C3964.96 193.672 3963.22 195.121 3960.61 197.149C3958.01 198.887 3955.25 200.625 3952.36 202.364C3949.75 204.102 3947.14 205.84 3944.54 207.578C3941.93 209.027 3940.04 210.041 3938.89 210.62C3938.6 210.62 3937.73 210.765 3936.28 211.055C3934.83 211.055 3933.09 211.055 3931.06 211.055C3929.33 211.055 3927.44 211.2 3925.41 211.49C3923.39 211.49 3921.79 211.49 3920.63 211.49C3920.05 211.49 3918.9 211.49 3917.16 211.49C3915.42 211.2 3913.54 211.055 3911.51 211.055C3909.48 211.055 3907.6 211.055 3905.86 211.055C3904.12 210.765 3902.82 210.62 3901.95 210.62C3899.05 208.882 3896.01 206.854 3892.82 204.537C3889.64 201.929 3886.74 199.322 3884.13 196.714C3881.52 193.817 3879.35 190.775 3877.61 187.589C3875.87 184.112 3875.01 180.346 3875.01 176.29C3875.01 171.944 3875.44 168.178 3876.31 164.991C3877.47 161.805 3878.77 158.763 3880.22 155.866C3881.96 152.968 3883.99 150.216 3886.3 147.609C3888.62 144.712 3891.08 141.67 3893.69 138.483C3896.01 135.296 3897.75 132.689 3898.91 130.661C3900.35 128.343 3902.67 126.026 3905.86 123.708C3907.6 122.259 3909.19 121.39 3910.64 121.101C3912.09 120.521 3913.54 120.231 3914.99 120.231C3916.72 119.942 3918.46 119.652 3920.2 119.362C3921.94 119.073 3924.11 118.493 3926.72 117.624C3927.88 117.334 3930.48 116.175 3934.54 114.148C3938.6 111.83 3942.94 109.512 3947.58 107.195C3952.5 104.587 3956.99 102.269 3961.05 100.242C3965.1 97.9238 3967.71 96.4753 3968.87 95.8959C3969.45 95.6062 3970.61 95.4613 3972.35 95.4613C3974.09 95.1716 3975.82 94.8819 3977.56 94.5922C3979.59 94.3025 3981.47 94.1576 3983.21 94.1576C3984.95 93.8679 3986.11 93.7231 3986.69 93.7231C3994.8 91.6951 4002.48 89.0877 4009.72 85.9009C4017.25 82.4244 4025.22 80.6862 4033.62 80.6862H4038.84C4051 82.7141 4063.9 85.4664 4077.51 88.9429C4091.13 92.1297 4103.3 97.6341 4114.01 105.456C4114.88 106.325 4116.19 107.629 4117.93 109.367C4119.95 110.816 4121.84 112.554 4123.58 114.582C4125.6 116.61 4127.34 118.493 4128.79 120.231C4130.24 121.68 4131.11 122.839 4131.4 123.708C4131.69 123.998 4131.98 125.012 4132.27 126.75C4132.85 128.488 4133.28 130.371 4133.57 132.399C4133.86 134.137 4134 136.02 4134 138.048C4134.29 139.787 4134.44 140.801 4134.44 141.09C4134.44 141.96 4134.87 143.698 4135.74 146.305C4136.9 148.913 4138.06 151.81 4139.22 154.996C4140.38 158.183 4141.39 161.08 4142.26 163.688C4143.42 166.295 4144 168.033 4144 168.902C4144 168.902 4144 171.365 4144 176.29C4144.29 181.215 4144.43 187.009 4144.43 193.672C4144.72 200.336 4145.01 207.144 4145.3 214.097C4145.59 221.05 4145.88 226.699 4146.17 231.045V234.956C4145.59 235.825 4145.16 236.694 4144.87 237.563C4144.29 239.302 4144 240.46 4144 241.04C4143.42 241.619 4142.7 243.213 4141.83 245.82C4141.25 248.138 4140.96 249.441 4140.96 249.731C4140.67 250.6 4140.38 253.352 4140.09 257.988C4139.8 262.333 4139.51 267.114 4139.22 272.328C4138.93 277.253 4138.64 282.034 4138.35 286.669C4138.06 291.014 4137.92 293.767 4137.92 294.926C4137.92 295.795 4137.34 297.388 4136.18 299.706C4135.31 302.023 4134.73 303.472 4134.44 304.051C4133.57 309.266 4132.99 313.901 4132.7 317.957C4132.41 321.724 4132.12 325.49 4131.83 329.256C4131.54 333.022 4131.4 336.788 4131.4 340.555C4131.4 344.321 4131.4 348.666 4131.4 353.591V376.189C4131.98 377.637 4132.99 380.245 4134.44 384.011C4136.18 387.777 4137.34 390.24 4137.92 391.398C4139.94 396.323 4143.13 399.945 4147.48 402.262C4152.11 404.29 4157.18 405.884 4162.69 407.043C4168.48 407.912 4174.27 408.636 4180.07 409.215C4185.86 409.795 4191.22 410.809 4196.15 412.257C4201.07 413.416 4205.13 415.589 4208.31 418.776C4211.5 421.963 4213.09 426.598 4213.09 432.682C4213.09 437.317 4210.78 442.822 4206.14 449.195C4201.8 455.569 4196.44 461.653 4190.06 467.447C4183.69 473.241 4177.03 478.166 4170.07 482.222C4163.12 486.278 4157.18 488.306 4152.26 488.306H4144C4143.42 488.306 4141.68 487.726 4138.78 486.568C4136.18 485.698 4134.73 485.264 4134.44 485.264C4133.57 484.974 4131.69 484.684 4128.79 484.395C4125.89 484.105 4122.71 483.815 4119.23 483.526C4115.75 483.526 4112.57 483.381 4109.67 483.091C4106.77 482.801 4104.89 482.512 4104.02 482.222C4099.38 480.484 4094.46 477.152 4089.24 472.227C4084.03 467.012 4078.82 461.798 4073.6 456.583C4068.68 451.368 4063.75 446.733 4058.83 442.677C4054.19 438.331 4049.99 436.158 4046.22 436.158Z" fill="#38383B"/>
<path d="M4310.19 413.127V364.89C4310.19 364.6 4310.34 363.586 4310.63 361.848C4310.92 360.11 4311.21 358.227 4311.5 356.199C4311.79 353.881 4312.08 351.564 4312.37 349.246C4312.66 346.638 4312.8 344.611 4312.8 343.162C4313.38 342.583 4314.1 340.265 4314.97 336.209C4315.84 332.153 4316.28 329.401 4316.28 327.952V271.894C4316.28 271.025 4316.57 268.997 4317.15 265.81C4318.02 262.333 4318.74 260.305 4319.32 259.726V187.589C4319.32 185.85 4318.74 184.257 4317.58 182.808C4316.42 181.36 4314.97 180.201 4313.24 179.332C4311.5 178.173 4309.76 177.304 4308.02 176.725C4306.57 175.855 4305.41 175.131 4304.54 174.552C4300.78 173.103 4297.16 172.234 4293.68 171.944C4290.49 171.365 4287.6 170.641 4284.99 169.772C4282.38 168.613 4280.35 167.019 4278.91 164.991C4277.46 162.674 4276.73 158.907 4276.73 153.693V148.478C4276.73 147.319 4276.88 146.015 4277.17 144.567C4277.46 144.277 4278.33 143.408 4279.77 141.96C4281.22 140.511 4282.82 139.062 4284.55 137.614C4286.58 135.876 4288.32 134.282 4289.77 132.834C4291.22 131.385 4292.09 130.371 4292.38 129.792C4293.25 129.212 4294.26 128.198 4295.42 126.75C4296.58 125.012 4297.74 123.418 4298.9 121.97C4300.05 120.231 4301.07 118.638 4301.94 117.189C4303.1 115.741 4303.97 114.872 4304.54 114.582C4311.5 107.05 4317.15 100.386 4321.49 94.5922C4326.13 88.5083 4331.49 83.4384 4337.57 79.3825C4341.34 76.1957 4345.54 72.5744 4350.17 68.5184C4355.1 64.1728 4359.88 62 4364.51 62C4372.05 62 4377.84 63.7383 4381.9 67.2148C4385.95 70.4015 4388.99 74.6023 4391.02 79.8171C4393.34 84.7421 4395.08 90.2466 4396.24 96.3304C4397.4 102.414 4398.84 108.208 4400.58 113.713H4404.49C4406.23 113.713 4407.83 113.858 4409.27 114.148C4411.01 114.437 4412.61 114.582 4414.05 114.582C4415.21 114.582 4416.37 114.437 4417.53 114.148C4418.98 113.858 4420.28 113.568 4421.44 113.278C4423.76 112.409 4425.93 111.975 4427.96 111.975C4429.99 111.685 4432.16 111.54 4434.48 111.54C4437.67 111.54 4441 111.685 4444.47 111.975C4447.95 112.264 4451.43 112.409 4454.9 112.409C4458.67 112.409 4462.87 113.278 4467.51 115.017C4472.43 116.465 4477.07 118.493 4481.41 121.101C4485.76 123.708 4489.38 126.75 4492.28 130.226C4495.17 133.703 4496.62 137.324 4496.62 141.09C4496.62 143.408 4495.46 146.015 4493.14 148.913C4491.12 151.81 4488.51 154.562 4485.32 157.169C4482.14 159.777 4478.8 161.949 4475.33 163.688C4472.14 165.426 4469.24 166.295 4466.64 166.295H4460.55C4460.26 166.295 4459.39 166.295 4457.94 166.295C4456.5 166.005 4454.9 165.86 4453.16 165.86C4451.43 165.86 4449.83 165.86 4448.38 165.86C4446.94 165.86 4446.07 165.86 4445.78 165.86H4404.49C4396.67 171.075 4391.17 177.304 4387.98 184.547C4385.37 192.079 4383.92 199.901 4383.63 208.013C4383.63 216.125 4383.35 224.382 4382.77 232.783C4381.32 238.577 4379.87 244.661 4378.42 251.035C4377.26 257.119 4376.68 263.492 4376.68 270.155C4376.68 274.791 4377.12 279.571 4377.99 284.496C4379.14 289.131 4379.72 293.912 4379.72 298.837C4379.72 302.023 4379 305.355 4377.55 308.832C4376.39 312.308 4375.81 315.929 4375.81 319.696C4375.81 322.013 4375.96 323.751 4376.25 324.91C4376.25 326.069 4376.39 327.083 4376.68 327.952C4376.68 328.821 4376.97 330.415 4377.55 332.732C4378.13 334.76 4378.85 336.933 4379.72 339.251C4380.59 341.569 4381.32 343.886 4381.9 346.204C4382.48 348.232 4382.77 349.536 4382.77 350.115C4382.77 350.694 4383.06 352.722 4383.63 356.199C4384.21 359.386 4384.79 362.862 4385.37 366.628C4386.24 370.395 4386.82 373.871 4387.11 377.058C4387.69 380.245 4387.98 382.273 4387.98 383.142C4388.56 385.17 4388.99 387.487 4389.28 390.095C4389.86 392.702 4390.59 395.309 4391.46 397.917C4392.33 400.524 4393.48 402.987 4394.93 405.304C4396.38 407.332 4398.27 408.926 4400.58 410.085C4401.74 410.374 4403.33 410.954 4405.36 411.823C4407.68 412.692 4409.85 413.706 4411.88 414.865C4414.2 415.734 4416.23 416.603 4417.97 417.472C4419.99 418.341 4421.15 418.921 4421.44 419.21H4457.94C4461.71 417.182 4465.19 415.154 4468.37 413.127C4471.85 410.809 4475.33 408.781 4478.8 407.043C4482.28 405.015 4485.9 403.421 4489.67 402.262C4493.43 400.814 4497.64 400.09 4502.27 400.09C4506.62 400.09 4509.22 401.828 4510.09 405.304C4511.25 408.491 4511.83 412.113 4511.83 416.168V422.252C4511.83 434.13 4508.06 444.125 4500.53 452.237C4493 460.349 4483.73 466.867 4472.72 471.792C4462 476.718 4450.56 480.194 4438.39 482.222C4426.51 484.25 4415.94 485.264 4406.67 485.264C4403.19 485.264 4399.28 485.119 4394.93 484.829C4390.88 484.829 4386.53 484.395 4381.9 483.526C4377.55 482.946 4373.21 482.077 4368.86 480.918C4364.51 479.47 4360.75 477.587 4357.56 475.269L4346.26 463.97C4339.6 456.148 4332.94 448.181 4326.27 440.069C4319.61 431.958 4314.25 422.977 4310.19 413.127Z" fill="#38383B"/>
<path d="M4684.98 171.075C4684.98 178.028 4686.57 183.098 4689.76 186.285C4692.94 189.182 4696.86 191.065 4701.49 191.934C4706.42 192.803 4711.63 193.238 4717.14 193.238C4722.93 192.948 4728.14 193.093 4732.78 193.672C4733.36 193.672 4734.52 194.252 4736.26 195.411C4737.99 196.28 4739.15 196.714 4739.73 196.714C4745.53 198.453 4749.87 199.467 4752.77 199.756C4755.67 200.046 4760.01 200.191 4765.81 200.191C4771.31 200.191 4776.96 200.046 4782.75 199.756C4788.55 199.177 4793.76 198.018 4798.4 196.28C4803.32 194.542 4807.23 191.789 4810.13 188.023C4813.32 184.257 4814.91 179.042 4814.91 172.379C4814.91 163.977 4813.46 155.286 4810.57 146.305C4807.96 137.034 4803.32 129.792 4796.66 124.577C4795.21 124.577 4792.89 124.432 4789.71 124.142C4786.81 123.853 4783.62 123.563 4780.15 123.273C4776.67 122.984 4773.19 122.694 4769.72 122.404C4766.53 121.825 4764.21 121.535 4762.76 121.535C4762.18 121.245 4761.46 120.811 4760.59 120.231C4758.85 119.073 4757.84 118.493 4757.55 118.493H4750.16C4744.08 118.493 4737.13 120.087 4729.3 123.273C4721.77 126.17 4714.67 130.081 4708.01 135.007C4701.64 139.932 4696.13 145.581 4691.5 151.954C4687.15 158.038 4684.98 164.412 4684.98 171.075ZM4585.46 278.412C4585.46 261.319 4587.35 244.082 4591.11 226.699C4595.17 209.027 4602.27 192.948 4612.41 178.463C4614.43 175.566 4617.33 171.799 4621.1 167.164C4624.86 162.239 4628.48 157.459 4631.96 152.824C4635.73 147.899 4638.91 143.553 4641.52 139.787C4644.13 136.02 4645.58 133.848 4645.87 133.268C4649.63 128.633 4654.56 124.287 4660.64 120.231C4666.73 116.175 4673.1 112.264 4679.76 108.498C4686.43 104.732 4693.09 101.111 4699.75 97.6341C4706.42 93.8679 4712.21 90.2466 4717.14 86.7701C4722.93 85.6112 4728.72 84.7421 4734.52 84.1627C4740.31 83.2936 4746.11 82.859 4751.9 82.859C4761.46 82.859 4770.15 83.873 4777.97 85.9009C4784.06 89.9569 4790.58 92.5642 4797.53 93.7231C4804.48 94.5922 4811.29 96.0407 4817.95 98.0687C4823.46 99.5172 4828.82 101.835 4834.03 105.022C4839.54 107.919 4844.46 111.54 4848.81 115.886C4853.44 119.942 4857.64 124.432 4861.41 129.357C4865.47 133.993 4868.94 138.628 4871.84 143.263C4872.13 143.553 4872.56 144.277 4873.14 145.436C4873.72 146.595 4874.3 147.899 4874.88 149.347C4875.75 150.506 4876.48 151.665 4877.05 152.824C4877.63 153.982 4877.92 154.707 4877.92 154.996C4879.37 157.024 4881.26 159.342 4883.57 161.949C4886.18 164.267 4888.64 166.874 4890.96 169.772C4893.28 172.379 4895.16 175.276 4896.61 178.463C4898.35 181.36 4899.22 184.402 4899.22 187.589C4899.22 189.906 4899.07 192.803 4898.78 196.28C4898.49 199.467 4897.91 202.798 4897.04 206.275C4896.17 209.462 4894.87 212.503 4893.13 215.401C4891.68 218.298 4889.66 220.326 4887.05 221.484C4886.47 221.484 4885.31 221.774 4883.57 222.354C4882.12 222.933 4880.39 223.657 4878.36 224.526C4876.33 225.106 4874.3 225.685 4872.27 226.265C4870.54 226.844 4869.38 227.279 4868.8 227.568C4868.51 227.568 4867.49 228.003 4865.76 228.872C4864.31 229.451 4863.44 229.886 4863.15 230.176C4859.38 230.176 4853.59 230.321 4845.77 230.61C4838.23 230.61 4829.54 230.755 4819.69 231.045C4810.13 231.045 4799.99 231.19 4789.27 231.479C4778.55 231.769 4768.27 232.059 4758.42 232.349C4748.86 232.638 4740.17 232.928 4732.35 233.218C4724.52 233.218 4718.73 233.218 4714.96 233.218C4713.8 233.218 4711.63 233.363 4708.44 233.652C4705.26 233.652 4701.93 233.797 4698.45 234.087C4694.97 234.376 4691.64 234.811 4688.45 235.39C4685.56 235.68 4683.53 235.97 4682.37 236.26C4674.84 242.343 4669.77 249.731 4667.16 258.422C4664.84 266.824 4663.68 275.805 4663.68 285.365C4663.68 295.795 4664.7 304.92 4666.73 312.743C4668.75 320.275 4671.8 328.966 4675.85 338.816C4676.43 339.396 4677.01 340.555 4677.59 342.293C4678.46 343.741 4678.89 344.755 4678.89 345.335C4679.18 345.624 4679.91 346.349 4681.07 347.508C4682.52 348.377 4683.82 349.536 4684.98 350.984C4686.43 352.143 4687.73 353.447 4688.89 354.895C4690.05 356.054 4690.63 356.923 4690.63 357.503C4690.92 357.792 4691.79 358.806 4693.23 360.544C4694.97 361.993 4696.71 363.731 4698.45 365.759C4700.19 367.787 4701.78 369.815 4703.23 371.843C4704.68 373.581 4705.55 374.74 4705.84 375.32C4706.42 375.32 4707 375.754 4707.58 376.623C4708.44 377.492 4709.17 377.927 4709.75 377.927C4712.36 380.245 4715.54 382.997 4719.31 386.184C4723.36 389.37 4727.27 392.412 4731.04 395.309C4735.39 398.786 4740.02 402.262 4744.95 405.739C4757.4 409.215 4769.43 410.954 4781.02 410.954C4792.6 410.954 4804.92 409.215 4817.95 405.739C4825.49 401.104 4833.16 397.627 4840.99 395.309C4849.1 392.702 4857.21 390.095 4865.32 387.487C4865.9 386.908 4867.06 386.329 4868.8 385.749C4870.54 384.88 4871.55 384.156 4871.84 383.576H4874.88C4876.91 384.445 4879.37 385.604 4882.27 387.053C4885.46 388.501 4887.05 389.66 4887.05 390.529C4887.63 391.109 4888.21 393.282 4888.79 397.048C4889.66 400.814 4890.09 403.711 4890.09 405.739C4890.09 410.664 4888.64 416.458 4885.75 423.121C4883.14 429.785 4880.53 434.71 4877.92 437.897C4877.92 438.476 4876.19 439.925 4872.71 442.242C4869.52 444.56 4867.06 446.298 4865.32 447.457C4856.05 453.541 4846.92 460.059 4837.94 467.012C4828.96 473.676 4819.26 479.035 4808.83 483.091C4808.25 483.381 4806.8 483.671 4804.48 483.96C4802.45 484.54 4800.28 484.974 4797.96 485.264C4795.65 485.554 4793.47 485.843 4791.45 486.133C4789.42 486.423 4788.26 486.568 4787.97 486.568C4782.46 488.016 4777.68 489.32 4773.63 490.479C4769.86 491.927 4765.37 492.651 4760.16 492.651C4755.23 492.651 4750.74 491.927 4746.69 490.479C4742.63 489.32 4737.99 488.016 4732.78 486.568C4730.17 485.988 4726.41 484.974 4721.48 483.526C4716.85 482.367 4711.92 480.918 4706.71 479.18C4701.49 477.442 4696.57 475.559 4691.93 473.531C4687.59 471.503 4684.4 469.62 4682.37 467.881C4681.5 467.592 4679.91 466.288 4677.59 463.97C4675.27 461.653 4672.67 459.19 4669.77 456.583C4667.16 453.975 4664.7 451.513 4662.38 449.195C4660.06 446.878 4658.47 445.429 4657.6 444.85C4657.31 444.27 4655.86 443.111 4653.25 441.373C4650.65 439.635 4649.2 438.476 4648.91 437.897C4647.46 437.317 4645.72 436.013 4643.69 433.986C4641.67 431.668 4640.36 430.219 4639.78 429.64C4638.91 428.481 4637.03 425.874 4634.13 421.818C4631.53 417.472 4628.63 412.837 4625.44 407.912C4622.26 402.987 4619.07 398.207 4615.88 393.571C4612.99 388.936 4610.96 385.604 4609.8 383.576C4605.74 377.782 4602.99 371.988 4601.54 366.194C4600.38 360.4 4599.08 354.171 4597.63 347.508C4597.63 347.218 4597.05 345.914 4595.89 343.597C4595.02 340.989 4594.59 339.396 4594.59 338.816C4590.82 330.125 4588.36 320.42 4587.2 309.701C4586.04 298.692 4585.46 288.262 4585.46 278.412Z" fill="#38383B"/>
<path d="M4978.06 420.514V410.085C4978.06 409.505 4978.93 407.622 4980.67 404.435C4982.41 401.248 4983.28 399.365 4983.28 398.786C4984.73 395.309 4986.03 391.543 4987.19 387.487C4988.35 383.142 4989.65 379.086 4991.1 375.32C4992.84 371.553 4995.01 368.367 4997.62 365.759C5000.23 363.152 5003.99 361.848 5008.92 361.848H5013.26C5014.13 361.848 5015.29 363.152 5016.74 365.759C5018.19 368.367 5019.35 370.395 5020.22 371.843C5023.98 378.796 5028.04 386.763 5032.38 395.744C5037.02 404.435 5042.23 412.547 5048.03 420.08C5053.82 427.612 5060.63 433.986 5068.45 439.2C5076.28 444.415 5085.26 447.022 5095.4 447.022C5099.16 447.022 5103.94 445.719 5109.74 443.111C5115.53 440.214 5121.18 436.883 5126.68 433.116C5132.48 429.35 5137.55 425.439 5141.89 421.383C5146.53 417.038 5149.28 413.271 5150.15 410.085C5151.31 406.318 5152.32 402.842 5153.19 399.655C5154.06 396.468 5154.5 393.137 5154.5 389.66C5154.5 383.866 5153.05 377.927 5150.15 371.843C5150.15 368.367 5147.11 363.586 5141.03 357.503C5135.23 351.419 5128.42 345.48 5120.6 339.685C5112.78 333.602 5105.25 328.097 5098 323.172C5090.76 318.247 5085.84 315.06 5083.23 313.612C5080.04 312.453 5076.71 311.873 5073.23 311.873C5070.05 311.584 5067.29 310.425 5064.98 308.397C5064.98 307.818 5064.25 306.948 5062.8 305.79C5061.65 304.631 5060.34 303.472 5058.89 302.313C5057.73 300.865 5056.43 299.561 5054.98 298.402C5053.82 297.243 5053.24 296.664 5053.24 296.664C5052.66 295.505 5050.78 293.912 5047.59 291.884C5044.41 289.566 5042.23 287.828 5041.08 286.669L5034.99 283.627L5011.09 259.726C5009.06 254.801 5007.32 249.876 5005.88 244.951C5004.72 240.026 5003.41 234.956 5001.97 229.741C5001.68 228.293 5001.1 226.265 5000.23 223.657C4999.65 221.05 4999.07 218.587 4998.49 216.27C4997.91 213.662 4997.33 211.49 4996.75 209.751C4996.17 207.723 4995.88 206.564 4995.88 206.275C4995.3 198.453 4995.88 190.341 4997.62 181.939C4999.36 173.248 5001.97 164.991 5005.44 157.169C5009.21 149.347 5013.55 142.104 5018.48 135.441C5023.4 128.488 5028.91 122.839 5034.99 118.493C5035.57 117.914 5037.16 117.334 5039.77 116.755C5042.38 115.886 5044.12 115.161 5044.99 114.582C5049.33 112.844 5053.97 110.236 5058.89 106.76C5064.11 102.994 5069.47 99.3724 5074.97 95.8959C5080.48 92.1297 5085.98 88.9429 5091.49 86.3355C5096.99 83.7281 5102.2 82.4244 5107.13 82.4244C5112.05 82.4244 5117.7 83.5833 5124.08 85.9009C5130.45 87.9289 5135.81 89.6671 5140.16 91.1157C5147.98 93.7231 5155.51 96.1856 5162.75 98.5033C5170 100.821 5176.37 103.863 5181.87 107.629C5187.67 111.395 5192.16 116.175 5195.35 121.97C5198.82 127.764 5200.56 135.296 5200.56 144.567C5200.56 147.754 5200.13 152.389 5199.26 158.473C5198.68 164.267 5197.52 170.061 5195.78 175.855C5194.04 181.36 5191.58 186.285 5188.39 190.631C5185.21 194.686 5181.15 196.714 5176.22 196.714H5173.62C5173.04 196.135 5172.02 194.107 5170.58 190.631C5169.13 187.154 5168.11 185.126 5167.53 184.547C5163.48 177.304 5158.99 170.351 5154.06 163.688C5149.43 157.024 5144.07 151.23 5137.98 146.305C5132.19 141.09 5125.82 137.034 5118.86 134.137C5111.91 131.24 5104.09 129.792 5095.4 129.792C5092.79 129.792 5089.75 129.937 5086.27 130.226C5082.79 130.516 5079.75 131.53 5077.14 133.268C5067.29 140.801 5059.76 148.768 5054.55 157.169C5049.62 165.571 5047.16 176.145 5047.16 188.892C5047.16 195.845 5048.75 202.219 5051.94 208.013C5055.13 213.517 5059.18 218.443 5064.11 222.788C5069.03 227.134 5074.54 230.9 5080.62 234.087C5086.7 237.274 5092.64 239.736 5098.44 241.474C5098.73 241.764 5099.74 242.054 5101.48 242.343C5103.22 242.633 5105.1 242.923 5107.13 243.213C5109.45 243.502 5111.47 243.792 5113.21 244.082C5114.95 244.371 5115.97 244.516 5116.26 244.516C5116.83 244.516 5117.85 245.096 5119.3 246.255C5120.75 247.124 5121.76 247.558 5122.34 247.558C5128.71 252.194 5135.23 256.829 5141.89 261.464C5148.85 265.81 5155.51 270.445 5161.88 275.37C5168.55 280.006 5174.92 285.075 5181 290.58C5187.09 296.084 5192.59 302.023 5197.52 308.397C5197.81 308.687 5198.39 309.701 5199.26 311.439C5200.13 313.177 5200.99 315.205 5201.86 317.523C5203.02 319.551 5204.04 321.724 5204.91 324.041C5205.78 326.069 5206.5 327.663 5207.08 328.821C5207.08 329.401 5207.08 330.56 5207.08 332.298C5207.37 334.036 5207.66 335.919 5207.95 337.947C5208.24 339.975 5208.53 342.003 5208.82 344.031C5209.4 345.769 5209.83 346.783 5210.12 347.073C5211.28 350.55 5212.73 353.736 5214.47 356.633C5216.2 359.241 5217.8 361.848 5219.25 364.456C5220.98 367.063 5222.43 369.67 5223.59 372.278C5224.75 374.885 5225.33 377.927 5225.33 381.403C5225.33 390.674 5223.3 399.221 5219.25 407.043C5215.19 414.865 5211.13 423.121 5207.08 431.813C5203.31 437.897 5198.39 443.836 5192.3 449.63C5186.22 455.424 5181.15 460.204 5177.09 463.97C5165.51 474.11 5152.18 481.208 5137.11 485.264C5122.05 489.61 5107.56 491.782 5093.66 491.782C5083.23 491.782 5072.65 491.203 5061.93 490.044C5051.22 488.885 5041.22 486.278 5031.95 482.222C5031.66 481.932 5030.65 481.353 5028.91 480.484C5027.17 479.325 5025.14 478.166 5022.82 477.007C5020.8 475.559 5018.77 474.255 5016.74 473.096C5015 471.937 5013.84 471.213 5013.26 470.923C5007.47 467.447 5002.25 464.405 4997.62 461.798C4993.27 458.9 4989.65 455.714 4986.76 452.237C4983.86 448.761 4981.69 444.56 4980.24 439.635C4978.79 434.71 4978.06 428.336 4978.06 420.514Z" fill="#38383B"/>
<path fill-rule="evenodd" clip-rule="evenodd" d="M109.498 244.538L0 72.7981V0H188.546C230.165 0 260.799 5.17664 284.874 14.5583C308.93 23.9328 326.502 37.5304 341.966 54.4769C363.239 77.7884 377.091 108.837 377.091 150.836C377.091 209.927 354.571 247.883 326.507 271.371C298.398 294.897 264.653 303.971 242.194 305.103L240.228 305.202L391 540.497H300.01L152.602 311.957H79.989V540.497H0V244.538H109.498ZM262.299 85.5999C243.478 73.4386 221.807 70.8474 210.257 70.8474H90.4697L201.296 244.011L201.646 244.56L202.3 244.538C217.967 243.965 241.636 241.387 261.415 229.375C281.289 217.305 297.102 195.788 297.102 157.693C297.102 119.602 281.198 97.8119 262.299 85.5999Z" fill="#38383B"/>
<path d="M477 4.57227H819V77.1479H566.477L669.375 231.744H778.735V304.319H554.547V464.383H819V539.941H477V231.744H577.91L477 77.1479V4.57227Z" fill="#38383B"/>
<path d="M1270 2.44141H925V142.441H1005.5V72.9414H1270V2.44141Z" fill="#38383B"/>
<path d="M1230.5 303.941V232.441H1077.75H925V371.941H1005.5V303.941H1230.5Z" fill="#38383B"/>
<path d="M1267 466.941H925.5V538.441H1096.25H1267V466.941Z" fill="#38383B"/>
<path d="M1416.5 4.44141H1332L1420.75 274.191L1509.5 543.941H1589.5L1416.5 4.44141Z" fill="#38383B"/>
<path d="M1683.5 4.44141L1551 421.941H1631L1767.5 4.44141H1683.5Z" fill="#38383B"/>
<path d="M2178 5.44141H1833V309.941H1935.5L1833 471.941V543.941H2178V471.941H1927L2030.5 309.941H2138.5V235.941H1915V78.9414H2178V5.44141Z" fill="#38383B"/>
<path d="M2630.5 68.509L2578 118.009C2578 118.009 2549 78.5088 2463.5 78.5088C2378.01 78.5088 2371 118.009 2362.5 144.509C2345.35 198.009 2402 231.175 2428.5 236.509L2386 300.509C2386 300.509 2373 308.006 2315 261.009C2275.5 228.998 2278.24 139.009 2297 96.509C2310.84 65.1757 2363.5 3.10904 2463.5 5.50904C2563.5 7.90904 2616.5 48.509 2630.5 68.509Z" fill="#38383B"/>
<path d="M2472.5 314.509L2515 248.009C2523.17 248.009 2542.1 249.509 2552.5 255.509C2565.5 263.009 2580 267.509 2605.5 285.509C2631 303.509 2647.5 350.509 2649.5 383.509C2651.5 416.509 2649.5 432.009 2632.5 467.009C2621.09 490.509 2581 525.509 2561 533.009C2541 540.509 2520 546.009 2490.5 551.509C2461 557.009 2432.5 552.509 2413.5 551.509C2398.3 550.709 2368.17 543.842 2355 540.509L2300.5 513.009L2264 483.009L2317.5 432.009L2372 467.009L2442.5 483.009C2463.17 483.675 2508.9 481.409 2526.5 467.009C2548.5 449.009 2561 459.509 2568.5 403.009C2574.5 357.809 2535.33 330.175 2515 322.009L2472.5 314.509Z" fill="#38383B"/>
</svg>
