<svg width="1855" height="202" viewBox="0 0 1855 202" fill="none" xmlns="http://www.w3.org/2000/svg">
<path d="M0 198.42V11.5548H66.6072C81.0844 11.5548 93.0981 14.0488 102.648 19.0367C112.259 24.0246 119.437 30.9287 124.181 39.7488C128.926 48.5081 131.298 58.6361 131.298 70.1327C131.298 81.5684 128.896 91.6356 124.09 100.334C119.346 108.972 112.168 115.693 102.557 120.499C93.0068 125.304 80.9932 127.707 66.516 127.707H16.0587V103.436H63.9612C73.0855 103.436 80.5066 102.128 86.2244 99.5129C92.0031 96.8972 96.2307 93.0954 98.9072 88.1075C101.584 83.1196 102.922 77.128 102.922 70.1327C102.922 63.0766 101.553 56.9633 98.8159 51.7929C96.1395 46.6224 91.9119 42.6686 86.1332 39.9313C80.4153 37.1332 72.903 35.7341 63.5962 35.7341H28.194V198.42H0ZM92.2465 114.112L138.415 198.42H106.298L61.0414 114.112H92.2465Z" fill="black"/>
<path d="M150.189 198.42V11.5548H267.345V35.8254H178.383V92.7609H261.232V116.94H178.383V174.149H268.44V198.42H150.189Z" fill="black"/>
<path d="M289.589 198.42V11.5548H406.745V35.8254H317.783V92.7609H400.632V116.94H317.783V174.149H407.84V198.42H289.589Z" fill="black"/>
<path d="M445.321 11.5548L497.33 163.748H499.428L551.437 11.5548H581.912L514.666 198.42H482.092L414.846 11.5548H445.321Z" fill="black"/>
<path d="M593.481 198.42V11.5548H710.636V35.8254H621.675V92.7609H704.523V116.94H621.675V174.149H711.731V198.42H593.481Z" fill="black"/>
<path d="M834.798 60.6434C833.825 52.0058 829.811 45.3146 822.754 40.57C815.698 35.7646 806.817 33.3618 796.112 33.3618C788.447 33.3618 781.817 34.5784 776.221 37.0115C770.624 39.3838 766.275 42.6686 763.173 46.8658C760.131 51.0021 758.611 55.7163 758.611 61.0084C758.611 65.4489 759.645 69.2811 761.713 72.505C763.842 75.7289 766.61 78.4358 770.016 80.6256C773.483 82.7546 777.194 84.549 781.148 86.0089C785.102 87.408 788.903 88.5637 792.553 89.4761L810.802 94.2208C816.763 95.6807 822.876 97.6576 829.141 100.152C835.407 102.646 841.216 105.93 846.569 110.006C851.922 114.081 856.241 119.13 859.525 125.152C862.871 131.174 864.544 138.382 864.544 146.777C864.544 157.361 861.806 166.759 856.332 174.971C850.918 183.182 843.041 189.661 832.7 194.405C822.42 199.15 809.98 201.522 795.382 201.522C781.391 201.522 769.286 199.302 759.067 194.862C748.848 190.421 740.849 184.125 735.07 175.974C729.291 167.762 726.098 158.03 725.49 146.777H753.775C754.322 153.529 756.512 159.155 760.344 163.657C764.237 168.097 769.195 171.412 775.217 173.602C781.3 175.731 787.961 176.795 795.199 176.795C803.168 176.795 810.254 175.549 816.459 173.055C822.724 170.5 827.651 166.972 831.24 162.47C834.829 157.908 836.623 152.586 836.623 146.503C836.623 140.967 835.042 136.436 831.879 132.908C828.776 129.38 824.549 126.46 819.196 124.148C813.904 121.837 807.912 119.799 801.221 118.035L779.14 112.013C764.177 107.938 752.315 101.946 743.556 94.0383C734.857 86.1306 730.508 75.6681 730.508 62.6508C730.508 51.8841 733.428 42.4861 739.267 34.4567C745.107 26.4274 753.015 20.1924 762.99 15.752C772.966 11.2507 784.22 9 796.75 9C809.403 9 820.565 11.2202 830.236 15.6607C839.969 20.1012 847.633 26.2145 853.23 34.0005C858.826 41.7257 861.746 50.6067 861.989 60.6434H834.798Z" fill="black"/>
<path d="M934.088 51.0415C934.088 54.2951 934.834 56.6676 936.325 58.1588C937.816 59.5145 939.647 60.3957 941.816 60.8024C944.12 61.2091 946.561 61.4125 949.136 61.4125C951.848 61.2769 954.288 61.3447 956.457 61.6158C956.728 61.6158 957.27 61.887 958.084 62.4292C958.897 62.8359 959.44 63.0393 959.711 63.0393C962.422 63.8527 964.456 64.3272 965.811 64.4628C967.167 64.5983 969.2 64.6661 971.912 64.6661C974.488 64.6661 977.131 64.5983 979.843 64.4628C982.554 64.1916 984.994 63.6493 987.163 62.8359C989.468 62.0225 991.298 60.7346 992.654 58.9722C994.145 57.2099 994.891 54.7696 994.891 51.6515C994.891 47.7201 994.213 43.653 992.857 39.4504C991.637 35.1122 989.468 31.723 986.35 29.2828C985.672 29.2828 984.587 29.215 983.096 29.0794C981.741 28.9438 980.249 28.8083 978.622 28.6727C976.996 28.5371 975.369 28.4016 973.742 28.266C972.251 27.9949 971.166 27.8593 970.488 27.8593C970.217 27.7237 969.878 27.5204 969.472 27.2492C968.658 26.707 968.184 26.4358 968.048 26.4358H964.591C961.744 26.4358 958.491 27.1815 954.83 28.6727C951.305 30.0284 947.984 31.8586 944.866 34.1632C941.883 36.4679 939.308 39.1115 937.139 42.094C935.105 44.9409 934.088 47.9234 934.088 51.0415ZM887.521 101.27C887.521 93.271 888.402 85.2047 890.164 77.0706C892.062 68.8009 895.383 61.2769 900.128 54.4985C901.077 53.1428 902.433 51.3804 904.195 49.2113C905.958 46.9067 907.652 44.6698 909.279 42.5007C911.042 40.196 912.533 38.1625 913.753 36.4001C914.973 34.6377 915.651 33.621 915.787 33.3498C917.549 31.1807 919.854 29.1472 922.701 27.2492C925.547 25.3513 928.53 23.5211 931.648 21.7587C934.766 19.9963 937.884 18.3017 941.002 16.6749C944.12 14.9125 946.832 13.2179 949.136 11.5911C951.848 11.0488 954.559 10.6421 957.27 10.371C959.982 9.96428 962.693 9.76092 965.405 9.76092C969.878 9.76092 973.945 10.2354 977.606 11.1844C980.453 13.0823 983.503 14.3025 986.757 14.8447C990.01 15.2514 993.196 15.9293 996.314 16.8783C998.89 17.5561 1001.4 18.6406 1003.84 20.1319C1006.41 21.4876 1008.72 23.1822 1010.75 25.2157C1012.92 27.1137 1014.89 29.215 1016.65 31.5196C1018.55 33.6887 1020.17 35.8578 1021.53 38.0269C1021.67 38.1625 1021.87 38.5014 1022.14 39.0437C1022.41 39.586 1022.68 40.196 1022.95 40.8739C1023.36 41.4161 1023.7 41.9584 1023.97 42.5007C1024.24 43.043 1024.38 43.3819 1024.38 43.5174C1025.05 44.4664 1025.94 45.551 1027.02 46.7711C1028.24 47.8556 1029.39 49.0758 1030.48 50.4314C1031.56 51.6515 1032.44 53.0072 1033.12 54.4985C1033.93 55.8542 1034.34 57.2776 1034.34 58.7689C1034.34 59.8534 1034.27 61.2091 1034.14 62.8359C1034 64.3272 1033.73 65.8862 1033.32 67.513C1032.92 69.0043 1032.31 70.4278 1031.49 71.7835C1030.82 73.1391 1029.87 74.0881 1028.65 74.6304C1028.38 74.6304 1027.83 74.766 1027.02 75.0371C1026.34 75.3082 1025.53 75.6471 1024.58 76.0539C1023.63 76.325 1022.68 76.5961 1021.73 76.8673C1020.92 77.1384 1020.38 77.3418 1020.11 77.4773C1019.97 77.4773 1019.5 77.6807 1018.68 78.0874C1018.01 78.3585 1017.6 78.5619 1017.46 78.6974C1015.7 78.6974 1012.99 78.7652 1009.33 78.9008C1005.8 78.9008 1001.74 78.9686 997.128 79.1041C992.654 79.1041 987.909 79.1719 982.893 79.3075C977.877 79.4431 973.064 79.5786 968.455 79.7142C963.981 79.8498 959.914 79.9853 956.254 80.1209C952.593 80.1209 949.882 80.1209 948.12 80.1209C947.577 80.1209 946.561 80.1887 945.069 80.3243C943.578 80.3243 942.019 80.392 940.392 80.5276C938.765 80.6632 937.206 80.8665 935.715 81.1377C934.359 81.2732 933.41 81.4088 932.868 81.5444C929.343 84.3913 926.971 87.8483 925.751 91.9154C924.666 95.8468 924.124 100.049 924.124 104.523C924.124 109.404 924.598 113.674 925.547 117.334C926.496 120.859 927.92 124.926 929.818 129.536C930.089 129.807 930.36 130.349 930.631 131.162C931.038 131.84 931.241 132.315 931.241 132.586C931.377 132.721 931.716 133.06 932.258 133.603C932.936 134.009 933.546 134.552 934.088 135.229C934.766 135.772 935.376 136.382 935.918 137.06C936.461 137.602 936.732 138.009 936.732 138.28C936.867 138.415 937.274 138.89 937.952 139.703C938.765 140.381 939.579 141.194 940.392 142.143C941.206 143.092 941.951 144.041 942.629 144.99C943.307 145.804 943.714 146.346 943.849 146.617C944.12 146.617 944.391 146.821 944.663 147.227C945.069 147.634 945.408 147.837 945.679 147.837C946.899 148.922 948.391 150.21 950.153 151.701C952.051 153.192 953.881 154.616 955.644 155.971C957.677 157.598 959.846 159.225 962.151 160.852C967.98 162.479 973.606 163.292 979.029 163.292C984.452 163.292 990.214 162.479 996.314 160.852C999.839 158.683 1003.43 157.056 1007.09 155.971C1010.89 154.751 1014.68 153.531 1018.48 152.311C1018.75 152.04 1019.29 151.769 1020.11 151.498C1020.92 151.091 1021.39 150.752 1021.53 150.481H1022.95C1023.9 150.888 1025.05 151.43 1026.41 152.108C1027.9 152.786 1028.65 153.328 1028.65 153.735C1028.92 154.006 1029.19 155.022 1029.46 156.785C1029.87 158.547 1030.07 159.903 1030.07 160.852C1030.07 163.157 1029.39 165.868 1028.04 168.986C1026.82 172.104 1025.6 174.409 1024.38 175.9C1024.38 176.171 1023.56 176.849 1021.94 177.933C1020.45 179.018 1019.29 179.831 1018.48 180.374C1014.14 183.221 1009.87 186.271 1005.67 189.525C1001.47 192.643 996.924 195.151 992.044 197.049C991.773 197.184 991.095 197.32 990.01 197.455C989.061 197.726 988.044 197.93 986.96 198.065C985.875 198.201 984.859 198.337 983.91 198.472C982.961 198.608 982.418 198.675 982.283 198.675C979.707 199.353 977.47 199.963 975.572 200.506C973.81 201.183 971.708 201.522 969.268 201.522C966.964 201.522 964.862 201.183 962.964 200.506C961.066 199.963 958.897 199.353 956.457 198.675C955.237 198.404 953.475 197.93 951.17 197.252C949.001 196.71 946.696 196.032 944.256 195.218C941.816 194.405 939.511 193.524 937.342 192.575C935.308 191.626 933.817 190.745 932.868 189.931C932.461 189.796 931.716 189.186 930.631 188.101C929.547 187.017 928.327 185.864 926.971 184.644C925.751 183.424 924.598 182.272 923.514 181.187C922.429 180.103 921.684 179.425 921.277 179.154C921.141 178.882 920.464 178.34 919.244 177.527C918.023 176.713 917.346 176.171 917.21 175.9C916.532 175.629 915.719 175.019 914.77 174.07C913.821 172.985 913.211 172.307 912.94 172.036C912.533 171.494 911.652 170.274 910.296 168.376C909.076 166.342 907.72 164.173 906.229 161.869C904.738 159.564 903.246 157.327 901.755 155.158C900.4 152.989 899.451 151.43 898.908 150.481C897.01 147.77 895.722 145.058 895.045 142.347C894.502 139.635 893.892 136.721 893.214 133.603C893.214 133.467 892.943 132.857 892.401 131.772C891.994 130.552 891.791 129.807 891.791 129.536C890.029 125.469 888.876 120.927 888.334 115.911C887.792 110.759 887.521 105.879 887.521 101.27Z" fill="black"/>
<path d="M1046.25 167.766V162.885C1046.25 162.614 1046.66 161.733 1047.47 160.242C1048.28 158.751 1048.69 157.869 1048.69 157.598C1049.37 155.971 1049.98 154.209 1050.52 152.311C1051.06 150.278 1051.67 148.38 1052.35 146.617C1053.16 144.855 1054.18 143.364 1055.4 142.143C1056.62 140.923 1058.38 140.313 1060.69 140.313H1062.72C1063.13 140.313 1063.67 140.923 1064.35 142.143C1065.03 143.364 1065.57 144.313 1065.97 144.99C1067.74 148.244 1069.63 151.972 1071.67 156.175C1073.84 160.242 1076.28 164.038 1078.99 167.563C1081.7 171.087 1084.89 174.07 1088.55 176.51C1092.21 178.95 1096.41 180.17 1101.15 180.17C1102.92 180.17 1105.15 179.56 1107.87 178.34C1110.58 176.985 1113.22 175.425 1115.8 173.663C1118.51 171.901 1120.88 170.071 1122.91 168.173C1125.08 166.139 1126.37 164.377 1126.78 162.885C1127.32 161.123 1127.79 159.496 1128.2 158.005C1128.61 156.514 1128.81 154.955 1128.81 153.328C1128.81 150.616 1128.13 147.837 1126.78 144.99C1126.78 143.364 1125.35 141.127 1122.51 138.28C1119.8 135.433 1116.61 132.654 1112.95 129.942C1109.29 127.095 1105.76 124.52 1102.37 122.215C1098.99 119.91 1096.68 118.419 1095.46 117.741C1093.97 117.199 1092.41 116.928 1090.78 116.928C1089.29 116.792 1088 116.25 1086.92 115.301C1086.92 115.03 1086.58 114.623 1085.9 114.081C1085.36 113.539 1084.75 112.996 1084.07 112.454C1083.53 111.776 1082.92 111.166 1082.24 110.624C1081.7 110.082 1081.43 109.81 1081.43 109.81C1081.16 109.268 1080.28 108.522 1078.79 107.573C1077.29 106.489 1076.28 105.676 1075.74 105.133L1072.89 103.71L1061.7 92.5254C1060.76 90.2207 1059.94 87.9161 1059.26 85.6114C1058.72 83.3068 1058.11 80.9343 1057.43 78.4941C1057.3 77.8162 1057.03 76.8673 1056.62 75.6472C1056.35 74.427 1056.08 73.2747 1055.81 72.1902C1055.54 70.97 1055.26 69.9533 1054.99 69.1399C1054.72 68.1909 1054.59 67.6486 1054.59 67.513C1054.32 63.8527 1054.59 60.0568 1055.4 56.1253C1056.21 52.0583 1057.43 48.1946 1059.06 44.5342C1060.82 40.8739 1062.86 37.4847 1065.16 34.3666C1067.47 31.1129 1070.04 28.4694 1072.89 26.4358C1073.16 26.1647 1073.91 25.8936 1075.13 25.6224C1076.35 25.2157 1077.16 24.8768 1077.57 24.6057C1079.6 23.7922 1081.77 22.5721 1084.07 20.9453C1086.51 19.1829 1089.02 17.4883 1091.6 15.8615C1094.17 14.0991 1096.75 12.6079 1099.32 11.3877C1101.9 10.1676 1104.34 9.55757 1106.65 9.55757C1108.95 9.55757 1111.59 10.0998 1114.58 11.1844C1117.56 12.1334 1120.07 12.9468 1122.1 13.6246C1125.76 14.8447 1129.29 15.9971 1132.67 17.0816C1136.06 18.1662 1139.05 19.5896 1141.62 21.352C1144.33 23.1144 1146.43 25.3513 1147.93 28.0627C1149.55 30.774 1150.37 34.2988 1150.37 38.637C1150.37 40.1282 1150.16 42.2973 1149.76 45.1443C1149.48 47.8556 1148.94 50.567 1148.13 53.2784C1147.32 55.8542 1146.16 58.1588 1144.67 60.1924C1143.18 62.0903 1141.28 63.0393 1138.98 63.0393H1137.76C1137.49 62.7682 1137.01 61.8192 1136.33 60.1924C1135.66 58.5655 1135.18 57.6166 1134.91 57.3454C1133.01 53.9562 1130.91 50.7026 1128.61 47.5845C1126.44 44.4664 1123.93 41.7551 1121.08 39.4504C1118.37 37.0102 1115.39 35.1122 1112.14 33.7565C1108.88 32.4008 1105.22 31.723 1101.15 31.723C1099.93 31.723 1098.51 31.7908 1096.88 31.9264C1095.26 32.0619 1093.83 32.5364 1092.61 33.3498C1088 36.8746 1084.48 40.6027 1082.04 44.5342C1079.73 48.4657 1078.58 53.4139 1078.58 59.3789C1078.58 62.6326 1079.33 65.6151 1080.82 68.3265C1082.31 70.9023 1084.21 73.2069 1086.51 75.2404C1088.82 77.274 1091.39 79.0364 1094.24 80.5276C1097.09 82.0189 1099.87 83.1712 1102.58 83.9846C1102.71 84.1202 1103.19 84.2557 1104 84.3913C1104.81 84.5269 1105.7 84.6624 1106.65 84.798C1107.73 84.9336 1108.68 85.0691 1109.49 85.2047C1110.31 85.3403 1110.78 85.4081 1110.92 85.4081C1111.19 85.4081 1111.66 85.6792 1112.34 86.2215C1113.02 86.6282 1113.49 86.8315 1113.76 86.8315C1116.74 89.0006 1119.8 91.1697 1122.91 93.3388C1126.17 95.3723 1129.29 97.5414 1132.27 99.8461C1135.39 102.015 1138.37 104.388 1141.22 106.963C1144.06 109.539 1146.64 112.318 1148.94 115.301C1149.08 115.436 1149.35 115.911 1149.76 116.724C1150.16 117.538 1150.57 118.487 1150.98 119.571C1151.52 120.52 1151.99 121.537 1152.4 122.622C1152.81 123.571 1153.15 124.316 1153.42 124.858C1153.42 125.13 1153.42 125.672 1153.42 126.485C1153.55 127.299 1153.69 128.18 1153.82 129.129C1153.96 130.078 1154.09 131.027 1154.23 131.976C1154.5 132.789 1154.7 133.264 1154.84 133.399C1155.38 135.026 1156.06 136.517 1156.87 137.873C1157.69 139.093 1158.43 140.313 1159.11 141.533C1159.92 142.753 1160.6 143.974 1161.14 145.194C1161.69 146.414 1161.96 147.837 1161.96 149.464C1161.96 153.802 1161.01 157.802 1159.11 161.462C1157.21 165.122 1155.31 168.986 1153.42 173.053C1151.65 175.9 1149.35 178.679 1146.5 181.39C1143.66 184.102 1141.28 186.339 1139.38 188.101C1133.96 192.846 1127.73 196.167 1120.68 198.065C1113.63 200.099 1106.85 201.116 1100.34 201.116C1095.46 201.116 1090.51 200.845 1085.5 200.302C1080.48 199.76 1075.8 198.54 1071.47 196.642C1071.33 196.506 1070.86 196.235 1070.04 195.829C1069.23 195.286 1068.28 194.744 1067.19 194.202C1066.25 193.524 1065.3 192.914 1064.35 192.372C1063.53 191.829 1062.99 191.49 1062.72 191.355C1060.01 189.728 1057.57 188.304 1055.4 187.084C1053.37 185.729 1051.67 184.237 1050.32 182.611C1048.96 180.984 1047.94 179.018 1047.27 176.713C1046.59 174.409 1046.25 171.426 1046.25 167.766Z" fill="black"/>
<path d="M1191.15 164.309V141.737C1191.15 141.601 1191.22 141.127 1191.35 140.313C1191.49 139.5 1191.62 138.619 1191.76 137.67C1191.9 136.585 1192.03 135.501 1192.17 134.416C1192.3 133.196 1192.37 132.247 1192.37 131.569C1192.64 131.298 1192.98 130.213 1193.39 128.315C1193.79 126.418 1194 125.13 1194 124.452V98.2193C1194 97.8126 1194.13 96.8636 1194.4 95.3723C1194.81 93.7455 1195.15 92.7965 1195.42 92.5254V58.7689C1195.42 57.9555 1195.15 57.2098 1194.61 56.532C1194.06 55.8542 1193.39 55.3119 1192.57 54.9052C1191.76 54.3629 1190.95 53.9562 1190.13 53.6851C1189.46 53.2784 1188.91 52.9394 1188.51 52.6683C1186.74 51.9905 1185.05 51.5838 1183.42 51.4482C1181.93 51.1771 1180.58 50.8381 1179.36 50.4314C1178.14 49.8892 1177.19 49.1435 1176.51 48.1946C1175.83 47.11 1175.49 45.3476 1175.49 42.9074V40.4672C1175.49 39.9249 1175.56 39.3148 1175.7 38.637C1175.83 38.5014 1176.24 38.0947 1176.92 37.4169C1177.59 36.739 1178.34 36.0612 1179.15 35.3833C1180.1 34.5699 1180.91 33.8243 1181.59 33.1465C1182.27 32.4686 1182.68 31.9941 1182.81 31.723C1183.22 31.4519 1183.69 30.9774 1184.24 30.2995C1184.78 29.4861 1185.32 28.7405 1185.86 28.0627C1186.41 27.2492 1186.88 26.5036 1187.29 25.8258C1187.83 25.1479 1188.24 24.7412 1188.51 24.6057C1191.76 21.0809 1194.4 17.9628 1196.44 15.2514C1198.61 12.4045 1201.11 10.0321 1203.96 8.1341C1205.72 6.64285 1207.69 4.94825 1209.86 3.05029C1212.16 1.01676 1214.4 0 1216.57 0C1220.09 0 1222.81 0.81341 1224.7 2.44023C1226.6 3.93148 1228.02 5.89722 1228.97 8.33745C1230.06 10.6421 1230.87 13.2179 1231.41 16.0649C1231.96 18.9118 1232.63 21.6232 1233.45 24.199H1235.28C1236.09 24.199 1236.84 24.2667 1237.51 24.4023C1238.33 24.5379 1239.07 24.6057 1239.75 24.6057C1240.29 24.6057 1240.84 24.5379 1241.38 24.4023C1242.06 24.2667 1242.67 24.1312 1243.21 23.9956C1244.29 23.5889 1245.31 23.3855 1246.26 23.3855C1247.21 23.25 1248.22 23.1822 1249.31 23.1822C1250.8 23.1822 1252.36 23.25 1253.99 23.3855C1255.61 23.5211 1257.24 23.5889 1258.87 23.5889C1260.63 23.5889 1262.59 23.9956 1264.76 24.809C1267.07 25.4869 1269.24 26.4358 1271.27 27.6559C1273.3 28.8761 1275 30.2995 1276.36 31.9264C1277.71 33.5532 1278.39 35.2478 1278.39 37.0102C1278.39 38.0947 1277.85 39.3148 1276.76 40.6705C1275.81 42.0262 1274.59 43.3141 1273.1 44.5342C1271.61 45.7543 1270.05 46.7711 1268.42 47.5845C1266.93 48.3979 1265.58 48.8046 1264.36 48.8046H1261.51C1261.37 48.8046 1260.97 48.8046 1260.29 48.8046C1259.61 48.669 1258.87 48.6013 1258.05 48.6013C1257.24 48.6013 1256.49 48.6013 1255.82 48.6013C1255.14 48.6013 1254.73 48.6013 1254.6 48.6013H1235.28C1231.62 51.0415 1229.04 53.9562 1227.55 57.3454C1226.33 60.8702 1225.65 64.5305 1225.52 68.3265C1225.52 72.1224 1225.38 75.9861 1225.11 79.9176C1224.43 82.6289 1223.75 85.4759 1223.08 88.4584C1222.53 91.3053 1222.26 94.2878 1222.26 97.4059C1222.26 99.575 1222.47 101.812 1222.87 104.117C1223.42 106.286 1223.69 108.522 1223.69 110.827C1223.69 112.318 1223.35 113.877 1222.67 115.504C1222.13 117.131 1221.86 118.826 1221.86 120.588C1221.86 121.673 1221.92 122.486 1222.06 123.028C1222.06 123.571 1222.13 124.045 1222.26 124.452C1222.26 124.858 1222.4 125.604 1222.67 126.689C1222.94 127.638 1223.28 128.654 1223.69 129.739C1224.09 130.823 1224.43 131.908 1224.7 132.993C1224.97 133.942 1225.11 134.552 1225.11 134.823C1225.11 135.094 1225.25 136.043 1225.52 137.67C1225.79 139.161 1226.06 140.788 1226.33 142.55C1226.74 144.313 1227.01 145.939 1227.14 147.431C1227.41 148.922 1227.55 149.871 1227.55 150.278C1227.82 151.227 1228.02 152.311 1228.16 153.531C1228.43 154.751 1228.77 155.971 1229.18 157.192C1229.58 158.412 1230.13 159.564 1230.8 160.649C1231.48 161.598 1232.36 162.343 1233.45 162.885C1233.99 163.021 1234.74 163.292 1235.68 163.699C1236.77 164.106 1237.79 164.58 1238.73 165.122C1239.82 165.529 1240.77 165.936 1241.58 166.342C1242.53 166.749 1243.07 167.02 1243.21 167.156H1260.29C1262.05 166.207 1263.68 165.258 1265.17 164.309C1266.8 163.224 1268.42 162.275 1270.05 161.462C1271.68 160.513 1273.37 159.767 1275.13 159.225C1276.9 158.547 1278.86 158.208 1281.03 158.208C1283.07 158.208 1284.29 159.022 1284.69 160.649C1285.23 162.14 1285.51 163.834 1285.51 165.732V168.579C1285.51 174.138 1283.74 178.815 1280.22 182.611C1276.69 186.407 1272.36 189.457 1267.2 191.761C1262.19 194.066 1256.83 195.693 1251.14 196.642C1245.58 197.591 1240.63 198.065 1236.29 198.065C1234.67 198.065 1232.84 197.998 1230.8 197.862C1228.91 197.862 1226.87 197.659 1224.7 197.252C1222.67 196.981 1220.64 196.574 1218.6 196.032C1216.57 195.354 1214.81 194.473 1213.32 193.388L1208.03 188.101C1204.91 184.441 1201.79 180.713 1198.67 176.917C1195.56 173.121 1193.05 168.918 1191.15 164.309Z" fill="black"/>
<path d="M1334.63 144.99C1334.63 147.837 1335.58 150.074 1337.47 151.701C1339.51 153.192 1341.88 154.345 1344.59 155.158C1347.3 155.971 1350.15 156.581 1353.13 156.988C1356.12 157.259 1358.56 157.666 1360.45 158.208H1360.66C1363.37 158.208 1366.22 157.395 1369.2 155.768C1372.18 154.006 1374.28 152.175 1375.5 150.278C1375.91 149.6 1376.45 148.651 1377.13 147.431C1377.81 146.21 1378.42 144.99 1378.96 143.77C1379.64 142.55 1380.18 141.466 1380.59 140.517C1381.13 139.568 1381.4 138.958 1381.4 138.686V111.844L1380.18 108.997C1379.91 108.997 1379.3 108.997 1378.35 108.997C1377.54 108.861 1376.93 108.794 1376.52 108.794C1372.86 108.794 1369.47 109.743 1366.35 111.641C1363.23 113.403 1360.18 115.369 1357.2 117.538C1356.52 117.944 1355.57 118.622 1354.35 119.571C1353.13 120.385 1351.91 121.266 1350.69 122.215C1349.61 123.164 1348.59 124.045 1347.64 124.858C1346.83 125.536 1346.35 125.875 1346.22 125.875C1346.08 126.011 1345.74 126.417 1345.2 127.095C1344.66 127.773 1344.05 128.587 1343.37 129.536C1342.83 130.349 1342.29 131.23 1341.75 132.179C1341.2 133.128 1340.73 133.874 1340.32 134.416C1340.05 134.687 1339.78 135.162 1339.51 135.84C1339.37 136.517 1339.3 136.992 1339.3 137.263C1339.03 137.399 1338.63 137.737 1338.08 138.28C1337.68 138.822 1337.2 139.432 1336.66 140.11C1336.25 140.652 1335.85 141.262 1335.44 141.94C1335.03 142.482 1334.76 142.889 1334.63 143.16V144.99ZM1377.94 175.087C1376.72 175.087 1375.57 175.425 1374.48 176.103C1373.4 176.781 1372.32 177.595 1371.23 178.544C1370.28 179.493 1369.33 180.509 1368.38 181.594C1367.57 182.543 1366.76 183.356 1365.94 184.034C1365.81 184.034 1365.4 184.17 1364.72 184.441C1364.05 184.712 1363.44 185.051 1362.89 185.458C1360.45 186.407 1358.08 187.559 1355.78 188.915C1353.47 190.135 1351.17 191.355 1348.86 192.575C1346.56 193.659 1344.12 194.608 1341.54 195.422C1339.1 196.235 1336.59 196.642 1334.02 196.642H1327.71C1327.44 196.371 1326.7 196.1 1325.48 195.829C1324.39 195.422 1323.71 195.083 1323.44 194.812C1323.31 194.812 1322.9 194.812 1322.22 194.812C1321.55 194.676 1320.8 194.541 1319.99 194.405C1319.17 194.269 1318.36 194.134 1317.55 193.998C1316.87 193.863 1316.46 193.659 1316.33 193.388C1315.65 193.253 1314.56 193.049 1313.07 192.778C1311.58 192.507 1310.7 192.372 1310.43 192.372C1308.8 191.287 1307.04 189.457 1305.14 186.881C1303.24 184.305 1301.48 181.458 1299.85 178.34C1298.23 175.222 1296.8 172.104 1295.58 168.986C1294.5 165.868 1293.96 163.224 1293.96 161.055C1293.96 157.937 1294.5 154.887 1295.58 151.904C1296.67 148.922 1297.48 146.007 1298.02 143.16C1302.09 137.06 1306.09 131.772 1310.02 127.299C1313.95 122.825 1319.04 118.758 1325.27 115.098C1325.27 114.962 1325.61 114.759 1326.29 114.487C1326.97 114.081 1327.65 113.742 1328.32 113.471C1329.14 113.064 1329.88 112.725 1330.56 112.454C1331.37 112.183 1331.92 111.979 1332.19 111.844C1333.54 111.166 1334.97 110.285 1336.46 109.2C1337.95 107.98 1339.44 106.828 1340.93 105.743C1342.42 104.523 1343.85 103.506 1345.2 102.693C1346.56 101.744 1347.78 101.134 1348.86 100.863C1349.13 100.727 1349.81 100.592 1350.9 100.456C1352.12 100.321 1353.34 100.185 1354.56 100.049C1355.91 99.9139 1357.13 99.7783 1358.22 99.6428C1359.3 99.5072 1360.05 99.3716 1360.45 99.236C1360.59 99.236 1361.2 98.7616 1362.28 97.8126C1363.37 96.8636 1364.05 96.3891 1364.32 96.3891C1364.72 96.2535 1365.74 95.7791 1367.37 94.9656C1369.13 94.1522 1370.96 93.271 1372.86 92.3221C1374.76 91.3731 1376.52 90.4919 1378.15 89.6785C1379.91 88.7295 1380.99 88.1194 1381.4 87.8483C1382.75 87.0349 1383.84 85.8826 1384.65 84.3913C1385.47 82.9001 1386.01 81.341 1386.28 79.7142C1386.69 78.0874 1386.89 76.4606 1386.89 74.8337C1387.02 73.2069 1387.09 71.7157 1387.09 70.36C1387.09 63.8527 1386.21 57.9555 1384.45 52.6683C1382.82 47.3811 1379.84 42.1618 1375.5 37.0102C1375.23 36.3323 1374.48 35.5189 1373.26 34.5699C1372.18 33.621 1371.5 33.1465 1371.23 33.1465H1359.03C1357.4 34.6377 1355.51 35.9934 1353.34 37.2135C1351.17 38.2981 1349.68 39.7215 1348.86 41.4839C1347.24 44.4664 1345.54 47.6523 1343.78 51.0415C1342.15 54.4307 1341 57.8199 1340.32 61.2091C1339.91 61.6158 1339.1 62.2937 1337.88 63.2426C1336.66 64.0561 1335.37 64.8695 1334.02 65.6829C1332.8 66.4963 1331.58 67.3097 1330.36 68.1231C1329.14 68.8009 1328.26 69.2754 1327.71 69.5466C1327.58 69.5466 1327.17 69.6144 1326.49 69.7499C1325.82 69.7499 1325 69.7499 1324.05 69.7499C1323.24 69.7499 1322.36 69.8177 1321.41 69.9533C1320.46 69.9533 1319.72 69.9533 1319.17 69.9533C1318.9 69.9533 1318.36 69.9533 1317.55 69.9533C1316.73 69.8177 1315.85 69.7499 1314.9 69.7499C1313.95 69.7499 1313.07 69.7499 1312.26 69.7499C1311.45 69.6144 1310.84 69.5466 1310.43 69.5466C1309.07 68.7332 1307.65 67.7842 1306.16 66.6996C1304.67 65.4795 1303.31 64.2594 1302.09 63.0393C1300.87 61.6836 1299.85 60.2601 1299.04 58.7689C1298.23 57.1421 1297.82 55.3797 1297.82 53.4817C1297.82 51.4482 1298.02 49.6858 1298.43 48.1946C1298.97 46.7033 1299.58 45.2798 1300.26 43.9242C1301.07 42.5685 1302.02 41.2806 1303.11 40.0605C1304.19 38.7048 1305.34 37.2813 1306.57 35.79C1307.65 34.2988 1308.46 33.0787 1309.01 32.1297C1309.68 31.0452 1310.77 29.9606 1312.26 28.8761C1313.07 28.1982 1313.82 27.7915 1314.5 27.6559C1315.17 27.3848 1315.85 27.2492 1316.53 27.2492C1317.34 27.1137 1318.16 26.9781 1318.97 26.8425C1319.78 26.707 1320.8 26.4358 1322.02 26.0291C1322.56 25.8936 1323.78 25.3513 1325.68 24.4023C1327.58 23.3178 1329.61 22.2332 1331.78 21.1487C1334.09 19.9285 1336.19 18.844 1338.08 17.895C1339.98 16.8105 1341.2 16.1326 1341.75 15.8615C1342.02 15.7259 1342.56 15.6581 1343.37 15.6581C1344.19 15.5226 1345 15.387 1345.81 15.2514C1346.76 15.1159 1347.64 15.0481 1348.46 15.0481C1349.27 14.9125 1349.81 14.8447 1350.08 14.8447C1353.88 13.8958 1357.47 12.6756 1360.86 11.1844C1364.38 9.55757 1368.11 8.74416 1372.04 8.74416H1374.48C1380.18 9.69314 1386.21 10.981 1392.58 12.6079C1398.95 14.0991 1404.65 16.6749 1409.66 20.3353C1410.07 20.742 1410.68 21.352 1411.5 22.1654C1412.44 22.8433 1413.33 23.6567 1414.14 24.6057C1415.09 25.5546 1415.9 26.4358 1416.58 27.2492C1417.26 27.9271 1417.66 28.4694 1417.8 28.8761C1417.93 29.0116 1418.07 29.4861 1418.21 30.2995C1418.48 31.1129 1418.68 31.9941 1418.82 32.9431C1418.95 33.7565 1419.02 34.6377 1419.02 35.5867C1419.15 36.4001 1419.22 36.8746 1419.22 37.0102C1419.22 37.4169 1419.43 38.2303 1419.83 39.4504C1420.37 40.6705 1420.92 42.0262 1421.46 43.5174C1422 45.0087 1422.48 46.3644 1422.88 47.5845C1423.43 48.8046 1423.7 49.618 1423.7 50.0247C1423.7 50.0247 1423.7 51.1771 1423.7 53.4817C1423.83 55.7864 1423.9 58.4977 1423.9 61.6158C1424.04 64.7339 1424.17 67.9197 1424.31 71.1734C1424.44 74.427 1424.58 77.0706 1424.71 79.1041V80.9343C1424.44 81.341 1424.24 81.7477 1424.1 82.1544C1423.83 82.9678 1423.7 83.5101 1423.7 83.7813C1423.43 84.0524 1423.09 84.798 1422.68 86.0181C1422.41 87.1027 1422.27 87.7127 1422.27 87.8483C1422.14 88.255 1422 89.5429 1421.87 91.712C1421.73 93.7455 1421.59 95.9824 1421.46 98.4226C1421.32 100.727 1421.19 102.964 1421.05 105.133C1420.92 107.167 1420.85 108.455 1420.85 108.997C1420.85 109.404 1420.58 110.149 1420.04 111.234C1419.63 112.318 1419.36 112.996 1419.22 113.267C1418.82 115.708 1418.54 117.877 1418.41 119.775C1418.27 121.537 1418.14 123.299 1418 125.062C1417.87 126.824 1417.8 128.587 1417.8 130.349C1417.8 132.111 1417.8 134.145 1417.8 136.45V147.024C1418.07 147.702 1418.54 148.922 1419.22 150.684C1420.04 152.447 1420.58 153.599 1420.85 154.141C1421.8 156.446 1423.29 158.14 1425.32 159.225C1427.49 160.174 1429.86 160.92 1432.44 161.462C1435.15 161.869 1437.86 162.208 1440.57 162.479C1443.29 162.75 1445.79 163.224 1448.1 163.902C1450.4 164.444 1452.3 165.461 1453.79 166.952C1455.28 168.444 1456.03 170.613 1456.03 173.46C1456.03 175.629 1454.94 178.205 1452.78 181.187C1450.74 184.17 1448.23 187.017 1445.25 189.728C1442.27 192.439 1439.15 194.744 1435.9 196.642C1432.64 198.54 1429.86 199.489 1427.56 199.489H1423.7C1423.43 199.489 1422.61 199.218 1421.26 198.675C1420.04 198.269 1419.36 198.065 1419.22 198.065C1418.82 197.93 1417.93 197.794 1416.58 197.659C1415.22 197.523 1413.73 197.388 1412.11 197.252C1410.48 197.252 1408.99 197.184 1407.63 197.049C1406.28 196.913 1405.39 196.777 1404.99 196.642C1402.82 195.829 1400.51 194.269 1398.07 191.965C1395.63 189.525 1393.19 187.084 1390.75 184.644C1388.45 182.204 1386.14 180.035 1383.84 178.137C1381.67 176.103 1379.7 175.087 1377.94 175.087Z" fill="black"/>
<path d="M1476.48 164.309V141.737C1476.48 141.601 1476.55 141.127 1476.68 140.313C1476.82 139.5 1476.95 138.619 1477.09 137.67C1477.22 136.585 1477.36 135.501 1477.5 134.416C1477.63 133.196 1477.7 132.247 1477.7 131.569C1477.97 131.298 1478.31 130.213 1478.72 128.315C1479.12 126.418 1479.33 125.13 1479.33 124.452V98.2193C1479.33 97.8126 1479.46 96.8636 1479.73 95.3723C1480.14 93.7455 1480.48 92.7965 1480.75 92.5254V58.7689C1480.75 57.9555 1480.48 57.2098 1479.94 56.532C1479.39 55.8542 1478.72 55.3119 1477.9 54.9052C1477.09 54.3629 1476.28 53.9562 1475.46 53.6851C1474.78 53.2784 1474.24 52.9394 1473.83 52.6683C1472.07 51.9905 1470.38 51.5838 1468.75 51.4482C1467.26 51.1771 1465.9 50.8381 1464.68 50.4314C1463.46 49.8892 1462.51 49.1435 1461.84 48.1946C1461.16 47.11 1460.82 45.3476 1460.82 42.9074V40.4672C1460.82 39.9249 1460.89 39.3148 1461.02 38.637C1461.16 38.5014 1461.57 38.0947 1462.24 37.4169C1462.92 36.739 1463.67 36.0612 1464.48 35.3833C1465.43 34.5699 1466.24 33.8243 1466.92 33.1465C1467.6 32.4686 1468.01 31.9941 1468.14 31.723C1468.55 31.4519 1469.02 30.9774 1469.56 30.2995C1470.11 29.4861 1470.65 28.7405 1471.19 28.0627C1471.73 27.2492 1472.21 26.5036 1472.61 25.8258C1473.16 25.1479 1473.56 24.7412 1473.83 24.6057C1477.09 21.0809 1479.73 17.9628 1481.77 15.2514C1483.93 12.4045 1486.44 10.0321 1489.29 8.1341C1491.05 6.64285 1493.02 4.94825 1495.19 3.05029C1497.49 1.01676 1499.73 0 1501.9 0C1505.42 0 1508.13 0.81341 1510.03 2.44023C1511.93 3.93148 1513.35 5.89722 1514.3 8.33745C1515.39 10.6421 1516.2 13.2179 1516.74 16.0649C1517.28 18.9118 1517.96 21.6232 1518.78 24.199H1520.61C1521.42 24.199 1522.16 24.2667 1522.84 24.4023C1523.66 24.5379 1524.4 24.6057 1525.08 24.6057C1525.62 24.6057 1526.16 24.5379 1526.71 24.4023C1527.38 24.2667 1527.99 24.1312 1528.54 23.9956C1529.62 23.5889 1530.64 23.3855 1531.59 23.3855C1532.54 23.25 1533.55 23.1822 1534.64 23.1822C1536.13 23.1822 1537.69 23.25 1539.31 23.3855C1540.94 23.5211 1542.57 23.5889 1544.19 23.5889C1545.96 23.5889 1547.92 23.9956 1550.09 24.809C1552.4 25.4869 1554.57 26.4358 1556.6 27.6559C1558.63 28.8761 1560.33 30.2995 1561.68 31.9264C1563.04 33.5532 1563.72 35.2478 1563.72 37.0102C1563.72 38.0947 1563.17 39.3148 1562.09 40.6705C1561.14 42.0262 1559.92 43.3141 1558.43 44.5342C1556.94 45.7543 1555.38 46.7711 1553.75 47.5845C1552.26 48.3979 1550.91 48.8046 1549.69 48.8046H1546.84C1546.7 48.8046 1546.3 48.8046 1545.62 48.8046C1544.94 48.669 1544.19 48.6013 1543.38 48.6013C1542.57 48.6013 1541.82 48.6013 1541.14 48.6013C1540.47 48.6013 1540.06 48.6013 1539.92 48.6013H1520.61C1516.95 51.0415 1514.37 53.9562 1512.88 57.3454C1511.66 60.8702 1510.98 64.5305 1510.84 68.3265C1510.84 72.1224 1510.71 75.9861 1510.44 79.9176C1509.76 82.6289 1509.08 85.4759 1508.4 88.4584C1507.86 91.3053 1507.59 94.2878 1507.59 97.4059C1507.59 99.575 1507.79 101.812 1508.2 104.117C1508.74 106.286 1509.01 108.522 1509.01 110.827C1509.01 112.318 1508.68 113.877 1508 115.504C1507.46 117.131 1507.18 118.826 1507.18 120.588C1507.18 121.673 1507.25 122.486 1507.39 123.028C1507.39 123.571 1507.46 124.045 1507.59 124.452C1507.59 124.858 1507.73 125.604 1508 126.689C1508.27 127.638 1508.61 128.654 1509.01 129.739C1509.42 130.823 1509.76 131.908 1510.03 132.993C1510.3 133.942 1510.44 134.552 1510.44 134.823C1510.44 135.094 1510.57 136.043 1510.84 137.67C1511.12 139.161 1511.39 140.788 1511.66 142.55C1512.07 144.313 1512.34 145.939 1512.47 147.431C1512.74 148.922 1512.88 149.871 1512.88 150.278C1513.15 151.227 1513.35 152.311 1513.49 153.531C1513.76 154.751 1514.1 155.971 1514.51 157.192C1514.91 158.412 1515.45 159.564 1516.13 160.649C1516.81 161.598 1517.69 162.343 1518.78 162.885C1519.32 163.021 1520.06 163.292 1521.01 163.699C1522.1 164.106 1523.11 164.58 1524.06 165.122C1525.15 165.529 1526.1 165.936 1526.91 166.342C1527.86 166.749 1528.4 167.02 1528.54 167.156H1545.62C1547.38 166.207 1549.01 165.258 1550.5 164.309C1552.13 163.224 1553.75 162.275 1555.38 161.462C1557.01 160.513 1558.7 159.767 1560.46 159.225C1562.23 158.547 1564.19 158.208 1566.36 158.208C1568.39 158.208 1569.61 159.022 1570.02 160.649C1570.56 162.14 1570.83 163.834 1570.83 165.732V168.579C1570.83 174.138 1569.07 178.815 1565.55 182.611C1562.02 186.407 1557.68 189.457 1552.53 191.761C1547.52 194.066 1542.16 195.693 1536.47 196.642C1530.91 197.591 1525.96 198.065 1521.62 198.065C1520 198.065 1518.17 197.998 1516.13 197.862C1514.23 197.862 1512.2 197.659 1510.03 197.252C1508 196.981 1505.96 196.574 1503.93 196.032C1501.9 195.354 1500.14 194.473 1498.64 193.388L1493.36 188.101C1490.24 184.441 1487.12 180.713 1484 176.917C1480.88 173.121 1478.38 168.918 1476.48 164.309Z" fill="black"/>
<path d="M1626.87 51.0415C1626.87 54.2951 1627.62 56.6676 1629.11 58.1588C1630.6 59.5145 1632.43 60.3957 1634.6 60.8024C1636.9 61.2091 1639.34 61.4125 1641.92 61.4125C1644.63 61.2769 1647.07 61.3447 1649.24 61.6158C1649.51 61.6158 1650.05 61.887 1650.87 62.4292C1651.68 62.8359 1652.22 63.0393 1652.49 63.0393C1655.2 63.8527 1657.24 64.3272 1658.59 64.4628C1659.95 64.5983 1661.98 64.6661 1664.69 64.6661C1667.27 64.6661 1669.91 64.5983 1672.62 64.4628C1675.34 64.1916 1677.78 63.6493 1679.94 62.8359C1682.25 62.0225 1684.08 60.7346 1685.44 58.9722C1686.93 57.2099 1687.67 54.7696 1687.67 51.6515C1687.67 47.7201 1686.99 43.653 1685.64 39.4504C1684.42 35.1122 1682.25 31.723 1679.13 29.2828C1678.45 29.2828 1677.37 29.215 1675.88 29.0794C1674.52 28.9438 1673.03 28.8083 1671.4 28.6727C1669.78 28.5371 1668.15 28.4016 1666.52 28.266C1665.03 27.9949 1663.95 27.8593 1663.27 27.8593C1663 27.7237 1662.66 27.5204 1662.25 27.2492C1661.44 26.707 1660.97 26.4358 1660.83 26.4358H1657.37C1654.53 26.4358 1651.27 27.1815 1647.61 28.6727C1644.09 30.0284 1640.77 31.8586 1637.65 34.1632C1634.66 36.4679 1632.09 39.1115 1629.92 42.094C1627.89 44.9409 1626.87 47.9234 1626.87 51.0415ZM1580.3 101.27C1580.3 93.271 1581.18 85.2047 1582.95 77.0706C1584.84 68.8009 1588.16 61.2769 1592.91 54.4985C1593.86 53.1428 1595.21 51.3804 1596.98 49.2113C1598.74 46.9067 1600.43 44.6698 1602.06 42.5007C1603.82 40.196 1605.31 38.1625 1606.53 36.4001C1607.75 34.6377 1608.43 33.621 1608.57 33.3498C1610.33 31.1807 1612.64 29.1472 1615.48 27.2492C1618.33 25.3513 1621.31 23.5211 1624.43 21.7587C1627.55 19.9963 1630.67 18.3017 1633.78 16.6749C1636.9 14.9125 1639.61 13.2179 1641.92 11.5911C1644.63 11.0488 1647.34 10.6421 1650.05 10.371C1652.76 9.96428 1655.47 9.76092 1658.19 9.76092C1662.66 9.76092 1666.73 10.2354 1670.39 11.1844C1673.23 13.0823 1676.28 14.3025 1679.54 14.8447C1682.79 15.2514 1685.98 15.9293 1689.1 16.8783C1691.67 17.5561 1694.18 18.6406 1696.62 20.1319C1699.2 21.4876 1701.5 23.1822 1703.53 25.2157C1705.7 27.1137 1707.67 29.215 1709.43 31.5196C1711.33 33.6887 1712.96 35.8578 1714.31 38.0269C1714.45 38.1625 1714.65 38.5014 1714.92 39.0437C1715.19 39.586 1715.46 40.196 1715.73 40.8739C1716.14 41.4161 1716.48 41.9584 1716.75 42.5007C1717.02 43.043 1717.16 43.3819 1717.16 43.5174C1717.84 44.4664 1718.72 45.551 1719.8 46.7711C1721.02 47.8556 1722.17 49.0758 1723.26 50.4314C1724.34 51.6515 1725.22 53.0072 1725.9 54.4985C1726.72 55.8542 1727.12 57.2776 1727.12 58.7689C1727.12 59.8534 1727.05 61.2091 1726.92 62.8359C1726.78 64.3272 1726.51 65.8862 1726.11 67.513C1725.7 69.0043 1725.09 70.4278 1724.28 71.7835C1723.6 73.1391 1722.65 74.0881 1721.43 74.6304C1721.16 74.6304 1720.62 74.766 1719.8 75.0371C1719.12 75.3082 1718.31 75.6471 1717.36 76.0539C1716.41 76.325 1715.46 76.5961 1714.51 76.8673C1713.7 77.1384 1713.16 77.3418 1712.89 77.4773C1712.75 77.4773 1712.28 77.6807 1711.46 78.0874C1710.79 78.3585 1710.38 78.5619 1710.24 78.6974C1708.48 78.6974 1705.77 78.7652 1702.11 78.9008C1698.59 78.9008 1694.52 78.9686 1689.91 79.1041C1685.44 79.1041 1680.69 79.1719 1675.67 79.3075C1670.66 79.4431 1665.85 79.5786 1661.24 79.7142C1656.76 79.8498 1652.7 79.9853 1649.04 80.1209C1645.37 80.1209 1642.66 80.1209 1640.9 80.1209C1640.36 80.1209 1639.34 80.1887 1637.85 80.3243C1636.36 80.3243 1634.8 80.392 1633.17 80.5276C1631.55 80.6632 1629.99 80.8665 1628.5 81.1377C1627.14 81.2732 1626.19 81.4088 1625.65 81.5444C1622.12 84.3913 1619.75 87.8483 1618.53 91.9154C1617.45 95.8468 1616.91 100.049 1616.91 104.523C1616.91 109.404 1617.38 113.674 1618.33 117.334C1619.28 120.859 1620.7 124.926 1622.6 129.536C1622.87 129.807 1623.14 130.349 1623.41 131.162C1623.82 131.84 1624.02 132.315 1624.02 132.586C1624.16 132.721 1624.5 133.06 1625.04 133.603C1625.72 134.009 1626.33 134.552 1626.87 135.229C1627.55 135.772 1628.16 136.382 1628.7 137.06C1629.24 137.602 1629.51 138.009 1629.51 138.28C1629.65 138.415 1630.06 138.89 1630.73 139.703C1631.55 140.381 1632.36 141.194 1633.17 142.143C1633.99 143.092 1634.73 144.041 1635.41 144.99C1636.09 145.804 1636.5 146.346 1636.63 146.617C1636.9 146.617 1637.17 146.821 1637.44 147.227C1637.85 147.634 1638.19 147.837 1638.46 147.837C1639.68 148.922 1641.17 150.21 1642.93 151.701C1644.83 153.192 1646.66 154.616 1648.43 155.971C1650.46 157.598 1652.63 159.225 1654.93 160.852C1660.76 162.479 1666.39 163.292 1671.81 163.292C1677.23 163.292 1683 162.479 1689.1 160.852C1692.62 158.683 1696.21 157.056 1699.87 155.971C1703.67 154.751 1707.47 153.531 1711.26 152.311C1711.53 152.04 1712.07 151.769 1712.89 151.498C1713.7 151.091 1714.18 150.752 1714.31 150.481H1715.73C1716.68 150.888 1717.84 151.43 1719.19 152.108C1720.68 152.786 1721.43 153.328 1721.43 153.735C1721.7 154.006 1721.97 155.022 1722.24 156.785C1722.65 158.547 1722.85 159.903 1722.85 160.852C1722.85 163.157 1722.17 165.868 1720.82 168.986C1719.6 172.104 1718.38 174.409 1717.16 175.9C1717.16 176.171 1716.34 176.849 1714.72 177.933C1713.23 179.018 1712.07 179.831 1711.26 180.374C1706.92 183.221 1702.65 186.271 1698.45 189.525C1694.25 192.643 1689.71 195.151 1684.83 197.049C1684.55 197.184 1683.88 197.32 1682.79 197.455C1681.84 197.726 1680.83 197.93 1679.74 198.065C1678.66 198.201 1677.64 198.337 1676.69 198.472C1675.74 198.608 1675.2 198.675 1675.06 198.675C1672.49 199.353 1670.25 199.963 1668.35 200.506C1666.59 201.183 1664.49 201.522 1662.05 201.522C1659.75 201.522 1657.64 201.183 1655.75 200.506C1653.85 199.963 1651.68 199.353 1649.24 198.675C1648.02 198.404 1646.26 197.93 1643.95 197.252C1641.78 196.71 1639.48 196.032 1637.04 195.218C1634.6 194.405 1632.29 193.524 1630.12 192.575C1628.09 191.626 1626.6 190.745 1625.65 189.931C1625.24 189.796 1624.5 189.186 1623.41 188.101C1622.33 187.017 1621.11 185.864 1619.75 184.644C1618.53 183.424 1617.38 182.272 1616.3 181.187C1615.21 180.103 1614.47 179.425 1614.06 179.154C1613.92 178.882 1613.25 178.34 1612.03 177.527C1610.8 176.713 1610.13 176.171 1609.99 175.9C1609.31 175.629 1608.5 175.019 1607.55 174.07C1606.6 172.985 1605.99 172.307 1605.72 172.036C1605.31 171.494 1604.43 170.274 1603.08 168.376C1601.86 166.342 1600.5 164.173 1599.01 161.869C1597.52 159.564 1596.03 157.327 1594.54 155.158C1593.18 152.989 1592.23 151.43 1591.69 150.481C1589.79 147.77 1588.5 145.058 1587.83 142.347C1587.28 139.635 1586.67 136.721 1586 133.603C1586 133.467 1585.72 132.857 1585.18 131.772C1584.78 130.552 1584.57 129.807 1584.57 129.536C1582.81 125.469 1581.66 120.927 1581.12 115.911C1580.57 110.759 1580.3 105.879 1580.3 101.27Z" fill="black"/>
<path d="M1739.03 167.766V162.885C1739.03 162.614 1739.44 161.733 1740.25 160.242C1741.06 158.751 1741.47 157.869 1741.47 157.598C1742.15 155.971 1742.76 154.209 1743.3 152.311C1743.84 150.278 1744.45 148.38 1745.13 146.617C1745.94 144.855 1746.96 143.364 1748.18 142.143C1749.4 140.923 1751.16 140.313 1753.47 140.313H1755.5C1755.91 140.313 1756.45 140.923 1757.13 142.143C1757.81 143.364 1758.35 144.313 1758.76 144.99C1760.52 148.244 1762.42 151.972 1764.45 156.175C1766.62 160.242 1769.06 164.038 1771.77 167.563C1774.48 171.087 1777.67 174.07 1781.33 176.51C1784.99 178.95 1789.19 180.17 1793.94 180.17C1795.7 180.17 1797.94 179.56 1800.65 178.34C1803.36 176.985 1806 175.425 1808.58 173.663C1811.29 171.901 1813.66 170.071 1815.69 168.173C1817.86 166.139 1819.15 164.377 1819.56 162.885C1820.1 161.123 1820.58 159.496 1820.98 158.005C1821.39 156.514 1821.59 154.955 1821.59 153.328C1821.59 150.616 1820.91 147.837 1819.56 144.99C1819.56 143.364 1818.14 141.127 1815.29 138.28C1812.58 135.433 1809.39 132.654 1805.73 129.942C1802.07 127.095 1798.55 124.52 1795.16 122.215C1791.77 119.91 1789.46 118.419 1788.24 117.741C1786.75 117.199 1785.19 116.928 1783.57 116.928C1782.07 116.792 1780.79 116.25 1779.7 115.301C1779.7 115.03 1779.36 114.623 1778.68 114.081C1778.14 113.539 1777.53 112.996 1776.85 112.454C1776.31 111.776 1775.7 111.166 1775.02 110.624C1774.48 110.082 1774.21 109.81 1774.21 109.81C1773.94 109.268 1773.06 108.522 1771.57 107.573C1770.08 106.489 1769.06 105.676 1768.52 105.133L1765.67 103.71L1754.49 92.5254C1753.54 90.2207 1752.72 87.9161 1752.05 85.6114C1751.5 83.3068 1750.89 80.9343 1750.22 78.4941C1750.08 77.8162 1749.81 76.8673 1749.4 75.6472C1749.13 74.427 1748.86 73.2747 1748.59 72.1902C1748.32 70.97 1748.05 69.9533 1747.78 69.1399C1747.5 68.1909 1747.37 67.6486 1747.37 67.513C1747.1 63.8527 1747.37 60.0568 1748.18 56.1253C1749 52.0583 1750.22 48.1946 1751.84 44.5342C1753.6 40.8739 1755.64 37.4847 1757.94 34.3666C1760.25 31.1129 1762.82 28.4694 1765.67 26.4358C1765.94 26.1647 1766.69 25.8936 1767.91 25.6224C1769.13 25.2157 1769.94 24.8768 1770.35 24.6057C1772.38 23.7922 1774.55 22.5721 1776.85 20.9453C1779.29 19.1829 1781.8 17.4883 1784.38 15.8615C1786.95 14.0991 1789.53 12.6079 1792.11 11.3877C1794.68 10.1676 1797.12 9.55757 1799.43 9.55757C1801.73 9.55757 1804.37 10.0998 1807.36 11.1844C1810.34 12.1334 1812.85 12.9468 1814.88 13.6246C1818.54 14.8447 1822.07 15.9971 1825.46 17.0816C1828.84 18.1662 1831.83 19.5896 1834.4 21.352C1837.11 23.1144 1839.22 25.3513 1840.71 28.0627C1842.33 30.774 1843.15 34.2988 1843.15 38.637C1843.15 40.1282 1842.94 42.2973 1842.54 45.1443C1842.27 47.8556 1841.72 50.567 1840.91 53.2784C1840.1 55.8542 1838.94 58.1588 1837.45 60.1924C1835.96 62.0903 1834.06 63.0393 1831.76 63.0393H1830.54C1830.27 62.7682 1829.79 61.8192 1829.12 60.1924C1828.44 58.5655 1827.96 57.6166 1827.69 57.3454C1825.79 53.9562 1823.69 50.7026 1821.39 47.5845C1819.22 44.4664 1816.71 41.7551 1813.86 39.4504C1811.15 37.0102 1808.17 35.1122 1804.92 33.7565C1801.66 32.4008 1798 31.723 1793.94 31.723C1792.72 31.723 1791.29 31.7908 1789.67 31.9264C1788.04 32.0619 1786.62 32.5364 1785.4 33.3498C1780.79 36.8746 1777.26 40.6027 1774.82 44.5342C1772.52 48.4657 1771.36 53.4139 1771.36 59.3789C1771.36 62.6326 1772.11 65.6151 1773.6 68.3265C1775.09 70.9023 1776.99 73.2069 1779.29 75.2404C1781.6 77.274 1784.18 79.0364 1787.02 80.5276C1789.87 82.0189 1792.65 83.1712 1795.36 83.9846C1795.5 84.1202 1795.97 84.2557 1796.78 84.3913C1797.6 84.5269 1798.48 84.6624 1799.43 84.798C1800.51 84.9336 1801.46 85.0691 1802.27 85.2047C1803.09 85.3403 1803.56 85.4081 1803.7 85.4081C1803.97 85.4081 1804.44 85.6792 1805.12 86.2215C1805.8 86.6282 1806.27 86.8315 1806.54 86.8315C1809.53 89.0006 1812.58 91.1697 1815.69 93.3388C1818.95 95.3723 1822.07 97.5414 1825.05 99.8461C1828.17 102.015 1831.15 104.388 1834 106.963C1836.84 109.539 1839.42 112.318 1841.72 115.301C1841.86 115.436 1842.13 115.911 1842.54 116.724C1842.94 117.538 1843.35 118.487 1843.76 119.571C1844.3 120.52 1844.77 121.537 1845.18 122.622C1845.59 123.571 1845.93 124.316 1846.2 124.858C1846.2 125.13 1846.2 125.672 1846.2 126.485C1846.33 127.299 1846.47 128.18 1846.6 129.129C1846.74 130.078 1846.88 131.027 1847.01 131.976C1847.28 132.789 1847.49 133.264 1847.62 133.399C1848.16 135.026 1848.84 136.517 1849.65 137.873C1850.47 139.093 1851.21 140.313 1851.89 141.533C1852.7 142.753 1853.38 143.974 1853.93 145.194C1854.47 146.414 1854.74 147.837 1854.74 149.464C1854.74 153.802 1853.79 157.802 1851.89 161.462C1849.99 165.122 1848.1 168.986 1846.2 173.053C1844.44 175.9 1842.13 178.679 1839.28 181.39C1836.44 184.102 1834.06 186.339 1832.17 188.101C1826.74 192.846 1820.51 196.167 1813.46 198.065C1806.41 200.099 1799.63 201.116 1793.12 201.116C1788.24 201.116 1783.29 200.845 1778.28 200.302C1773.26 199.76 1768.58 198.54 1764.25 196.642C1764.11 196.506 1763.64 196.235 1762.82 195.829C1762.01 195.286 1761.06 194.744 1759.98 194.202C1759.03 193.524 1758.08 192.914 1757.13 192.372C1756.32 191.829 1755.77 191.49 1755.5 191.355C1752.79 189.728 1750.35 188.304 1748.18 187.084C1746.15 185.729 1744.45 184.237 1743.1 182.611C1741.74 180.984 1740.73 179.018 1740.05 176.713C1739.37 174.409 1739.03 171.426 1739.03 167.766Z" fill="black"/>
</svg>
