<svg width="3514" height="379" viewBox="0 0 3514 379" fill="none" xmlns="http://www.w3.org/2000/svg">
<path d="M1855.33 108.282C1855.33 113.26 1856.47 116.89 1858.76 119.172C1861.04 121.246 1863.84 122.594 1867.16 123.216C1870.68 123.839 1874.42 124.15 1878.36 124.15C1882.51 123.942 1886.24 124.046 1889.56 124.461C1889.97 124.461 1890.8 124.876 1892.05 125.705C1893.29 126.328 1894.12 126.639 1894.54 126.639C1898.68 127.883 1901.8 128.609 1903.87 128.817C1905.94 129.024 1909.06 129.128 1913.2 129.128C1917.14 129.128 1921.19 129.024 1925.34 128.817C1929.49 128.402 1933.22 127.572 1936.54 126.328C1940.07 125.083 1942.87 123.113 1944.94 120.416C1947.22 117.72 1948.36 113.986 1948.36 109.215C1948.36 103.2 1947.33 96.9773 1945.25 90.5472C1943.38 83.9096 1940.07 78.724 1935.29 74.9904C1934.26 74.9904 1932.6 74.8867 1930.32 74.6793C1928.24 74.4719 1925.96 74.2644 1923.47 74.057C1920.98 73.8496 1918.49 73.6422 1916 73.4347C1913.72 73.0199 1912.06 72.8125 1911.03 72.8125C1910.61 72.6051 1910.09 72.2939 1909.47 71.8791C1908.23 71.0494 1907.5 70.6345 1907.29 70.6345H1902C1897.65 70.6345 1892.67 71.7754 1887.07 74.057C1881.68 76.1313 1876.59 78.9315 1871.82 82.4577C1867.26 85.9839 1863.32 90.0286 1860 94.5919C1856.89 98.9478 1855.33 103.511 1855.33 108.282ZM1784.08 185.132C1784.08 172.894 1785.43 160.553 1788.13 148.107C1791.03 135.454 1796.11 123.942 1803.37 113.571C1804.83 111.497 1806.9 108.8 1809.6 105.482C1812.29 101.955 1814.89 98.533 1817.37 95.2142C1820.07 91.688 1822.35 88.5766 1824.22 85.8801C1826.09 83.1836 1827.12 81.628 1827.33 81.2131C1830.03 77.8943 1833.55 74.783 1837.91 71.8791C1842.27 68.9752 1846.83 66.1749 1851.6 63.4784C1856.37 60.7819 1861.14 58.1891 1865.91 55.7001C1870.68 53.0036 1874.83 50.4108 1878.36 47.9217C1882.51 47.092 1886.65 46.4697 1890.8 46.0549C1894.95 45.4326 1899.1 45.1215 1903.25 45.1215C1910.09 45.1215 1916.32 45.8475 1921.92 47.2994C1926.27 50.2034 1930.94 52.0702 1935.92 52.8999C1940.89 53.5221 1945.77 54.5592 1950.54 56.0112C1954.48 57.0483 1958.32 58.7077 1962.05 60.9894C1965.99 63.0636 1969.52 65.6564 1972.63 68.7677C1975.95 71.6717 1978.96 74.8867 1981.65 78.4129C1984.56 81.7317 1987.05 85.0504 1989.12 88.3692C1989.33 88.5766 1989.64 89.0952 1990.05 89.9249C1990.47 90.7546 1990.88 91.688 1991.3 92.7251C1991.92 93.5548 1992.44 94.3845 1992.85 95.2142C1993.27 96.0439 1993.48 96.5624 1993.48 96.7699C1994.51 98.2218 1995.86 99.8812 1997.52 101.748C1999.39 103.407 2001.15 105.274 2002.81 107.348C2004.47 109.215 2005.82 111.289 2006.86 113.571C2008.1 115.645 2008.72 117.823 2008.72 120.105C2008.72 121.764 2008.62 123.839 2008.41 126.328C2008.2 128.609 2007.79 130.995 2007.17 133.484C2006.54 135.765 2005.61 137.943 2004.37 140.018C2003.33 142.092 2001.88 143.544 2000.01 144.373C1999.6 144.373 1998.77 144.581 1997.52 144.996C1996.48 145.411 1995.24 145.929 1993.79 146.551C1992.34 146.966 1990.88 147.381 1989.43 147.796C1988.19 148.211 1987.36 148.522 1986.94 148.729C1986.74 148.729 1986.01 149.041 1984.76 149.663C1983.73 150.078 1983.11 150.389 1982.9 150.596C1980.2 150.596 1976.05 150.7 1970.45 150.907C1965.06 150.907 1958.84 151.011 1951.78 151.218C1944.94 151.218 1937.68 151.322 1930.01 151.53C1922.33 151.737 1914.97 151.944 1907.91 152.152C1901.07 152.359 1894.85 152.567 1889.25 152.774C1883.65 152.774 1879.5 152.774 1876.8 152.774C1875.97 152.774 1874.42 152.878 1872.13 153.085C1869.85 153.085 1867.47 153.189 1864.98 153.396C1862.49 153.604 1860.1 153.915 1857.82 154.33C1855.75 154.537 1854.3 154.745 1853.47 154.952C1848.07 159.308 1844.44 164.597 1842.58 170.82C1840.92 176.835 1840.09 183.265 1840.09 190.11C1840.09 197.578 1840.81 204.111 1842.27 209.712C1843.72 215.105 1845.9 221.327 1848.8 228.38C1849.21 228.795 1849.63 229.624 1850.04 230.869C1850.67 231.906 1850.98 232.632 1850.98 233.047C1851.18 233.254 1851.7 233.773 1852.53 234.603C1853.57 235.225 1854.5 236.055 1855.33 237.092C1856.37 237.921 1857.3 238.855 1858.13 239.892C1858.96 240.722 1859.38 241.344 1859.38 241.759C1859.59 241.966 1860.21 242.692 1861.24 243.937C1862.49 244.974 1863.73 246.218 1864.98 247.67C1866.22 249.122 1867.36 250.574 1868.4 252.026C1869.44 253.271 1870.06 254.1 1870.27 254.515C1870.68 254.515 1871.1 254.826 1871.51 255.449C1872.13 256.071 1872.65 256.382 1873.07 256.382C1874.93 258.041 1877.22 260.012 1879.91 262.294C1882.82 264.575 1885.62 266.753 1888.31 268.827C1891.42 271.316 1894.74 273.806 1898.27 276.295C1907.19 278.784 1915.8 280.028 1924.09 280.028C1932.39 280.028 1941.21 278.784 1950.54 276.295C1955.93 272.976 1961.43 270.487 1967.03 268.827C1972.84 266.961 1978.65 265.094 1984.45 263.227C1984.87 262.812 1985.7 262.397 1986.94 261.982C1988.19 261.36 1988.91 260.842 1989.12 260.427H1991.3C1992.75 261.049 1994.51 261.879 1996.59 262.916C1998.87 263.953 2000.01 264.783 2000.01 265.405C2000.43 265.82 2000.84 267.375 2001.26 270.072C2001.88 272.768 2002.19 274.843 2002.19 276.295C2002.19 279.821 2001.15 283.969 1999.08 288.74C1997.21 293.511 1995.34 297.037 1993.48 299.319C1993.48 299.733 1992.23 300.771 1989.74 302.43C1987.46 304.089 1985.7 305.334 1984.45 306.164C1977.82 310.519 1971.28 315.187 1964.85 320.165C1958.42 324.935 1951.47 328.773 1944.01 331.677C1943.59 331.884 1942.55 332.091 1940.89 332.299C1939.44 332.714 1937.89 333.025 1936.23 333.232C1934.57 333.44 1933.01 333.647 1931.56 333.855C1930.11 334.062 1929.28 334.166 1929.07 334.166C1925.13 335.203 1921.71 336.136 1918.8 336.966C1916.11 338.003 1912.89 338.522 1909.16 338.522C1905.63 338.522 1902.42 338.003 1899.51 336.966C1896.61 336.136 1893.29 335.203 1889.56 334.166C1887.69 333.751 1884.99 333.025 1881.47 331.988C1878.15 331.158 1874.62 330.121 1870.89 328.876C1867.16 327.632 1863.63 326.284 1860.31 324.832C1857.2 323.38 1854.92 322.031 1853.47 320.787C1852.84 320.58 1851.7 319.646 1850.04 317.987C1848.38 316.327 1846.52 314.564 1844.44 312.697C1842.58 310.831 1840.81 309.068 1839.15 307.408C1837.49 305.749 1836.35 304.712 1835.73 304.297C1835.52 303.882 1834.49 303.052 1832.62 301.808C1830.75 300.563 1829.72 299.733 1829.51 299.319C1828.47 298.904 1827.23 297.97 1825.78 296.518C1824.32 294.859 1823.39 293.822 1822.97 293.407C1822.35 292.577 1821 290.711 1818.93 287.807C1817.06 284.695 1814.99 281.377 1812.71 277.85C1810.43 274.324 1808.14 270.902 1805.86 267.583C1803.79 264.264 1802.34 261.879 1801.51 260.427C1798.6 256.278 1796.63 252.13 1795.59 247.981C1794.77 243.833 1793.83 239.373 1792.79 234.603C1792.79 234.395 1792.38 233.462 1791.55 231.802C1790.93 229.936 1790.62 228.795 1790.62 228.38C1787.92 222.157 1786.16 215.209 1785.33 207.534C1784.5 199.652 1784.08 192.185 1784.08 185.132Z" fill="#38383B"/>
<path d="M2065.17 286.873V279.406C2065.17 278.991 2065.8 277.643 2067.04 275.361C2068.29 273.08 2068.91 271.731 2068.91 271.316C2069.95 268.827 2070.88 266.131 2071.71 263.227C2072.54 260.116 2073.47 257.212 2074.51 254.515C2075.75 251.819 2077.31 249.537 2079.18 247.67C2081.04 245.803 2083.74 244.87 2087.27 244.87H2090.38C2091 244.87 2091.83 245.803 2092.87 247.67C2093.9 249.537 2094.73 250.989 2095.35 252.026C2098.05 257.004 2100.96 262.708 2104.07 269.139C2107.39 275.361 2111.12 281.169 2115.27 286.562C2119.42 291.955 2124.29 296.518 2129.89 300.252C2135.49 303.986 2141.92 305.852 2149.18 305.852C2151.88 305.852 2155.3 304.919 2159.45 303.052C2163.6 300.978 2167.64 298.593 2171.58 295.896C2175.73 293.2 2179.36 290.399 2182.47 287.496C2185.79 284.384 2187.76 281.688 2188.38 279.406C2189.21 276.71 2189.94 274.22 2190.56 271.939C2191.18 269.657 2191.5 267.272 2191.5 264.783C2191.5 260.634 2190.46 256.382 2188.38 252.026C2188.38 249.537 2186.21 246.115 2181.85 241.759C2177.7 237.403 2172.83 233.151 2167.23 229.002C2161.63 224.646 2156.23 220.705 2151.05 217.179C2145.86 213.653 2142.34 211.371 2140.47 210.334C2138.19 209.504 2135.8 209.09 2133.31 209.09C2131.03 208.882 2129.06 208.052 2127.4 206.6C2127.4 206.186 2126.88 205.563 2125.85 204.734C2125.02 203.904 2124.08 203.074 2123.05 202.245C2122.22 201.207 2121.28 200.274 2120.25 199.444C2119.42 198.615 2119 198.2 2119 198.2C2118.59 197.37 2117.24 196.229 2114.96 194.777C2112.67 193.118 2111.12 191.873 2110.29 191.044L2105.93 188.866L2088.82 171.753C2087.37 168.227 2086.12 164.701 2085.09 161.175C2084.26 157.649 2083.32 154.019 2082.29 150.285C2082.08 149.248 2081.66 147.796 2081.04 145.929C2080.63 144.062 2080.21 142.299 2079.8 140.64C2079.38 138.773 2078.97 137.217 2078.55 135.973C2078.14 134.521 2077.93 133.691 2077.93 133.484C2077.52 127.883 2077.93 122.075 2079.18 116.06C2080.42 109.838 2082.29 103.926 2084.78 98.3255C2087.47 92.7251 2090.58 87.5395 2094.11 82.7688C2097.64 77.7906 2101.58 73.7459 2105.93 70.6345C2106.35 70.2197 2107.49 69.8048 2109.36 69.39C2111.22 68.7677 2112.47 68.2492 2113.09 67.8343C2116.2 66.5898 2119.52 64.723 2123.05 62.2339C2126.78 59.5374 2130.62 56.9446 2134.56 54.4555C2138.5 51.759 2142.44 49.4774 2146.38 47.6106C2150.32 45.7438 2154.06 44.8103 2157.58 44.8103C2161.11 44.8103 2165.15 45.64 2169.72 47.2994C2174.28 48.7514 2178.12 49.9959 2181.23 51.033C2186.83 52.8999 2192.22 54.663 2197.41 56.3223C2202.59 57.9817 2207.16 60.1597 2211.1 62.8562C2215.25 65.5527 2218.46 68.9752 2220.74 73.1236C2223.23 77.2721 2224.48 82.6651 2224.48 89.3026C2224.48 91.5843 2224.16 94.9031 2223.54 99.2589C2223.13 103.407 2222.3 107.556 2221.05 111.704C2219.81 115.645 2218.05 119.172 2215.76 122.283C2213.48 125.187 2210.58 126.639 2207.05 126.639H2205.19C2204.77 126.224 2204.04 124.772 2203.01 122.283C2201.97 119.794 2201.24 118.342 2200.83 117.927C2197.93 112.741 2194.71 107.763 2191.18 102.993C2187.87 98.2218 2184.03 94.0734 2179.67 90.5472C2175.52 86.8135 2170.96 83.9096 2165.98 81.8354C2161 79.7612 2155.4 78.724 2149.18 78.724C2147.31 78.724 2145.14 78.8278 2142.65 79.0352C2140.16 79.2426 2137.98 79.9686 2136.11 81.2131C2129.06 86.6061 2123.67 92.3103 2119.93 98.3255C2116.41 104.341 2114.65 111.912 2114.65 121.038C2114.65 126.017 2115.79 130.58 2118.07 134.728C2120.35 138.669 2123.25 142.196 2126.78 145.307C2130.31 148.418 2134.25 151.115 2138.6 153.396C2142.96 155.678 2147.21 157.441 2151.36 158.686C2151.57 158.893 2152.29 159.101 2153.54 159.308C2154.78 159.515 2156.13 159.723 2157.58 159.93C2159.24 160.138 2160.69 160.345 2161.94 160.553C2163.18 160.76 2163.91 160.864 2164.12 160.864C2164.53 160.864 2165.26 161.278 2166.29 162.108C2167.33 162.73 2168.06 163.042 2168.47 163.042C2173.03 166.36 2177.7 169.679 2182.47 172.998C2187.45 176.109 2192.22 179.428 2196.78 182.954C2201.56 186.273 2206.12 189.903 2210.47 193.844C2214.83 197.785 2218.77 202.037 2222.3 206.6C2222.51 206.808 2222.92 207.534 2223.54 208.778C2224.16 210.023 2224.79 211.475 2225.41 213.134C2226.24 214.586 2226.96 216.142 2227.59 217.801C2228.21 219.253 2228.73 220.394 2229.14 221.224C2229.14 221.639 2229.14 222.468 2229.14 223.713C2229.35 224.957 2229.56 226.306 2229.76 227.758C2229.97 229.21 2230.18 230.662 2230.39 232.114C2230.8 233.358 2231.11 234.084 2231.32 234.291C2232.15 236.781 2233.19 239.062 2234.43 241.136C2235.68 243.003 2236.82 244.87 2237.85 246.737C2239.1 248.604 2240.14 250.47 2240.97 252.337C2241.8 254.204 2242.21 256.382 2242.21 258.871C2242.21 265.509 2240.76 271.628 2237.85 277.228C2234.95 282.828 2232.05 288.74 2229.14 294.963C2226.45 299.319 2222.92 303.571 2218.56 307.719C2214.21 311.868 2210.58 315.29 2207.67 317.987C2199.38 325.247 2189.84 330.328 2179.05 333.232C2168.26 336.344 2157.89 337.899 2147.94 337.899C2140.47 337.899 2132.9 337.485 2125.22 336.655C2117.55 335.825 2110.39 333.958 2103.76 331.054C2103.55 330.847 2102.82 330.432 2101.58 329.81C2100.33 328.98 2098.88 328.15 2097.22 327.321C2095.77 326.284 2094.32 325.35 2092.87 324.521C2091.62 323.691 2090.79 323.172 2090.38 322.965C2086.23 320.476 2082.49 318.298 2079.18 316.431C2076.06 314.357 2073.47 312.075 2071.4 309.586C2069.32 307.097 2067.77 304.089 2066.73 300.563C2065.69 297.037 2065.17 292.474 2065.17 286.873Z" fill="#38383B"/>
<path d="M2325.11 281.584V247.048C2325.11 246.841 2325.21 246.115 2325.42 244.87C2325.63 243.626 2325.84 242.277 2326.04 240.825C2326.25 239.166 2326.46 237.507 2326.66 235.847C2326.87 233.98 2326.98 232.528 2326.98 231.491C2327.39 231.076 2327.91 229.417 2328.53 226.513C2329.15 223.609 2329.46 221.639 2329.46 220.602V180.465C2329.46 179.843 2329.67 178.391 2330.09 176.109C2330.71 173.62 2331.23 172.168 2331.64 171.753V120.105C2331.64 118.86 2331.23 117.72 2330.4 116.682C2329.57 115.645 2328.53 114.816 2327.29 114.193C2326.04 113.364 2324.8 112.741 2323.55 112.327C2322.52 111.704 2321.69 111.186 2321.06 110.771C2318.37 109.734 2315.78 109.112 2313.29 108.904C2311 108.489 2308.93 107.971 2307.06 107.348C2305.2 106.519 2303.74 105.378 2302.71 103.926C2301.67 102.267 2301.15 99.5701 2301.15 95.8365V92.1028C2301.15 91.2731 2301.26 90.3397 2301.46 89.3026C2301.67 89.0952 2302.29 88.4729 2303.33 87.4358C2304.37 86.3987 2305.51 85.3616 2306.75 84.3245C2308.2 83.0799 2309.45 81.9391 2310.49 80.902C2311.52 79.8649 2312.15 79.1389 2312.35 78.724C2312.97 78.3092 2313.7 77.5832 2314.53 76.5461C2315.36 75.3016 2316.19 74.1607 2317.02 73.1236C2317.85 71.8791 2318.58 70.7382 2319.2 69.7011C2320.03 68.664 2320.65 68.0417 2321.06 67.8343C2326.04 62.4413 2330.09 57.6706 2333.2 53.5221C2336.52 49.1662 2340.35 45.5363 2344.71 42.6324C2347.41 40.3507 2350.41 37.758 2353.73 34.854C2357.26 31.7427 2360.68 30.187 2364 30.187C2369.39 30.187 2373.54 31.4316 2376.45 33.9206C2379.35 36.2023 2381.53 39.2099 2382.98 42.9435C2384.64 46.4697 2385.88 50.4108 2386.71 54.7667C2387.54 59.1226 2388.58 63.271 2389.83 67.2121H2392.63C2393.87 67.2121 2395.01 67.3158 2396.05 67.5232C2397.29 67.7306 2398.43 67.8343 2399.47 67.8343C2400.3 67.8343 2401.13 67.7306 2401.96 67.5232C2403 67.3158 2403.93 67.1083 2404.76 66.9009C2406.42 66.2787 2407.97 65.9675 2409.43 65.9675C2410.88 65.7601 2412.43 65.6564 2414.09 65.6564C2416.38 65.6564 2418.76 65.7601 2421.25 65.9675C2423.74 66.1749 2426.23 66.2786 2428.72 66.2786C2431.41 66.2786 2434.42 66.9009 2437.74 68.1455C2441.27 69.1826 2444.58 70.6345 2447.7 72.5013C2450.81 74.3682 2453.4 76.5461 2455.47 79.0352C2457.55 81.5243 2458.59 84.117 2458.59 86.8135C2458.59 88.4729 2457.76 90.3397 2456.1 92.414C2454.64 94.4882 2452.78 96.4587 2450.5 98.3255C2448.21 100.192 2445.83 101.748 2443.34 102.993C2441.06 104.237 2438.98 104.859 2437.12 104.859H2432.76C2432.55 104.859 2431.93 104.859 2430.89 104.859C2429.86 104.652 2428.72 104.548 2427.47 104.548C2426.23 104.548 2425.09 104.548 2424.05 104.548C2423.01 104.548 2422.39 104.548 2422.18 104.548H2392.63C2387.02 108.282 2383.08 112.741 2380.8 117.927C2378.94 123.32 2377.9 128.92 2377.69 134.728C2377.69 140.536 2377.48 146.448 2377.07 152.463C2376.03 156.611 2374.99 160.967 2373.96 165.531C2373.13 169.887 2372.71 174.45 2372.71 179.221C2372.71 182.539 2373.02 185.962 2373.65 189.488C2374.48 192.807 2374.89 196.229 2374.89 199.755C2374.89 202.037 2374.37 204.423 2373.33 206.912C2372.51 209.401 2372.09 211.993 2372.09 214.69C2372.09 216.349 2372.19 217.594 2372.4 218.424C2372.4 219.253 2372.51 219.979 2372.71 220.602C2372.71 221.224 2372.92 222.365 2373.33 224.024C2373.75 225.476 2374.27 227.032 2374.89 228.691C2375.51 230.35 2376.03 232.01 2376.45 233.669C2376.86 235.121 2377.07 236.055 2377.07 236.469C2377.07 236.884 2377.28 238.336 2377.69 240.825C2378.11 243.107 2378.52 245.596 2378.94 248.293C2379.56 250.989 2379.97 253.478 2380.18 255.76C2380.59 258.041 2380.8 259.493 2380.8 260.116C2381.22 261.568 2381.53 263.227 2381.74 265.094C2382.15 266.961 2382.67 268.827 2383.29 270.694C2383.91 272.561 2384.74 274.324 2385.78 275.984C2386.82 277.435 2388.17 278.576 2389.83 279.406C2390.65 279.613 2391.8 280.028 2393.25 280.651C2394.91 281.273 2396.46 281.999 2397.91 282.828C2399.57 283.451 2401.03 284.073 2402.27 284.695C2403.72 285.318 2404.55 285.732 2404.76 285.94H2430.89C2433.59 284.488 2436.08 283.036 2438.36 281.584C2440.85 279.925 2443.34 278.473 2445.83 277.228C2448.32 275.776 2450.91 274.635 2453.61 273.806C2456.3 272.768 2459.31 272.25 2462.63 272.25C2465.74 272.25 2467.61 273.494 2468.23 275.984C2469.06 278.265 2469.48 280.858 2469.48 283.762V288.118C2469.48 296.622 2466.78 303.778 2461.39 309.586C2455.99 315.394 2449.36 320.061 2441.47 323.587C2433.8 327.113 2425.61 329.602 2416.89 331.054C2408.39 332.506 2400.82 333.232 2394.18 333.232C2391.69 333.232 2388.89 333.129 2385.78 332.921C2382.88 332.921 2379.77 332.61 2376.45 331.988C2373.34 331.573 2370.22 330.951 2367.11 330.121C2364 329.084 2361.3 327.736 2359.02 326.076L2350.93 317.987C2346.16 312.386 2341.39 306.682 2336.62 300.874C2331.85 295.066 2328.01 288.636 2325.11 281.584Z" fill="#38383B"/>
<path d="M2582.87 252.026C2582.87 256.382 2584.32 259.805 2587.22 262.294C2590.33 264.575 2593.96 266.338 2598.11 267.583C2602.26 268.827 2606.62 269.761 2611.18 270.383C2615.74 270.798 2619.48 271.42 2622.38 272.25H2622.69C2626.84 272.25 2631.2 271.005 2635.76 268.516C2640.32 265.82 2643.54 263.02 2645.4 260.116C2646.03 259.079 2646.86 257.627 2647.89 255.76C2648.93 253.893 2649.86 252.026 2650.69 250.159C2651.73 248.293 2652.56 246.633 2653.18 245.181C2654.01 243.729 2654.43 242.796 2654.43 242.381V201.311L2652.56 196.955C2652.14 196.955 2651.21 196.955 2649.76 196.955C2648.52 196.748 2647.58 196.644 2646.96 196.644C2641.36 196.644 2636.17 198.096 2631.4 201C2626.63 203.697 2621.96 206.704 2617.4 210.023C2616.36 210.645 2614.91 211.682 2613.05 213.134C2611.18 214.379 2609.31 215.727 2607.45 217.179C2605.79 218.631 2604.23 219.979 2602.78 221.224C2601.53 222.261 2600.81 222.779 2600.6 222.779C2600.39 222.987 2599.87 223.609 2599.04 224.646C2598.21 225.683 2597.28 226.928 2596.24 228.38C2595.41 229.624 2594.59 230.973 2593.76 232.425C2592.93 233.877 2592.2 235.017 2591.58 235.847C2591.16 236.262 2590.75 236.988 2590.33 238.025C2590.13 239.062 2590.02 239.788 2590.02 240.203C2589.61 240.41 2588.98 240.929 2588.15 241.759C2587.53 242.588 2586.81 243.522 2585.98 244.559C2585.35 245.389 2584.73 246.322 2584.11 247.359C2583.49 248.189 2583.07 248.811 2582.87 249.226V252.026ZM2649.14 298.074C2647.27 298.074 2645.51 298.593 2643.85 299.63C2642.19 300.667 2640.53 301.911 2638.87 303.363C2637.42 304.815 2635.97 306.371 2634.51 308.03C2633.27 309.482 2632.02 310.727 2630.78 311.764C2630.57 311.764 2629.95 311.971 2628.91 312.386C2627.88 312.801 2626.94 313.32 2626.11 313.942C2622.38 315.394 2618.75 317.157 2615.22 319.231C2611.7 321.098 2608.17 322.965 2604.65 324.832C2601.12 326.491 2597.39 327.943 2593.44 329.188C2589.71 330.432 2585.87 331.054 2581.93 331.054H2572.29C2571.87 330.64 2570.73 330.225 2568.86 329.81C2567.21 329.188 2566.17 328.669 2565.75 328.254C2565.55 328.254 2564.92 328.254 2563.89 328.254C2562.85 328.047 2561.71 327.839 2560.46 327.632C2559.22 327.424 2557.97 327.217 2556.73 327.01C2555.69 326.802 2555.07 326.491 2554.86 326.076C2553.83 325.869 2552.17 325.558 2549.89 325.143C2547.6 324.728 2546.26 324.521 2545.84 324.521C2543.35 322.861 2540.66 320.061 2537.75 316.12C2534.85 312.179 2532.15 307.823 2529.66 303.052C2527.17 298.282 2524.99 293.511 2523.13 288.74C2521.47 283.969 2520.64 279.925 2520.64 276.606C2520.64 271.835 2521.47 267.168 2523.13 262.605C2524.79 258.041 2526.03 253.582 2526.86 249.226C2533.08 239.892 2539.2 231.802 2545.22 224.957C2551.23 218.112 2559.01 211.89 2568.55 206.289C2568.55 206.082 2569.07 205.771 2570.11 205.356C2571.15 204.734 2572.18 204.215 2573.22 203.8C2574.46 203.178 2575.61 202.659 2576.64 202.245C2577.89 201.83 2578.72 201.519 2579.13 201.311C2581.21 200.274 2583.38 198.926 2585.67 197.266C2587.95 195.4 2590.23 193.636 2592.51 191.977C2594.79 190.11 2596.97 188.555 2599.04 187.31C2601.12 185.858 2602.99 184.925 2604.65 184.51C2605.06 184.302 2606.1 184.095 2607.76 183.888C2609.62 183.68 2611.49 183.473 2613.36 183.265C2615.43 183.058 2617.3 182.85 2618.96 182.643C2620.62 182.436 2621.76 182.228 2622.38 182.021C2622.59 182.021 2623.52 181.295 2625.18 179.843C2626.84 178.391 2627.88 177.665 2628.29 177.665C2628.91 177.457 2630.47 176.732 2632.96 175.487C2635.65 174.242 2638.46 172.894 2641.36 171.442C2644.26 169.99 2646.96 168.642 2649.45 167.397C2652.14 165.945 2653.8 165.012 2654.43 164.597C2656.5 163.353 2658.16 161.59 2659.4 159.308C2660.65 157.026 2661.48 154.641 2661.89 152.152C2662.52 149.663 2662.83 147.174 2662.83 144.685C2663.03 142.196 2663.14 139.914 2663.14 137.84C2663.14 127.883 2661.79 118.86 2659.09 110.771C2656.6 102.681 2652.04 94.6956 2645.4 86.8135C2644.99 85.7764 2643.85 84.5319 2641.98 83.0799C2640.32 81.628 2639.28 80.902 2638.87 80.902H2620.2C2617.71 83.1836 2614.81 85.2579 2611.49 87.1247C2608.17 88.7841 2605.89 90.962 2604.65 93.6585C2602.16 98.2218 2599.56 103.096 2596.87 108.282C2594.38 113.467 2592.61 118.653 2591.58 123.839C2590.96 124.461 2589.71 125.498 2587.84 126.95C2585.98 128.194 2584.01 129.439 2581.93 130.684C2580.07 131.928 2578.2 133.173 2576.33 134.417C2574.46 135.454 2573.12 136.18 2572.29 136.595C2572.08 136.595 2571.46 136.699 2570.42 136.906C2569.38 136.906 2568.14 136.906 2566.69 136.906C2565.44 136.906 2564.09 137.01 2562.64 137.217C2561.19 137.217 2560.05 137.217 2559.22 137.217C2558.8 137.217 2557.97 137.217 2556.73 137.217C2555.49 137.01 2554.14 136.906 2552.69 136.906C2551.23 136.906 2549.89 136.906 2548.64 136.906C2547.4 136.699 2546.46 136.595 2545.84 136.595C2543.77 135.351 2541.59 133.899 2539.31 132.239C2537.03 130.372 2534.95 128.506 2533.08 126.639C2531.22 124.565 2529.66 122.387 2528.42 120.105C2527.17 117.616 2526.55 114.919 2526.55 112.015C2526.55 108.904 2526.86 106.208 2527.48 103.926C2528.31 101.644 2529.25 99.4664 2530.28 97.3921C2531.53 95.3179 2532.98 93.3474 2534.64 91.4806C2536.3 89.4063 2538.06 87.2284 2539.93 84.9467C2541.59 82.6651 2542.83 80.7983 2543.66 79.3463C2544.7 77.6869 2546.36 76.0275 2548.64 74.3682C2549.89 73.331 2551.03 72.7088 2552.06 72.5013C2553.1 72.0865 2554.14 71.8791 2555.17 71.8791C2556.42 71.6717 2557.66 71.4642 2558.91 71.2568C2560.15 71.0494 2561.71 70.6345 2563.58 70.0123C2564.4 69.8048 2566.27 68.9752 2569.18 67.5232C2572.08 65.8638 2575.19 64.2044 2578.51 62.545C2582.04 60.6782 2585.25 59.0188 2588.15 57.5669C2591.06 55.9075 2592.93 54.8704 2593.76 54.4555C2594.17 54.2481 2595 54.1444 2596.24 54.1444C2597.49 53.937 2598.73 53.7295 2599.98 53.5221C2601.43 53.3147 2602.78 53.211 2604.02 53.211C2605.27 53.0036 2606.1 52.8999 2606.51 52.8999C2612.32 51.4479 2617.82 49.5811 2623 47.2994C2628.4 44.8103 2634.1 43.5658 2640.11 43.5658H2643.85C2652.56 45.0178 2661.79 46.9883 2671.54 49.4774C2681.29 51.759 2690 55.7001 2697.67 61.3005C2698.3 61.9228 2699.23 62.8562 2700.47 64.1007C2701.93 65.1378 2703.27 66.3824 2704.52 67.8343C2705.97 69.2863 2707.22 70.6345 2708.25 71.8791C2709.29 72.9162 2709.91 73.7459 2710.12 74.3682C2710.33 74.5756 2710.53 75.3016 2710.74 76.5461C2711.16 77.7906 2711.47 79.1389 2711.68 80.5909C2711.88 81.8354 2711.99 83.1836 2711.99 84.6356C2712.19 85.8801 2712.3 86.6061 2712.3 86.8135C2712.3 87.4358 2712.61 88.6804 2713.23 90.5472C2714.06 92.414 2714.89 94.4882 2715.72 96.7699C2716.55 99.0515 2717.28 101.126 2717.9 102.993C2718.73 104.859 2719.14 106.104 2719.14 106.726C2719.14 106.726 2719.14 108.489 2719.14 112.015C2719.35 115.542 2719.45 119.69 2719.45 124.461C2719.66 129.232 2719.87 134.106 2720.08 139.084C2720.28 144.062 2720.49 148.107 2720.7 151.218V154.019C2720.28 154.641 2719.97 155.263 2719.76 155.885C2719.35 157.13 2719.14 157.96 2719.14 158.375C2718.73 158.789 2718.21 159.93 2717.59 161.797C2717.17 163.456 2716.96 164.39 2716.96 164.597C2716.76 165.22 2716.55 167.19 2716.34 170.509C2716.14 173.62 2715.93 177.043 2715.72 180.776C2715.51 184.302 2715.31 187.725 2715.1 191.044C2714.89 194.155 2714.79 196.126 2714.79 196.955C2714.79 197.578 2714.37 198.718 2713.54 200.378C2712.92 202.037 2712.51 203.074 2712.3 203.489C2711.68 207.223 2711.26 210.541 2711.05 213.445C2710.85 216.142 2710.64 218.838 2710.43 221.535C2710.22 224.231 2710.12 226.928 2710.12 229.624C2710.12 232.321 2710.12 235.432 2710.12 238.958V255.137C2710.53 256.175 2711.26 258.041 2712.3 260.738C2713.54 263.434 2714.37 265.198 2714.79 266.027C2716.24 269.553 2718.52 272.146 2721.63 273.806C2724.95 275.258 2728.58 276.398 2732.52 277.228C2736.67 277.85 2740.82 278.369 2744.97 278.784C2749.12 279.199 2752.95 279.925 2756.48 280.962C2760.01 281.791 2762.91 283.347 2765.19 285.629C2767.47 287.91 2768.61 291.229 2768.61 295.585C2768.61 298.904 2766.95 302.845 2763.63 307.408C2760.52 311.971 2756.69 316.327 2752.12 320.476C2747.56 324.624 2742.79 328.15 2737.81 331.054C2732.83 333.958 2728.58 335.41 2725.05 335.41H2719.14C2718.73 335.41 2717.48 334.995 2715.41 334.166C2713.54 333.543 2712.51 333.232 2712.3 333.232C2711.68 333.025 2710.33 332.817 2708.25 332.61C2706.18 332.403 2703.9 332.195 2701.41 331.988C2698.92 331.988 2696.64 331.884 2694.56 331.677C2692.49 331.469 2691.14 331.262 2690.52 331.054C2687.2 329.81 2683.67 327.424 2679.94 323.898C2676.21 320.165 2672.47 316.431 2668.74 312.697C2665.21 308.964 2661.69 305.645 2658.16 302.741C2654.84 299.63 2651.83 298.074 2649.14 298.074Z" fill="#38383B"/>
<path d="M2838.13 281.584V247.048C2838.13 246.841 2838.24 246.115 2838.44 244.87C2838.65 243.626 2838.86 242.277 2839.07 240.825C2839.27 239.166 2839.48 237.507 2839.69 235.847C2839.9 233.98 2840 232.528 2840 231.491C2840.41 231.076 2840.93 229.417 2841.56 226.513C2842.18 223.609 2842.49 221.639 2842.49 220.602V180.465C2842.49 179.843 2842.7 178.391 2843.11 176.109C2843.73 173.62 2844.25 172.168 2844.67 171.753V120.105C2844.67 118.86 2844.25 117.72 2843.42 116.682C2842.59 115.645 2841.56 114.816 2840.31 114.193C2839.07 113.364 2837.82 112.741 2836.58 112.327C2835.54 111.704 2834.71 111.186 2834.09 110.771C2831.39 109.734 2828.8 109.112 2826.31 108.904C2824.03 108.489 2821.95 107.971 2820.09 107.348C2818.22 106.519 2816.77 105.378 2815.73 103.926C2814.69 102.267 2814.18 99.5701 2814.18 95.8365V92.1028C2814.18 91.2731 2814.28 90.3397 2814.49 89.3026C2814.69 89.0952 2815.32 88.4729 2816.35 87.4358C2817.39 86.3987 2818.53 85.3616 2819.78 84.3245C2821.23 83.0799 2822.47 81.9391 2823.51 80.902C2824.55 79.8649 2825.17 79.1389 2825.38 78.724C2826 78.3092 2826.72 77.5832 2827.55 76.5461C2828.38 75.3016 2829.21 74.1607 2830.04 73.1236C2830.87 71.8791 2831.6 70.7382 2832.22 69.7011C2833.05 68.664 2833.67 68.0417 2834.09 67.8343C2839.07 62.4413 2843.11 57.6706 2846.22 53.5221C2849.54 49.1662 2853.38 45.5363 2857.73 42.6324C2860.43 40.3507 2863.44 37.758 2866.76 34.854C2870.28 31.7427 2873.71 30.187 2877.03 30.187C2882.42 30.187 2886.57 31.4316 2889.47 33.9206C2892.37 36.2023 2894.55 39.2099 2896 42.9435C2897.66 46.4697 2898.91 50.4108 2899.74 54.7667C2900.57 59.1226 2901.6 63.271 2902.85 67.2121H2905.65C2906.89 67.2121 2908.03 67.3158 2909.07 67.5232C2910.32 67.7306 2911.46 67.8343 2912.49 67.8343C2913.32 67.8343 2914.15 67.7306 2914.98 67.5232C2916.02 67.3158 2916.95 67.1083 2917.78 66.9009C2919.44 66.2787 2921 65.9675 2922.45 65.9675C2923.9 65.7601 2925.46 65.6564 2927.12 65.6564C2929.4 65.6564 2931.78 65.7601 2934.27 65.9675C2936.76 66.1749 2939.25 66.2786 2941.74 66.2786C2944.44 66.2786 2947.45 66.9009 2950.76 68.1455C2954.29 69.1826 2957.61 70.6345 2960.72 72.5013C2963.83 74.3682 2966.42 76.5461 2968.5 79.0352C2970.57 81.5243 2971.61 84.117 2971.61 86.8135C2971.61 88.4729 2970.78 90.3397 2969.12 92.414C2967.67 94.4882 2965.8 96.4587 2963.52 98.3255C2961.24 100.192 2958.85 101.748 2956.36 102.993C2954.08 104.237 2952.01 104.859 2950.14 104.859H2945.79C2945.58 104.859 2944.96 104.859 2943.92 104.859C2942.88 104.652 2941.74 104.548 2940.5 104.548C2939.25 104.548 2938.11 104.548 2937.07 104.548C2936.04 104.548 2935.41 104.548 2935.21 104.548H2905.65C2900.05 108.282 2896.11 112.741 2893.83 117.927C2891.96 123.32 2890.92 128.92 2890.71 134.728C2890.71 140.536 2890.51 146.448 2890.09 152.463C2889.06 156.611 2888.02 160.967 2886.98 165.531C2886.15 169.887 2885.74 174.45 2885.74 179.221C2885.74 182.539 2886.05 185.962 2886.67 189.488C2887.5 192.807 2887.91 196.229 2887.91 199.755C2887.91 202.037 2887.4 204.423 2886.36 206.912C2885.53 209.401 2885.11 211.993 2885.11 214.69C2885.11 216.349 2885.22 217.594 2885.43 218.424C2885.43 219.253 2885.53 219.979 2885.74 220.602C2885.74 221.224 2885.94 222.365 2886.36 224.024C2886.77 225.476 2887.29 227.032 2887.91 228.691C2888.54 230.35 2889.06 232.01 2889.47 233.669C2889.89 235.121 2890.09 236.055 2890.09 236.469C2890.09 236.884 2890.3 238.336 2890.71 240.825C2891.13 243.107 2891.54 245.596 2891.96 248.293C2892.58 250.989 2893 253.478 2893.2 255.76C2893.62 258.041 2893.83 259.493 2893.83 260.116C2894.24 261.568 2894.55 263.227 2894.76 265.094C2895.17 266.961 2895.69 268.827 2896.32 270.694C2896.94 272.561 2897.77 274.324 2898.8 275.984C2899.84 277.435 2901.19 278.576 2902.85 279.406C2903.68 279.613 2904.82 280.028 2906.27 280.651C2907.93 281.273 2909.49 281.999 2910.94 282.828C2912.6 283.451 2914.05 284.073 2915.29 284.695C2916.75 285.318 2917.58 285.732 2917.78 285.94H2943.92C2946.62 284.488 2949.1 283.036 2951.39 281.584C2953.88 279.925 2956.36 278.473 2958.85 277.228C2961.34 275.776 2963.94 274.635 2966.63 273.806C2969.33 272.768 2972.34 272.25 2975.65 272.25C2978.77 272.25 2980.63 273.494 2981.26 275.984C2982.08 278.265 2982.5 280.858 2982.5 283.762V288.118C2982.5 296.622 2979.8 303.778 2974.41 309.586C2969.02 315.394 2962.38 320.061 2954.5 323.587C2946.82 327.113 2938.63 329.602 2929.92 331.054C2921.41 332.506 2913.84 333.232 2907.21 333.232C2904.72 333.232 2901.92 333.129 2898.8 332.921C2895.9 332.921 2892.79 332.61 2889.47 331.988C2886.36 331.573 2883.25 330.951 2880.14 330.121C2877.03 329.084 2874.33 327.736 2872.05 326.076L2863.96 317.987C2859.19 312.386 2854.42 306.682 2849.65 300.874C2844.87 295.066 2841.04 288.636 2838.13 281.584Z" fill="#38383B"/>
<path d="M3106.47 108.282C3106.47 113.26 3107.61 116.89 3109.89 119.172C3112.17 121.246 3114.97 122.594 3118.29 123.216C3121.82 123.839 3125.55 124.15 3129.49 124.15C3133.64 123.942 3137.37 124.046 3140.69 124.461C3141.11 124.461 3141.94 124.876 3143.18 125.705C3144.43 126.328 3145.26 126.639 3145.67 126.639C3149.82 127.883 3152.93 128.609 3155.01 128.817C3157.08 129.024 3160.19 129.128 3164.34 129.128C3168.28 129.128 3172.33 129.024 3176.47 128.817C3180.62 128.402 3184.36 127.572 3187.67 126.328C3191.2 125.083 3194 123.113 3196.07 120.416C3198.36 117.72 3199.5 113.986 3199.5 109.215C3199.5 103.2 3198.46 96.9773 3196.39 90.5472C3194.52 83.9096 3191.2 78.724 3186.43 74.9904C3185.39 74.9904 3183.73 74.8867 3181.45 74.6793C3179.38 74.4719 3177.1 74.2644 3174.61 74.057C3172.12 73.8496 3169.63 73.6422 3167.14 73.4347C3164.86 73.0199 3163.2 72.8125 3162.16 72.8125C3161.75 72.6051 3161.23 72.2939 3160.61 71.8791C3159.36 71.0494 3158.64 70.6345 3158.43 70.6345H3153.14C3148.78 70.6345 3143.8 71.7754 3138.2 74.057C3132.81 76.1313 3127.73 78.9315 3122.96 82.4577C3118.39 85.9839 3114.45 90.0286 3111.14 94.5919C3108.02 98.9478 3106.47 103.511 3106.47 108.282ZM3035.22 185.132C3035.22 172.894 3036.57 160.553 3039.26 148.107C3042.17 135.454 3047.25 123.942 3054.51 113.571C3055.96 111.497 3058.03 108.8 3060.73 105.482C3063.43 101.955 3066.02 98.533 3068.51 95.2142C3071.21 91.688 3073.49 88.5766 3075.35 85.8801C3077.22 83.1836 3078.26 81.628 3078.47 81.2131C3081.16 77.8943 3084.69 74.783 3089.04 71.8791C3093.4 68.9752 3097.96 66.1749 3102.73 63.4784C3107.51 60.7819 3112.28 58.1891 3117.05 55.7001C3121.82 53.0036 3125.97 50.4108 3129.49 47.9217C3133.64 47.092 3137.79 46.4697 3141.94 46.0549C3146.09 45.4326 3150.23 45.1215 3154.38 45.1215C3161.23 45.1215 3167.45 45.8475 3173.05 47.2994C3177.41 50.2034 3182.07 52.0702 3187.05 52.8999C3192.03 53.5221 3196.9 54.5592 3201.68 56.0112C3205.62 57.0483 3209.45 58.7077 3213.19 60.9894C3217.13 63.0636 3220.65 65.6564 3223.77 68.7677C3227.08 71.6717 3230.09 74.8867 3232.79 78.4129C3235.69 81.7317 3238.18 85.0504 3240.26 88.3692C3240.46 88.5766 3240.77 89.0952 3241.19 89.9249C3241.6 90.7546 3242.02 91.688 3242.43 92.7251C3243.06 93.5548 3243.57 94.3845 3243.99 95.2142C3244.4 96.0439 3244.61 96.5624 3244.61 96.7699C3245.65 98.2218 3247 99.8812 3248.66 101.748C3250.52 103.407 3252.29 105.274 3253.95 107.348C3255.61 109.215 3256.95 111.289 3257.99 113.571C3259.24 115.645 3259.86 117.823 3259.86 120.105C3259.86 121.764 3259.75 123.839 3259.55 126.328C3259.34 128.609 3258.92 130.995 3258.3 133.484C3257.68 135.765 3256.75 137.943 3255.5 140.018C3254.46 142.092 3253.01 143.544 3251.15 144.373C3250.73 144.373 3249.9 144.581 3248.66 144.996C3247.62 145.411 3246.38 145.929 3244.92 146.551C3243.47 146.966 3242.02 147.381 3240.57 147.796C3239.32 148.211 3238.49 148.522 3238.08 148.729C3237.87 148.729 3237.14 149.041 3235.9 149.663C3234.86 150.078 3234.24 150.389 3234.03 150.596C3231.34 150.596 3227.19 150.7 3221.59 150.907C3216.2 150.907 3209.97 151.011 3202.92 151.218C3196.07 151.218 3188.82 151.322 3181.14 151.53C3173.47 151.737 3166.1 151.944 3159.05 152.152C3152.2 152.359 3145.98 152.567 3140.38 152.774C3134.78 152.774 3130.63 152.774 3127.94 152.774C3127.11 152.774 3125.55 152.878 3123.27 153.085C3120.99 153.085 3118.6 153.189 3116.11 153.396C3113.62 153.604 3111.24 153.915 3108.96 154.33C3106.88 154.537 3105.43 154.745 3104.6 154.952C3099.21 159.308 3095.58 164.597 3093.71 170.82C3092.05 176.835 3091.22 183.265 3091.22 190.11C3091.22 197.578 3091.95 204.111 3093.4 209.712C3094.85 215.105 3097.03 221.327 3099.93 228.38C3100.35 228.795 3100.76 229.624 3101.18 230.869C3101.8 231.906 3102.11 232.632 3102.11 233.047C3102.32 233.254 3102.84 233.773 3103.67 234.603C3104.71 235.225 3105.64 236.055 3106.47 237.092C3107.51 237.921 3108.44 238.855 3109.27 239.892C3110.1 240.722 3110.51 241.344 3110.51 241.759C3110.72 241.966 3111.34 242.692 3112.38 243.937C3113.62 244.974 3114.87 246.218 3116.11 247.67C3117.36 249.122 3118.5 250.574 3119.54 252.026C3120.57 253.271 3121.2 254.1 3121.4 254.515C3121.82 254.515 3122.23 254.826 3122.65 255.449C3123.27 256.071 3123.79 256.382 3124.2 256.382C3126.07 258.041 3128.35 260.012 3131.05 262.294C3133.95 264.575 3136.75 266.753 3139.45 268.827C3142.56 271.316 3145.88 273.806 3149.4 276.295C3158.32 278.784 3166.93 280.028 3175.23 280.028C3183.53 280.028 3192.34 278.784 3201.68 276.295C3207.07 272.976 3212.57 270.487 3218.17 268.827C3223.97 266.961 3229.78 265.094 3235.59 263.227C3236 262.812 3236.83 262.397 3238.08 261.982C3239.32 261.36 3240.05 260.842 3240.26 260.427H3242.43C3243.89 261.049 3245.65 261.879 3247.72 262.916C3250.01 263.953 3251.15 264.783 3251.15 265.405C3251.56 265.82 3251.98 267.375 3252.39 270.072C3253.01 272.768 3253.32 274.843 3253.32 276.295C3253.32 279.821 3252.29 283.969 3250.21 288.74C3248.35 293.511 3246.48 297.037 3244.61 299.319C3244.61 299.733 3243.37 300.771 3240.88 302.43C3238.6 304.089 3236.83 305.334 3235.59 306.164C3228.95 310.519 3222.42 315.187 3215.99 320.165C3209.56 324.935 3202.61 328.773 3195.14 331.677C3194.73 331.884 3193.69 332.091 3192.03 332.299C3190.58 332.714 3189.02 333.025 3187.36 333.232C3185.7 333.44 3184.15 333.647 3182.7 333.855C3181.24 334.062 3180.41 334.166 3180.21 334.166C3176.27 335.203 3172.84 336.136 3169.94 336.966C3167.24 338.003 3164.03 338.522 3160.29 338.522C3156.77 338.522 3153.55 338.003 3150.65 336.966C3147.75 336.136 3144.43 335.203 3140.69 334.166C3138.83 333.751 3136.13 333.025 3132.6 331.988C3129.28 331.158 3125.76 330.121 3122.02 328.876C3118.29 327.632 3114.77 326.284 3111.45 324.832C3108.33 323.38 3106.05 322.031 3104.6 320.787C3103.98 320.58 3102.84 319.646 3101.18 317.987C3099.52 316.327 3097.65 314.564 3095.58 312.697C3093.71 310.831 3091.95 309.068 3090.29 307.408C3088.63 305.749 3087.49 304.712 3086.87 304.297C3086.66 303.882 3085.62 303.052 3083.76 301.808C3081.89 300.563 3080.85 299.733 3080.64 299.319C3079.61 298.904 3078.36 297.97 3076.91 296.518C3075.46 294.859 3074.52 293.822 3074.11 293.407C3073.49 292.577 3072.14 290.711 3070.07 287.807C3068.2 284.695 3066.12 281.377 3063.84 277.85C3061.56 274.324 3059.28 270.902 3057 267.583C3054.92 264.264 3053.47 261.879 3052.64 260.427C3049.74 256.278 3047.77 252.13 3046.73 247.981C3045.9 243.833 3044.97 239.373 3043.93 234.603C3043.93 234.395 3043.52 233.462 3042.69 231.802C3042.06 229.936 3041.75 228.795 3041.75 228.38C3039.06 222.157 3037.29 215.209 3036.46 207.534C3035.63 199.652 3035.22 192.185 3035.22 185.132Z" fill="#38383B"/>
<path d="M3316.31 286.873V279.406C3316.31 278.991 3316.93 277.643 3318.18 275.361C3319.42 273.08 3320.04 271.731 3320.04 271.316C3321.08 268.827 3322.01 266.131 3322.84 263.227C3323.67 260.116 3324.61 257.212 3325.64 254.515C3326.89 251.819 3328.44 249.537 3330.31 247.67C3332.18 245.803 3334.87 244.87 3338.4 244.87H3341.51C3342.13 244.87 3342.96 245.803 3344 247.67C3345.04 249.537 3345.87 250.989 3346.49 252.026C3349.19 257.004 3352.09 262.708 3355.2 269.139C3358.52 275.361 3362.25 281.169 3366.4 286.562C3370.55 291.955 3375.43 296.518 3381.03 300.252C3386.63 303.986 3393.06 305.852 3400.32 305.852C3403.01 305.852 3406.44 304.919 3410.58 303.052C3414.73 300.978 3418.78 298.593 3422.72 295.896C3426.87 293.2 3430.5 290.399 3433.61 287.496C3436.93 284.384 3438.9 281.688 3439.52 279.406C3440.35 276.71 3441.07 274.22 3441.7 271.939C3442.32 269.657 3442.63 267.272 3442.63 264.783C3442.63 260.634 3441.59 256.382 3439.52 252.026C3439.52 249.537 3437.34 246.115 3432.99 241.759C3428.84 237.403 3423.96 233.151 3418.36 229.002C3412.76 224.646 3407.37 220.705 3402.18 217.179C3397 213.653 3393.47 211.371 3391.6 210.334C3389.32 209.504 3386.94 209.09 3384.45 209.09C3382.17 208.882 3380.2 208.052 3378.54 206.6C3378.54 206.186 3378.02 205.563 3376.98 204.734C3376.15 203.904 3375.22 203.074 3374.18 202.245C3373.35 201.207 3372.42 200.274 3371.38 199.444C3370.55 198.615 3370.14 198.2 3370.14 198.2C3369.72 197.37 3368.37 196.229 3366.09 194.777C3363.81 193.118 3362.25 191.873 3361.42 191.044L3357.07 188.866L3339.96 171.753C3338.5 168.227 3337.26 164.701 3336.22 161.175C3335.39 157.649 3334.46 154.019 3333.42 150.285C3333.21 149.248 3332.8 147.796 3332.18 145.929C3331.76 144.062 3331.35 142.299 3330.93 140.64C3330.52 138.773 3330.1 137.217 3329.69 135.973C3329.27 134.521 3329.07 133.691 3329.07 133.484C3328.65 127.883 3329.07 122.075 3330.31 116.06C3331.56 109.838 3333.42 103.926 3335.91 98.3255C3338.61 92.7251 3341.72 87.5395 3345.25 82.7688C3348.77 77.7906 3352.71 73.7459 3357.07 70.6345C3357.48 70.2197 3358.62 69.8048 3360.49 69.39C3362.36 68.7677 3363.6 68.2492 3364.22 67.8343C3367.34 66.5898 3370.65 64.723 3374.18 62.2339C3377.91 59.5374 3381.75 56.9446 3385.69 54.4555C3389.63 51.759 3393.58 49.4774 3397.52 47.6106C3401.46 45.7438 3405.19 44.8103 3408.72 44.8103C3412.24 44.8103 3416.29 45.64 3420.85 47.2994C3425.41 48.7514 3429.25 49.9959 3432.36 51.033C3437.96 52.8999 3443.36 54.663 3448.54 56.3223C3453.73 57.9817 3458.29 60.1597 3462.23 62.8562C3466.38 65.5527 3469.6 68.9752 3471.88 73.1236C3474.37 77.2721 3475.61 82.6651 3475.61 89.3026C3475.61 91.5843 3475.3 94.9031 3474.68 99.2589C3474.26 103.407 3473.43 107.556 3472.19 111.704C3470.94 115.645 3469.18 119.172 3466.9 122.283C3464.62 125.187 3461.71 126.639 3458.19 126.639H3456.32C3455.91 126.224 3455.18 124.772 3454.14 122.283C3453.11 119.794 3452.38 118.342 3451.96 117.927C3449.06 112.741 3445.85 107.763 3442.32 102.993C3439 98.2218 3435.16 94.0734 3430.81 90.5472C3426.66 86.8135 3422.1 83.9096 3417.12 81.8354C3412.14 79.7612 3406.54 78.724 3400.32 78.724C3398.45 78.724 3396.27 78.8278 3393.78 79.0352C3391.29 79.2426 3389.12 79.9686 3387.25 81.2131C3380.2 86.6061 3374.8 92.3103 3371.07 98.3255C3367.54 104.341 3365.78 111.912 3365.78 121.038C3365.78 126.017 3366.92 130.58 3369.2 134.728C3371.48 138.669 3374.39 142.196 3377.91 145.307C3381.44 148.418 3385.38 151.115 3389.74 153.396C3394.09 155.678 3398.35 157.441 3402.49 158.686C3402.7 158.893 3403.43 159.101 3404.67 159.308C3405.92 159.515 3407.27 159.723 3408.72 159.93C3410.38 160.138 3411.83 160.345 3413.07 160.553C3414.32 160.76 3415.04 160.864 3415.25 160.864C3415.67 160.864 3416.39 161.278 3417.43 162.108C3418.47 162.73 3419.19 163.042 3419.61 163.042C3424.17 166.36 3428.84 169.679 3433.61 172.998C3438.59 176.109 3443.36 179.428 3447.92 182.954C3452.69 186.273 3457.25 189.903 3461.61 193.844C3465.97 197.785 3469.91 202.037 3473.43 206.6C3473.64 206.808 3474.06 207.534 3474.68 208.778C3475.3 210.023 3475.92 211.475 3476.54 213.134C3477.37 214.586 3478.1 216.142 3478.72 217.801C3479.34 219.253 3479.86 220.394 3480.28 221.224C3480.28 221.639 3480.28 222.468 3480.28 223.713C3480.49 224.957 3480.69 226.306 3480.9 227.758C3481.11 229.21 3481.32 230.662 3481.52 232.114C3481.94 233.358 3482.25 234.084 3482.46 234.291C3483.29 236.781 3484.32 239.062 3485.57 241.136C3486.81 243.003 3487.95 244.87 3488.99 246.737C3490.23 248.604 3491.27 250.47 3492.1 252.337C3492.93 254.204 3493.35 256.382 3493.35 258.871C3493.35 265.509 3491.89 271.628 3488.99 277.228C3486.09 282.828 3483.18 288.74 3480.28 294.963C3477.58 299.319 3474.06 303.571 3469.7 307.719C3465.34 311.868 3461.71 315.29 3458.81 317.987C3450.51 325.247 3440.97 330.328 3430.19 333.232C3419.4 336.344 3409.03 337.899 3399.07 337.899C3391.6 337.899 3384.03 337.485 3376.36 336.655C3368.68 335.825 3361.53 333.958 3354.89 331.054C3354.68 330.847 3353.96 330.432 3352.71 329.81C3351.47 328.98 3350.02 328.15 3348.36 327.321C3346.9 326.284 3345.45 325.35 3344 324.521C3342.76 323.691 3341.93 323.172 3341.51 322.965C3337.36 320.476 3333.63 318.298 3330.31 316.431C3327.2 314.357 3324.61 312.075 3322.53 309.586C3320.46 307.097 3318.9 304.089 3317.87 300.563C3316.83 297.037 3316.31 292.474 3316.31 286.873Z" fill="#38383B"/>
<path d="M106.307 14.8887C135.313 14.8887 159.105 18.6367 177.682 26.1327C196.585 33.3027 210.599 44.2208 219.725 58.8868C228.85 73.5529 233.413 91.9669 233.413 114.129C233.413 132.706 229.991 148.187 223.147 160.571C216.302 172.956 207.503 182.896 196.748 190.392C186.319 197.563 175.238 203.266 163.505 207.503L259.323 363.941H207.992L123.417 219.725H53.9982V363.941H10V14.8887H106.307ZM103.863 53.0204H53.9982V182.571H106.307C125.21 182.571 140.691 180.126 152.75 175.238C164.808 170.023 173.608 162.527 179.148 152.75C185.015 142.972 187.948 130.75 187.948 116.084C187.948 100.767 184.852 88.5449 178.66 79.4193C172.793 70.2938 163.668 63.6126 151.283 59.3757C138.898 55.1389 123.092 53.0204 103.863 53.0204Z" fill="#38383B"/>
<path d="M523.835 363.941H328.777V14.8887H523.835V53.5093H372.775V162.527H515.035V200.659H372.775V325.32H523.835V363.941Z" fill="#38383B"/>
<path d="M810.148 363.941H615.089V14.8887H810.148V53.5093H659.087V162.527H801.348V200.659H659.087V325.32H810.148V363.941Z" fill="#38383B"/>
<path d="M1147.3 14.8887L1022.64 363.941H978.643L853.982 14.8887H899.935L978.643 238.79C982.228 248.242 985.324 257.367 987.932 266.167C990.539 274.967 992.82 283.44 994.776 291.588C997.057 299.41 999.013 307.232 1000.64 315.054C1002.27 307.232 1004.06 299.247 1006.02 291.099C1008.3 282.952 1010.75 274.478 1013.35 265.678C1016.29 256.879 1019.38 247.59 1022.64 237.813L1100.86 14.8887H1147.3Z" fill="#38383B"/>
<path d="M1404.26 363.941H1209.2V14.8887H1404.26V53.5093H1253.2V162.527H1395.46V200.659H1253.2V325.32H1404.26V363.941Z" fill="#38383B"/>
<path d="M1693.5 270.567C1693.5 291.425 1688.45 309.187 1678.35 323.854C1668.24 338.194 1653.74 349.275 1634.84 357.097C1616.26 364.918 1594.26 368.829 1568.84 368.829C1555.8 368.829 1543.26 368.178 1531.2 366.874C1519.47 365.57 1508.71 363.778 1498.93 361.496C1489.16 358.889 1480.52 355.793 1473.02 352.208V310.165C1484.76 315.38 1499.26 320.106 1516.53 324.342C1534.13 328.579 1552.22 330.698 1570.8 330.698C1588.07 330.698 1602.57 328.416 1614.31 323.854C1626.04 319.291 1634.84 312.772 1640.7 304.299C1646.57 295.825 1649.5 285.885 1649.5 274.478C1649.5 263.071 1647.06 253.456 1642.17 245.635C1637.28 237.813 1628.81 230.643 1616.75 224.124C1605.02 217.28 1588.56 210.11 1567.37 202.614C1552.38 197.074 1539.18 191.207 1527.78 185.015C1516.69 178.497 1507.41 171.164 1499.91 163.016C1492.41 154.868 1486.71 145.58 1482.8 135.15C1479.21 124.721 1477.42 112.662 1477.42 98.974C1477.42 80.397 1482.15 64.5903 1491.6 51.5538C1501.05 38.1914 1514.09 27.9252 1530.71 20.7551C1547.66 13.585 1567.05 10 1588.88 10C1608.11 10 1625.71 11.7925 1641.68 15.3775C1657.65 18.9626 1672.15 23.6883 1685.19 29.5547L1671.5 67.1976C1659.44 61.983 1646.24 57.5832 1631.9 53.9982C1617.89 50.4131 1603.22 48.6206 1587.91 48.6206C1573.24 48.6206 1561.02 50.739 1551.24 54.9759C1541.46 59.2128 1534.13 65.2421 1529.24 73.064C1524.35 80.56 1521.91 89.3596 1521.91 99.4629C1521.91 111.196 1524.35 120.973 1529.24 128.795C1534.13 136.617 1542.12 143.624 1553.2 149.816C1564.28 156.009 1579.27 162.69 1598.17 169.86C1618.71 177.356 1635.98 185.504 1649.99 194.303C1664.33 202.777 1675.09 213.043 1682.26 225.102C1689.75 237.161 1693.5 252.316 1693.5 270.567Z" fill="#38383B"/>
</svg>
